<svg version="1.1" xmlns="http://www.w3.org/2000/svg" xmlns:xlink="http://www.w3.org/1999/xlink" width="1017.490234375" height="420"><defs/><g><g transform="translate(-334,-70) scale(1,1)"><path fill="none" stroke="#000000" d="M 344 80 L 1144 80 L 1144 480 L 344 480 L 344 80" stroke-miterlimit="10"/></g><g transform="translate(-334,-70) scale(1,1)"><path fill="#ffffff" stroke="none" d="M 344 80 L 344 105 L 540.5546875 105 L 553.0546875 92.5 L 553.0546875 80 L 344 80"/></g><g transform="translate(-334,-70) scale(1,1)"><path fill="none" stroke="#000000" d="M 344 80 L 344 105 L 540.5546875 105 L 553.0546875 92.5 L 553.0546875 80 L 344 80 L 344 80" stroke-miterlimit="10"/></g><g transform="translate(-334,-70) scale(1,1)"><g><path fill="none" stroke="none"/><text fill="#000000" stroke="none" font-family="Arial" font-size="16px" font-style="normal" font-weight="normal" text-decoration="none" x="419.0390625" y="100.5">Actions Dunning</text></g></g><g transform="translate(-334,-70) scale(1,1)"><g><path fill="none" stroke="none"/><text fill="#000000" stroke="none" font-family="Arial" font-size="16px" font-style="normal" font-weight="bold" text-decoration="none" x="349" y="100.5">use case</text></g></g><g transform="translate(-334,-70) scale(1,1)"><path fill="#ffffff" stroke="none" d="M 1249.9803094815343 224.39 C 1249.9803094815343 213.68119772799997 1258.399634518916 205 1268.785400390625 205 C 1279.171166262334 205 1287.5904912997157 213.68119772799997 1287.5904912997157 224.39 C 1287.5904912997157 235.098802272 1279.171166262334 243.78 1268.785400390625 243.78 C 1258.399634518916 243.78 1249.9803094815343 235.098802272 1249.9803094815343 224.39 Z"/></g><g transform="translate(-334,-70) scale(1,1)"><path fill="none" stroke="#000000" d="M 1249.9803094815343 224.39 C 1249.9803094815343 213.68119772799997 1258.399634518916 205 1268.785400390625 205 C 1279.171166262334 205 1287.5904912997157 213.68119772799997 1287.5904912997157 224.39 C 1287.5904912997157 235.098802272 1279.171166262334 243.78 1268.785400390625 243.78 C 1258.399634518916 243.78 1249.9803094815343 235.098802272 1249.9803094815343 224.39 Z" stroke-miterlimit="10"/></g><g transform="translate(-334,-70) scale(1,1)"><path fill="none" stroke="#000000" d="M 1268.785400390625 243.78 L 1268.785400390625 281.22" stroke-miterlimit="10"/></g><g transform="translate(-334,-70) scale(1,1)"><path fill="none" stroke="#000000" d="M 1248.8741276633523 257.82 L 1288.6966731178977 257.82" stroke-miterlimit="10"/></g><g transform="translate(-334,-70) scale(1,1)"><path fill="none" stroke="#000000" d="M 1268.785400390625 281.22 L 1241.1308549360797 320" stroke-miterlimit="10"/></g><g transform="translate(-334,-70) scale(1,1)"><path fill="none" stroke="#000000" d="M 1268.785400390625 281.22 L 1296.4399458451703 320" stroke-miterlimit="10"/></g><g transform="translate(-334,-70) scale(1,1)"><path fill="none" stroke="#000000" d="M 1224 346 L 1313.57080078125 346" stroke-miterlimit="10"/></g><g transform="translate(-334,-70) scale(1,1)"><g><path fill="none" stroke="none"/><text fill="#000000" stroke="none" font-family="Arial" font-size="13px" font-style="normal" font-weight="bold" text-decoration="none" x="1255.05859375" y="340.5">SOA</text></g></g><g transform="translate(-334,-70) scale(1,1)"><path fill="#ffffff" stroke="none" d="M 1200 364 L 1330.490234375 364 L 1340.490234375 374 L 1340.490234375 412 L 1200 412 L 1200 364"/></g><g transform="translate(-334,-70) scale(1,1)"><path fill="none" stroke="#000000" d="M 1200 364 L 1330.490234375 364 L 1340.490234375 374 L 1340.490234375 412 L 1200 412 L 1200 364 L 1200 364" stroke-miterlimit="10"/></g><g transform="translate(-334,-70) scale(1,1)"><path fill="none" stroke="#000000" d="M 1330.490234375 364 L 1330.490234375 374 L 1340.490234375 374 L 1330.490234375 364" stroke-miterlimit="10"/></g><g transform="translate(-334,-70) scale(1,1)"><g><path fill="none" stroke="none"/><text fill="#000000" stroke="none" font-family="Arial" font-size="20px" font-style="normal" font-weight="normal" text-decoration="none" x="1205" y="389">&lt;&lt;System&gt;&gt;</text></g></g><g transform="translate(-334,-70) scale(1,1)"><path fill="none" stroke="#000000" d="M 1269 357 L 1270 363" stroke-miterlimit="10" stroke-dasharray="3"/></g><g transform="translate(-334,-70) scale(1,1)"><rect fill="#000000" stroke="none" x="1232" y="220" width="72" height="8"/></g><g transform="translate(-334,-70) scale(1,1)"><path fill="none" stroke="#000000" d="M 1232 220 L 1304 220 L 1304 228 L 1232 228 L 1232 220 Z Z" stroke-miterlimit="10"/></g><g transform="translate(-334,-70) scale(1,1)"><path fill="#C0C0C0" stroke="none" d="M 631 167 C 631 149.3268864 677.5623808 135 735 135 C 792.4376192 135 839 149.3268864 839 167 C 839 184.6731136 792.4376192 199 735 199 C 677.5623808 199 631 184.6731136 631 167 Z" opacity="0.2"/></g><g transform="translate(-334,-70) scale(1,1)"><path fill="#ffffff" stroke="none" d="M 624 160 C 624 142.3268864 670.5623808 128 728 128 C 785.4376192 128 832 142.3268864 832 160 C 832 177.6731136 785.4376192 192 728 192 C 670.5623808 192 624 177.6731136 624 160 Z"/></g><g transform="translate(-334,-70) scale(1,1)"><path fill="none" stroke="#000000" d="M 624 160 C 624 142.3268864 670.5623808 128 728 128 C 785.4376192 128 832 142.3268864 832 160 C 832 177.6731136 785.4376192 192 728 192 C 670.5623808 192 624 177.6731136 624 160 Z" stroke-miterlimit="10"/></g><g transform="translate(-334,-70) scale(1,1)"><g><path fill="none" stroke="none"/><text fill="#000000" stroke="none" font-family="Arial" font-size="16px" font-style="normal" font-weight="bold" text-decoration="none" x="685.765625" y="168.5">Baring OUT</text></g></g><g transform="translate(-334,-70) scale(1,1)"><path fill="#C0C0C0" stroke="none" d="M 623 247 C 623 229.3268864 671.3532416 215 731 215 C 790.6467584 215 839 229.3268864 839 247 C 839 264.6731136 790.6467584 279 731 279 C 671.3532416 279 623 264.6731136 623 247 Z" opacity="0.2"/></g><g transform="translate(-334,-70) scale(1,1)"><path fill="#ffffff" stroke="none" d="M 616 240 C 616 222.3268864 664.3532416 208 724 208 C 783.6467584 208 832 222.3268864 832 240 C 832 257.6731136 783.6467584 272 724 272 C 664.3532416 272 616 257.6731136 616 240 Z"/></g><g transform="translate(-334,-70) scale(1,1)"><path fill="none" stroke="#000000" d="M 616 240 C 616 222.3268864 664.3532416 208 724 208 C 783.6467584 208 832 222.3268864 832 240 C 832 257.6731136 783.6467584 272 724 272 C 664.3532416 272 616 257.6731136 616 240 Z" stroke-miterlimit="10"/></g><g transform="translate(-334,-70) scale(1,1)"><g><path fill="none" stroke="none"/><text fill="#000000" stroke="none" font-family="Arial" font-size="16px" font-style="normal" font-weight="bold" text-decoration="none" x="690.65234375" y="248.5">Baring IN</text></g></g><g transform="translate(-334,-70) scale(1,1)"><path fill="#C0C0C0" stroke="none" d="M 583 359 C 583 336.908608 647.4709888 319 727 319 C 806.5290112 319 871 336.908608 871 359 C 871 381.091392 806.5290112 399 727 399 C 647.4709888 399 583 381.091392 583 359 Z" opacity="0.2"/></g><g transform="translate(-334,-70) scale(1,1)"><path fill="#ffffff" stroke="none" d="M 576 352 C 576 329.908608 640.4709888 312 720 312 C 799.5290112 312 864 329.908608 864 352 C 864 374.091392 799.5290112 392 720 392 C 640.4709888 392 576 374.091392 576 352 Z"/></g><g transform="translate(-334,-70) scale(1,1)"><path fill="none" stroke="#000000" d="M 576 352 C 576 329.908608 640.4709888 312 720 312 C 799.5290112 312 864 329.908608 864 352 C 864 374.091392 799.5290112 392 720 392 C 640.4709888 392 576 374.091392 576 352 Z" stroke-miterlimit="10"/></g><g transform="translate(-334,-70) scale(1,1)"><g><path fill="none" stroke="none"/><text fill="#000000" stroke="none" font-family="Arial" font-size="16px" font-style="normal" font-weight="bold" text-decoration="none" x="632.84765625" y="352.5">Désactivation et Mise en</text><text fill="#000000" stroke="none" font-family="Arial" font-size="16px" font-style="normal" font-weight="bold" text-decoration="none" x="685.765625" y="368.5">Black List</text></g></g><g transform="translate(-334,-70) scale(1,1)"><path fill="none" stroke="#000000" d="M 833 183 L 1223 270" stroke-miterlimit="10"/></g><g transform="translate(-334,-70) scale(1,1)"><path fill="none" stroke="#000000" d="M 833 248 L 1223 277" stroke-miterlimit="10"/></g><g transform="translate(-334,-70) scale(1,1)"><path fill="none" stroke="#000000" d="M 865 333 L 1223 286" stroke-miterlimit="10"/></g></g></svg>