<svg version="1.1" xmlns="http://www.w3.org/2000/svg" xmlns:xlink="http://www.w3.org/1999/xlink" width="1313.490234375" height="1060"><defs/><g><g transform="translate(-118,-118) scale(1,1)"><path fill="none" stroke="#000000" d="M 344 128 L 1224 128 L 1224 1168 L 344 1168 L 344 128" stroke-miterlimit="10"/></g><g transform="translate(-118,-118) scale(1,1)"><path fill="#ffffff" stroke="none" d="M 344 128 L 344 153 L 597.4453125 153 L 609.9453125 140.5 L 609.9453125 128 L 344 128"/></g><g transform="translate(-118,-118) scale(1,1)"><path fill="none" stroke="#000000" d="M 344 128 L 344 153 L 597.4453125 153 L 609.9453125 140.5 L 609.9453125 128 L 344 128 L 344 128" stroke-miterlimit="10"/></g><g transform="translate(-118,-118) scale(1,1)"><g><path fill="none" stroke="none"/><text fill="#000000" stroke="none" font-family="Arial" font-size="16px" font-style="normal" font-weight="normal" text-decoration="none" x="419.0390625" y="148.5">Partie Exception (Alerte)</text></g></g><g transform="translate(-118,-118) scale(1,1)"><g><path fill="none" stroke="none"/><text fill="#000000" stroke="none" font-family="Arial" font-size="16px" font-style="normal" font-weight="bold" text-decoration="none" x="349" y="148.5">use case</text></g></g><g transform="translate(-118,-118) scale(1,1)"><path fill="#C0C0C0" stroke="none" d="M 479 264 C 479 250.19288 526.2339536 239 584.5 239 C 642.7660464 239 690 250.19288 690 264 C 690 277.80712 642.7660464 289 584.5 289 C 526.2339536 289 479 277.80712 479 264 Z" opacity="0.2"/></g><g transform="translate(-118,-118) scale(1,1)"><path fill="#ffffff" stroke="none" d="M 472 257 C 472 243.19288 519.2339536 232 577.5 232 C 635.7660464 232 683 243.19288 683 257 C 683 270.80712 635.7660464 282 577.5 282 C 519.2339536 282 472 270.80712 472 257 Z"/></g><g transform="translate(-118,-118) scale(1,1)"><path fill="none" stroke="#000000" d="M 472 257 C 472 243.19288 519.2339536 232 577.5 232 C 635.7660464 232 683 243.19288 683 257 C 683 270.80712 635.7660464 282 577.5 282 C 519.2339536 282 472 270.80712 472 257 Z" stroke-miterlimit="10"/></g><g transform="translate(-118,-118) scale(1,1)"><g><path fill="none" stroke="none"/><text fill="#000000" stroke="none" font-family="Arial" font-size="18px" font-style="normal" font-weight="bold" text-decoration="none" x="513.46728515625" y="266.5">Initier Exception</text></g></g><g transform="translate(-118,-118) scale(1,1)"><path fill="#C0C0C0" stroke="none" d="M 479 400 C 479 386.19288 514.817216 375 559 375 C 603.182784 375 639 386.19288 639 400 C 639 413.80712 603.182784 425 559 425 C 514.817216 425 479 413.80712 479 400 Z" opacity="0.2"/></g><g transform="translate(-118,-118) scale(1,1)"><path fill="#ffffff" stroke="none" d="M 472 393 C 472 379.19288 507.81721600000003 368 552 368 C 596.182784 368 632 379.19288 632 393 C 632 406.80712 596.182784 418 552 418 C 507.81721600000003 418 472 406.80712 472 393 Z"/></g><g transform="translate(-118,-118) scale(1,1)"><path fill="none" stroke="#000000" d="M 472 393 C 472 379.19288 507.81721600000003 368 552 368 C 596.182784 368 632 379.19288 632 393 C 632 406.80712 596.182784 418 552 418 C 507.81721600000003 418 472 406.80712 472 393 Z" stroke-miterlimit="10"/></g><g transform="translate(-118,-118) scale(1,1)"><g><path fill="none" stroke="none"/><text fill="#000000" stroke="none" font-family="Arial" font-size="16px" font-style="normal" font-weight="bold" text-decoration="none" x="504.5703125" y="401.5">Valider Alerte</text></g></g><g transform="translate(-118,-118) scale(1,1)"><path fill="#C0C0C0" stroke="none" d="M 487 496 C 487 482.19288 533.1146656 471 590 471 C 646.8853344 471 693 482.19288 693 496 C 693 509.80712 646.8853344 521 590 521 C 533.1146656 521 487 509.80712 487 496 Z" opacity="0.2"/></g><g transform="translate(-118,-118) scale(1,1)"><path fill="#ffffff" stroke="none" d="M 480 489 C 480 475.19288 526.1146656 464 583 464 C 639.8853344 464 686 475.19288 686 489 C 686 502.80712 639.8853344 514 583 514 C 526.1146656 514 480 502.80712 480 489 Z"/></g><g transform="translate(-118,-118) scale(1,1)"><path fill="none" stroke="#000000" d="M 480 489 C 480 475.19288 526.1146656 464 583 464 C 639.8853344 464 686 475.19288 686 489 C 686 502.80712 639.8853344 514 583 514 C 526.1146656 514 480 502.80712 480 489 Z" stroke-miterlimit="10"/></g><g transform="translate(-118,-118) scale(1,1)"><g><path fill="none" stroke="none"/><text fill="#000000" stroke="none" font-family="Arial" font-size="16px" font-style="normal" font-weight="bold" text-decoration="none" x="518.51953125" y="497.5">Rejeter une Alerte</text></g></g><g transform="translate(-118,-118) scale(1,1)"><path fill="#C0C0C0" stroke="none" d="M 431 623 C 431 600.908608 497.4857072 583 579.5 583 C 661.5142928 583 728 600.908608 728 623 C 728 645.091392 661.5142928 663 579.5 663 C 497.4857072 663 431 645.091392 431 623 Z" opacity="0.2"/></g><g transform="translate(-118,-118) scale(1,1)"><path fill="#ffffff" stroke="none" d="M 424 616 C 424 593.908608 490.4857072 576 572.5 576 C 654.5142928 576 721 593.908608 721 616 C 721 638.091392 654.5142928 656 572.5 656 C 490.4857072 656 424 638.091392 424 616 Z"/></g><g transform="translate(-118,-118) scale(1,1)"><path fill="none" stroke="#000000" d="M 424 616 C 424 593.908608 490.4857072 576 572.5 576 C 654.5142928 576 721 593.908608 721 616 C 721 638.091392 654.5142928 656 572.5 656 C 490.4857072 656 424 638.091392 424 616 Z" stroke-miterlimit="10"/></g><g transform="translate(-118,-118) scale(1,1)"><g><path fill="none" stroke="none"/><text fill="#000000" stroke="none" font-family="Arial" font-size="16px" font-style="normal" font-weight="bold" text-decoration="none" x="484.578125" y="616.5">Affichage du Contenu de</text><text fill="#000000" stroke="none" font-family="Arial" font-size="16px" font-style="normal" font-weight="bold" text-decoration="none" x="548.296875" y="632.5">l'Alerte</text></g></g><g transform="translate(-118,-118) scale(1,1)"><path fill="#C0C0C0" stroke="none" d="M 439 795 C 439 779.5360256 494.5166848 767 563 767 C 631.4833152 767 687 779.5360256 687 795 C 687 810.4639744 631.4833152 823 563 823 C 494.5166848 823 439 810.4639744 439 795 Z" opacity="0.2"/></g><g transform="translate(-118,-118) scale(1,1)"><path fill="#ffffff" stroke="none" d="M 432 788 C 432 772.5360256 487.5166848 760 556 760 C 624.4833152 760 680 772.5360256 680 788 C 680 803.4639744 624.4833152 816 556 816 C 487.5166848 816 432 803.4639744 432 788 Z"/></g><g transform="translate(-118,-118) scale(1,1)"><path fill="none" stroke="#000000" d="M 432 788 C 432 772.5360256 487.5166848 760 556 760 C 624.4833152 760 680 772.5360256 680 788 C 680 803.4639744 624.4833152 816 556 816 C 487.5166848 816 432 803.4639744 432 788 Z" stroke-miterlimit="10"/></g><g transform="translate(-118,-118) scale(1,1)"><g><path fill="none" stroke="none"/><text fill="#000000" stroke="none" font-family="Arial" font-size="16px" font-style="normal" font-weight="bold" text-decoration="none" x="478.625" y="796.5">Interompre une Alerte</text></g></g><g transform="translate(-118,-118) scale(1,1)"><path fill="#C0C0C0" stroke="none" d="M 799 243 C 799 218.6994688 858.0984064 199 931 199 C 1003.9015936 199 1063 218.6994688 1063 243 C 1063 267.3005312 1003.9015936 287 931 287 C 858.0984064 287 799 267.3005312 799 243 Z" opacity="0.2"/></g><g transform="translate(-118,-118) scale(1,1)"><path fill="#ffffff" stroke="none" d="M 792 236 C 792 211.6994688 851.0984064 192 924 192 C 996.9015936 192 1056 211.6994688 1056 236 C 1056 260.3005312 996.9015936 280 924 280 C 851.0984064 280 792 260.3005312 792 236 Z"/></g><g transform="translate(-118,-118) scale(1,1)"><path fill="none" stroke="#000000" d="M 792 236 C 792 211.6994688 851.0984064 192 924 192 C 996.9015936 192 1056 211.6994688 1056 236 C 1056 260.3005312 996.9015936 280 924 280 C 851.0984064 280 792 260.3005312 792 236 Z" stroke-miterlimit="10"/></g><g transform="translate(-118,-118) scale(1,1)"><g><path fill="none" stroke="none"/><text fill="#000000" stroke="none" font-family="Arial" font-size="16px" font-style="normal" font-weight="bold" text-decoration="none" x="883.5390625" y="236.5">Notifier Les</text><text fill="#000000" stroke="none" font-family="Arial" font-size="16px" font-style="normal" font-weight="bold" text-decoration="none" x="850.18359375" y="252.5">intervenants directes</text></g></g><g transform="translate(-118,-118) scale(1,1)"><path fill="#C0C0C0" stroke="none" d="M 767 431 C 767 413.3268864 822.5166848 399 891 399 C 959.4833152 399 1015 413.3268864 1015 431 C 1015 448.6731136 959.4833152 463 891 463 C 822.5166848 463 767 448.6731136 767 431 Z" opacity="0.2"/></g><g transform="translate(-118,-118) scale(1,1)"><path fill="#ffffff" stroke="none" d="M 760 424 C 760 406.3268864 815.5166848 392 884 392 C 952.4833152 392 1008 406.3268864 1008 424 C 1008 441.6731136 952.4833152 456 884 456 C 815.5166848 456 760 441.6731136 760 424 Z"/></g><g transform="translate(-118,-118) scale(1,1)"><path fill="none" stroke="#000000" d="M 760 424 C 760 406.3268864 815.5166848 392 884 392 C 952.4833152 392 1008 406.3268864 1008 424 C 1008 441.6731136 952.4833152 456 884 456 C 815.5166848 456 760 441.6731136 760 424 Z" stroke-miterlimit="10"/></g><g transform="translate(-118,-118) scale(1,1)"><g><path fill="none" stroke="none"/><text fill="#000000" stroke="none" font-family="Arial" font-size="16px" font-style="normal" font-weight="bold" text-decoration="none" x="831.0859375" y="424.5">Personaliser la</text><text fill="#000000" stroke="none" font-family="Arial" font-size="16px" font-style="normal" font-weight="bold" text-decoration="none" x="845.75390625" y="440.5">notification</text></g></g><g transform="translate(-118,-118) scale(1,1)"><path fill="#C0C0C0" stroke="none" d="M 831 565.5 C 831 548.6553136 872.8613712 535 924.5 535 C 976.1386288 535 1018 548.6553136 1018 565.5 C 1018 582.3446864 976.1386288 596 924.5 596 C 872.8613712 596 831 582.3446864 831 565.5 Z" opacity="0.2"/></g><g transform="translate(-118,-118) scale(1,1)"><path fill="#ffffff" stroke="none" d="M 824 558.5 C 824 541.6553136 865.8613712 528 917.5 528 C 969.1386288 528 1011 541.6553136 1011 558.5 C 1011 575.3446864 969.1386288 589 917.5 589 C 865.8613712 589 824 575.3446864 824 558.5 Z"/></g><g transform="translate(-118,-118) scale(1,1)"><path fill="none" stroke="#000000" d="M 824 558.5 C 824 541.6553136 865.8613712 528 917.5 528 C 969.1386288 528 1011 541.6553136 1011 558.5 C 1011 575.3446864 969.1386288 589 917.5 589 C 865.8613712 589 824 575.3446864 824 558.5 Z" stroke-miterlimit="10"/></g><g transform="translate(-118,-118) scale(1,1)"><g><path fill="none" stroke="none"/><text fill="#000000" stroke="none" font-family="Arial" font-size="16px" font-style="normal" font-weight="bold" text-decoration="none" x="870.95703125" y="559">Afficher Infos</text><text fill="#000000" stroke="none" font-family="Arial" font-size="16px" font-style="normal" font-weight="bold" text-decoration="none" x="897.046875" y="575">Client</text></g></g><g transform="translate(-118,-118) scale(1,1)"><path fill="#C0C0C0" stroke="none" d="M 823 669.5 C 823 652.6553136 868.4430928 639 924.5 639 C 980.5569072 639 1026 652.6553136 1026 669.5 C 1026 686.3446864 980.5569072 700 924.5 700 C 868.4430928 700 823 686.3446864 823 669.5 Z" opacity="0.2"/></g><g transform="translate(-118,-118) scale(1,1)"><path fill="#ffffff" stroke="none" d="M 816 662.5 C 816 645.6553136 861.4430928 632 917.5 632 C 973.5569072 632 1019 645.6553136 1019 662.5 C 1019 679.3446864 973.5569072 693 917.5 693 C 861.4430928 693 816 679.3446864 816 662.5 Z"/></g><g transform="translate(-118,-118) scale(1,1)"><path fill="none" stroke="#000000" d="M 816 662.5 C 816 645.6553136 861.4430928 632 917.5 632 C 973.5569072 632 1019 645.6553136 1019 662.5 C 1019 679.3446864 973.5569072 693 917.5 693 C 861.4430928 693 816 679.3446864 816 662.5 Z" stroke-miterlimit="10"/></g><g transform="translate(-118,-118) scale(1,1)"><g><path fill="none" stroke="none"/><text fill="#000000" stroke="none" font-family="Arial" font-size="16px" font-style="normal" font-weight="bold" text-decoration="none" x="870.95703125" y="663">Afficher Infos</text><text fill="#000000" stroke="none" font-family="Arial" font-size="16px" font-style="normal" font-weight="bold" text-decoration="none" x="890.37890625" y="679">Facture</text></g></g><g transform="translate(-118,-118) scale(1,1)"><path fill="none" stroke="#000000" d="M 823 574 L 722 591" stroke-miterlimit="10"/></g><g transform="translate(-118,-118) scale(1,1)"><path fill="#FFFFFF" stroke="none" d="M 740.646003183756 579.3241032348105 L 722 591 L 743.4408210723593 595.9286095141603"/></g><g transform="translate(-118,-118) scale(1,1)"><path fill="none" stroke="#000000" d="M 740.646003183756 579.3241032348105 L 722 591 L 743.4408210723593 595.9286095141603 L 740.646003183756 579.3241032348105" stroke-miterlimit="10"/></g><g transform="translate(-118,-118) scale(1,1)"><path fill="none" stroke="#000000" d="M 815 648 L 722 636" stroke-miterlimit="10"/></g><g transform="translate(-118,-118) scale(1,1)"><path fill="#FFFFFF" stroke="none" d="M 743.2356272152103 630.2512491116227 L 722 636 L 741.0808367431486 646.950875270101"/></g><g transform="translate(-118,-118) scale(1,1)"><path fill="none" stroke="#000000" d="M 743.2356272152103 630.2512491116227 L 722 636 L 741.0808367431486 646.950875270101 L 743.2356272152103 630.2512491116227" stroke-miterlimit="10"/></g><g transform="translate(-118,-118) scale(1,1)"><path fill="none" stroke="#000000" d="M 914 281 L 891 391" stroke-miterlimit="10" stroke-dasharray="3"/></g><g transform="translate(-118,-118) scale(1,1)"><path fill="none" stroke="#000000" d="M 888.959531662339 380.1909071165521 L 891 391 L 897.2003538780046 381.91398812528223" stroke-miterlimit="10"/></g><g transform="translate(-118,-118) scale(1,1)"><g><path fill="none" stroke="none"/><text fill="#000000" stroke="none" font-family="Arial" font-size="13px" font-style="normal" font-weight="normal" text-decoration="none" x="903.5" y="347.5">«include»</text></g></g><g transform="translate(-118,-118) scale(1,1)"><path fill="none" stroke="#000000" d="M 618 463 L 863 281" stroke-miterlimit="10" stroke-dasharray="3"/></g><g transform="translate(-118,-118) scale(1,1)"><path fill="none" stroke="#000000" d="M 857.3522117512499 290.4394114168883 L 863 281 L 852.3317388073117 283.68108245389453" stroke-miterlimit="10"/></g><g transform="translate(-118,-118) scale(1,1)"><g><path fill="none" stroke="none"/><text fill="#000000" stroke="none" font-family="Arial" font-size="13px" font-style="normal" font-weight="normal" text-decoration="none" x="694.5" y="353.5">«include»</text></g></g><g transform="translate(-118,-118) scale(1,1)"><path fill="none" stroke="#000000" d="M 614 367 L 817 281" stroke-miterlimit="10" stroke-dasharray="3"/></g><g transform="translate(-118,-118) scale(1,1)"><path fill="none" stroke="#000000" d="M 809.2844839165529 288.84033236324 L 817 281 L 806.0003540762373 281.088258437844" stroke-miterlimit="10"/></g><g transform="translate(-118,-118) scale(1,1)"><g><path fill="none" stroke="none"/><text fill="#000000" stroke="none" font-family="Arial" font-size="13px" font-style="normal" font-weight="normal" text-decoration="none" x="675.5" y="302.5">«include»</text></g></g><g transform="translate(-118,-118) scale(1,1)"><path fill="none" stroke="#000000" d="M 684 251 L 791 244" stroke-miterlimit="10" stroke-dasharray="3"/></g><g transform="translate(-118,-118) scale(1,1)"><path fill="none" stroke="#000000" d="M 781.133804529835 248.8639682302102 L 791 244 L 780.5842013594768 240.46289119759183" stroke-miterlimit="10"/></g><g transform="translate(-118,-118) scale(1,1)"><g><path fill="none" stroke="none"/><text fill="#000000" stroke="none" font-family="Arial" font-size="13px" font-style="normal" font-weight="normal" text-decoration="none" x="707.5" y="223.5">«include»</text></g></g><g transform="translate(-118,-118) scale(1,1)"><path fill="none" stroke="#000000" d="M 681 773 L 1040 728 L 1104 432 L 965 281" stroke-miterlimit="10" stroke-dasharray="3"/></g><g transform="translate(-118,-118) scale(1,1)"><path fill="none" stroke="#000000" d="M 974.9799475010537 285.62608342728606 L 965 281 L 968.7857535921122 291.32802351564953" stroke-miterlimit="10"/></g><g transform="translate(-118,-118) scale(1,1)"><g><path fill="none" stroke="none"/><text fill="#000000" stroke="none" font-family="Arial" font-size="13px" font-style="normal" font-weight="normal" text-decoration="none" x="1014.5" y="579.5">«include»</text></g></g><g transform="translate(-118,-118) scale(1,1)"><path fill="#C0C0C0" stroke="none" d="M 727 964 C 727 947.9837408 775.8009568 935 836 935 C 896.1990432 935 945 947.9837408 945 964 C 945 980.0162592 896.1990432 993 836 993 C 775.8009568 993 727 980.0162592 727 964 Z" opacity="0.2"/></g><g transform="translate(-118,-118) scale(1,1)"><path fill="#ffffff" stroke="none" d="M 720 957 C 720 940.9837408 768.8009568 928 829 928 C 889.1990432 928 938 940.9837408 938 957 C 938 973.0162592 889.1990432 986 829 986 C 768.8009568 986 720 973.0162592 720 957 Z"/></g><g transform="translate(-118,-118) scale(1,1)"><path fill="none" stroke="#000000" d="M 720 957 C 720 940.9837408 768.8009568 928 829 928 C 889.1990432 928 938 940.9837408 938 957 C 938 973.0162592 889.1990432 986 829 986 C 768.8009568 986 720 973.0162592 720 957 Z" stroke-miterlimit="10"/></g><g transform="translate(-118,-118) scale(1,1)"><g><path fill="none" stroke="none"/><text fill="#000000" stroke="none" font-family="Arial" font-size="16px" font-style="normal" font-weight="bold" text-decoration="none" x="761.85546875" y="965.5">Cloturer une Alerte</text></g></g><g transform="translate(-118,-118) scale(1,1)"><path fill="#C0C0C0" stroke="none" d="M 551 1069.5 C 551 1052.6553136 602.7111056 1039 666.5 1039 C 730.2888944 1039 782 1052.6553136 782 1069.5 C 782 1086.3446864 730.2888944 1100 666.5 1100 C 602.7111056 1100 551 1086.3446864 551 1069.5 Z" opacity="0.2"/></g><g transform="translate(-118,-118) scale(1,1)"><path fill="#ffffff" stroke="none" d="M 544 1062.5 C 544 1045.6553136 595.7111056 1032 659.5 1032 C 723.2888944 1032 775 1045.6553136 775 1062.5 C 775 1079.3446864 723.2888944 1093 659.5 1093 C 595.7111056 1093 544 1079.3446864 544 1062.5 Z"/></g><g transform="translate(-118,-118) scale(1,1)"><path fill="none" stroke="#000000" d="M 544 1062.5 C 544 1045.6553136 595.7111056 1032 659.5 1032 C 723.2888944 1032 775 1045.6553136 775 1062.5 C 775 1079.3446864 723.2888944 1093 659.5 1093 C 595.7111056 1093 544 1079.3446864 544 1062.5 Z" stroke-miterlimit="10"/></g><g transform="translate(-118,-118) scale(1,1)"><g><path fill="none" stroke="none"/><text fill="#000000" stroke="none" font-family="Arial" font-size="16px" font-style="normal" font-weight="bold" text-decoration="none" x="618.140625" y="1063">Rejeter une</text><text fill="#000000" stroke="none" font-family="Arial" font-size="16px" font-style="normal" font-weight="bold" text-decoration="none" x="614.578125" y="1079">Prolongation</text></g></g><g transform="translate(-118,-118) scale(1,1)"><path fill="#C0C0C0" stroke="none" d="M 847 1077.5 C 847 1060.6553136 889.9806592 1047 943 1047 C 996.0193408 1047 1039 1060.6553136 1039 1077.5 C 1039 1094.3446864 996.0193408 1108 943 1108 C 889.9806592 1108 847 1094.3446864 847 1077.5 Z" opacity="0.2"/></g><g transform="translate(-118,-118) scale(1,1)"><path fill="#ffffff" stroke="none" d="M 840 1070.5 C 840 1053.6553136 882.9806592 1040 936 1040 C 989.0193408 1040 1032 1053.6553136 1032 1070.5 C 1032 1087.3446864 989.0193408 1101 936 1101 C 882.9806592 1101 840 1087.3446864 840 1070.5 Z"/></g><g transform="translate(-118,-118) scale(1,1)"><path fill="none" stroke="#000000" d="M 840 1070.5 C 840 1053.6553136 882.9806592 1040 936 1040 C 989.0193408 1040 1032 1053.6553136 1032 1070.5 C 1032 1087.3446864 989.0193408 1101 936 1101 C 882.9806592 1101 840 1087.3446864 840 1070.5 Z" stroke-miterlimit="10"/></g><g transform="translate(-118,-118) scale(1,1)"><g><path fill="none" stroke="none"/><text fill="#000000" stroke="none" font-family="Arial" font-size="16px" font-style="normal" font-weight="bold" text-decoration="none" x="884.859375" y="1071">Payement des</text><text fill="#000000" stroke="none" font-family="Arial" font-size="16px" font-style="normal" font-weight="bold" text-decoration="none" x="923.1015625" y="1087">dus</text></g></g><g transform="translate(-118,-118) scale(1,1)"><path fill="none" stroke="#000000" d="M 709 1031 L 780 987" stroke-miterlimit="10"/></g><g transform="translate(-118,-118) scale(1,1)"><path fill="#FFFFFF" stroke="none" d="M 767.158118965753 1004.8629810362729 L 780 987 L 758.2883838145377 990.5504538604483"/></g><g transform="translate(-118,-118) scale(1,1)"><path fill="none" stroke="#000000" d="M 767.158118965753 1004.8629810362729 L 780 987 L 758.2883838145377 990.5504538604483 L 767.158118965753 1004.8629810362729" stroke-miterlimit="10"/></g><g transform="translate(-118,-118) scale(1,1)"><path fill="none" stroke="#000000" d="M 907 1039 L 857 987" stroke-miterlimit="10"/></g><g transform="translate(-118,-118) scale(1,1)"><path fill="#FFFFFF" stroke="none" d="M 877.1563962201599 995.8158772346218 L 857 987 L 865.0189578768487 1007.4864910262671"/></g><g transform="translate(-118,-118) scale(1,1)"><path fill="none" stroke="#000000" d="M 877.1563962201599 995.8158772346218 L 857 987 L 865.0189578768487 1007.4864910262671 L 877.1563962201599 995.8158772346218" stroke-miterlimit="10"/></g><g transform="translate(-118,-118) scale(1,1)"><path fill="#C0C0C0" stroke="none" d="M 375 909.5 C 375 892.6553136 433.6506912 879 506 879 C 578.3493088 879 637 892.6553136 637 909.5 C 637 926.3446864 578.3493088 940 506 940 C 433.6506912 940 375 926.3446864 375 909.5 Z" opacity="0.2"/></g><g transform="translate(-118,-118) scale(1,1)"><path fill="#ffffff" stroke="none" d="M 368 902.5 C 368 885.6553136 426.6506912 872 499 872 C 571.3493088 872 630 885.6553136 630 902.5 C 630 919.3446864 571.3493088 933 499 933 C 426.6506912 933 368 919.3446864 368 902.5 Z"/></g><g transform="translate(-118,-118) scale(1,1)"><path fill="none" stroke="#000000" d="M 368 902.5 C 368 885.6553136 426.6506912 872 499 872 C 571.3493088 872 630 885.6553136 630 902.5 C 630 919.3446864 571.3493088 933 499 933 C 426.6506912 933 368 919.3446864 368 902.5 Z" stroke-miterlimit="10"/></g><g transform="translate(-118,-118) scale(1,1)"><g><path fill="none" stroke="none"/><text fill="#000000" stroke="none" font-family="Arial" font-size="16px" font-style="normal" font-weight="bold" text-decoration="none" x="446.51953125" y="903">Approuver une</text><text fill="#000000" stroke="none" font-family="Arial" font-size="16px" font-style="normal" font-weight="bold" text-decoration="none" x="454.078125" y="919">Prolongation</text></g></g><g transform="translate(-118,-118) scale(1,1)"><path fill="none" stroke="#000000" d="M 906 927 L 1088 856 L 1168 648 L 1184 336 L 1041 281" stroke-miterlimit="10" stroke-dasharray="3"/></g><g transform="translate(-118,-118) scale(1,1)"><path fill="none" stroke="#000000" d="M 1051.9964167340227 280.71925276189404 L 1041 281 L 1048.9741591172449 288.5771225655166" stroke-miterlimit="10"/></g><g transform="translate(-118,-118) scale(1,1)"><g><path fill="none" stroke="none"/><text fill="#000000" stroke="none" font-family="Arial" font-size="13px" font-style="normal" font-weight="normal" text-decoration="none" x="1164.5" y="602.5">«include»</text></g></g><g transform="translate(-118,-118) scale(1,1)"><path fill="none" stroke="#000000" d="M 623 871 L 1064 761 L 1152 416 L 1096 344 L 996 281" stroke-miterlimit="10" stroke-dasharray="3"/></g><g transform="translate(-118,-118) scale(1,1)"><path fill="none" stroke="#000000" d="M 1006.8423844767149 282.8554511201033 L 996 281 L 1002.3547215185316 289.97872565690204" stroke-miterlimit="10"/></g><g transform="translate(-118,-118) scale(1,1)"><g><path fill="none" stroke="none"/><text fill="#000000" stroke="none" font-family="Arial" font-size="13px" font-style="normal" font-weight="normal" text-decoration="none" x="1118.5" y="404.5">«include»</text></g></g><g transform="translate(-118,-118) scale(1,1)"><path fill="#ffffff" stroke="none" d="M 158.4624912997159 515.88 C 158.4624912997159 505.452862976 166.6659362079341 497 176.785400390625 497 C 186.9048645733159 497 195.1083094815341 505.452862976 195.1083094815341 515.88 C 195.1083094815341 526.307137024 186.9048645733159 534.76 176.785400390625 534.76 C 166.6659362079341 534.76 158.4624912997159 526.307137024 158.4624912997159 515.88 Z"/></g><g transform="translate(-118,-118) scale(1,1)"><path fill="none" stroke="#000000" d="M 158.4624912997159 515.88 C 158.4624912997159 505.452862976 166.6659362079341 497 176.785400390625 497 C 186.9048645733159 497 195.1083094815341 505.452862976 195.1083094815341 515.88 C 195.1083094815341 526.307137024 186.9048645733159 534.76 176.785400390625 534.76 C 166.6659362079341 534.76 158.4624912997159 526.307137024 158.4624912997159 515.88 Z" stroke-miterlimit="10"/></g><g transform="translate(-118,-118) scale(1,1)"><path fill="none" stroke="#000000" d="M 176.785400390625 534.76 L 176.785400390625 571.24" stroke-miterlimit="10"/></g><g transform="translate(-118,-118) scale(1,1)"><path fill="none" stroke="#000000" d="M 157.38467311789773 548.44 L 196.18612766335227 548.44" stroke-miterlimit="10"/></g><g transform="translate(-118,-118) scale(1,1)"><path fill="none" stroke="#000000" d="M 176.785400390625 571.24 L 149.83994584517046 609" stroke-miterlimit="10"/></g><g transform="translate(-118,-118) scale(1,1)"><path fill="none" stroke="#000000" d="M 176.785400390625 571.24 L 203.73085493607954 609" stroke-miterlimit="10"/></g><g transform="translate(-118,-118) scale(1,1)"><path fill="none" stroke="#000000" d="M 128 638 L 225.57080078125 638" stroke-miterlimit="10"/></g><g transform="translate(-118,-118) scale(1,1)"><g><path fill="none" stroke="none"/><text fill="#000000" stroke="none" font-family="Arial" font-size="16px" font-style="normal" font-weight="bold" text-decoration="none" x="148.336181640625" y="632.5">SOUAD</text></g></g><g transform="translate(-118,-118) scale(1,1)"><path fill="none" stroke="#000000" d="M 227 532 L 544 283" stroke-miterlimit="10"/></g><g transform="translate(-118,-118) scale(1,1)"><path fill="none" stroke="#000000" d="M 227 548 L 497 419" stroke-miterlimit="10"/></g><g transform="translate(-118,-118) scale(1,1)"><path fill="none" stroke="#000000" d="M 227 562 L 479 510" stroke-miterlimit="10"/></g><g transform="translate(-118,-118) scale(1,1)"><path fill="none" stroke="#000000" d="M 227 578 L 423 599" stroke-miterlimit="10"/></g><g transform="translate(-118,-118) scale(1,1)"><path fill="none" stroke="#000000" d="M 227 601 L 505 759" stroke-miterlimit="10"/></g><g transform="translate(-118,-118) scale(1,1)"><path fill="none" stroke="#000000" d="M 227 624 L 469 871" stroke-miterlimit="10"/></g><g transform="translate(-118,-118) scale(1,1)"><path fill="#ffffff" stroke="none" d="M 1330.4624912997158 499.88 C 1330.4624912997158 489.452862976 1338.665936207934 481 1348.785400390625 481 C 1358.904864573316 481 1367.1083094815342 489.452862976 1367.1083094815342 499.88 C 1367.1083094815342 510.307137024 1358.904864573316 518.76 1348.785400390625 518.76 C 1338.665936207934 518.76 1330.4624912997158 510.307137024 1330.4624912997158 499.88 Z"/></g><g transform="translate(-118,-118) scale(1,1)"><path fill="none" stroke="#000000" d="M 1330.4624912997158 499.88 C 1330.4624912997158 489.452862976 1338.665936207934 481 1348.785400390625 481 C 1358.904864573316 481 1367.1083094815342 489.452862976 1367.1083094815342 499.88 C 1367.1083094815342 510.307137024 1358.904864573316 518.76 1348.785400390625 518.76 C 1338.665936207934 518.76 1330.4624912997158 510.307137024 1330.4624912997158 499.88 Z" stroke-miterlimit="10"/></g><g transform="translate(-118,-118) scale(1,1)"><path fill="none" stroke="#000000" d="M 1348.785400390625 518.76 L 1348.785400390625 555.24" stroke-miterlimit="10"/></g><g transform="translate(-118,-118) scale(1,1)"><path fill="none" stroke="#000000" d="M 1329.3846731178976 532.44 L 1368.1861276633524 532.44" stroke-miterlimit="10"/></g><g transform="translate(-118,-118) scale(1,1)"><path fill="none" stroke="#000000" d="M 1348.785400390625 555.24 L 1321.8399458451704 593" stroke-miterlimit="10"/></g><g transform="translate(-118,-118) scale(1,1)"><path fill="none" stroke="#000000" d="M 1348.785400390625 555.24 L 1375.7308549360796 593" stroke-miterlimit="10"/></g><g transform="translate(-118,-118) scale(1,1)"><path fill="none" stroke="#000000" d="M 1304 622 L 1393.57080078125 622" stroke-miterlimit="10"/></g><g transform="translate(-118,-118) scale(1,1)"><g><path fill="none" stroke="none"/><text fill="#000000" stroke="none" font-family="Arial" font-size="16px" font-style="normal" font-weight="bold" text-decoration="none" x="1331.890869140625" y="616.5">SOA</text></g></g><g transform="translate(-118,-118) scale(1,1)"><path fill="#ffffff" stroke="none" d="M 1280 640 L 1410.490234375 640 L 1420.490234375 650 L 1420.490234375 688 L 1280 688 L 1280 640"/></g><g transform="translate(-118,-118) scale(1,1)"><path fill="none" stroke="#000000" d="M 1280 640 L 1410.490234375 640 L 1420.490234375 650 L 1420.490234375 688 L 1280 688 L 1280 640 L 1280 640" stroke-miterlimit="10"/></g><g transform="translate(-118,-118) scale(1,1)"><path fill="none" stroke="#000000" d="M 1410.490234375 640 L 1410.490234375 650 L 1420.490234375 650 L 1410.490234375 640" stroke-miterlimit="10"/></g><g transform="translate(-118,-118) scale(1,1)"><g><path fill="none" stroke="none"/><text fill="#000000" stroke="none" font-family="Arial" font-size="20px" font-style="normal" font-weight="normal" text-decoration="none" x="1285" y="665">&lt;&lt;System&gt;&gt;</text></g></g><g transform="translate(-118,-118) scale(1,1)"><path fill="none" stroke="#000000" d="M 1349 633 L 1350 639" stroke-miterlimit="10" stroke-dasharray="3"/></g><g transform="translate(-118,-118) scale(1,1)"><rect fill="#000000" stroke="none" x="1312" y="496" width="72" height="8"/></g><g transform="translate(-118,-118) scale(1,1)"><path fill="none" stroke="#000000" d="M 1312 496 L 1384 496 L 1384 504 L 1312 504 L 1312 496 Z Z" stroke-miterlimit="10"/></g><g transform="translate(-118,-118) scale(1,1)"><path fill="none" stroke="#000000" d="M 1327 479 L 1288 336 L 1057 273" stroke-miterlimit="10"/></g><g transform="translate(-118,-118) scale(1,1)"><path fill="none" stroke="#000000" d="M 961 1039 L 1104 864 L 1303 613" stroke-miterlimit="10"/></g></g></svg>