<svg version="1.1" xmlns="http://www.w3.org/2000/svg" xmlns:xlink="http://www.w3.org/1999/xlink" width="1204" height="948"><defs/><g><g transform="translate(-174,10) scale(1,1)"><path fill="none" stroke="#000000" d="M 184 0 L 1368 0 L 1368 928 L 184 928 L 184 0" stroke-miterlimit="10"/></g><g transform="translate(-174,10) scale(1,1)"><path fill="#ffffff" stroke="none" d="M 184 0 L 184 22 L 448.16796875 22 L 459.16796875 11 L 459.16796875 0 L 184 0"/></g><g transform="translate(-174,10) scale(1,1)"><path fill="none" stroke="#000000" d="M 184 0 L 184 22 L 448.16796875 22 L 459.16796875 11 L 459.16796875 0 L 184 0 L 184 0" stroke-miterlimit="10"/></g><g transform="translate(-174,10) scale(1,1)"><g><path fill="none" stroke="none"/><text fill="#000000" stroke="none" font-family="Arial" font-size="13px" font-style="normal" font-weight="normal" text-decoration="none" x="254.97900390625" y="17.5">Clôture d'Alerte  pour Payement </text></g></g><g transform="translate(-174,10) scale(1,1)"><g><path fill="none" stroke="none"/><text fill="#000000" stroke="none" font-family="Arial" font-size="13px" font-style="normal" font-weight="bold" text-decoration="none" x="189" y="17.5">interaction</text></g></g><g transform="translate(-174,10) scale(1,1)"><rect fill="#C0C0C0" stroke="none" x="423" y="47" width="146.4140625" height="39" opacity="0.2"/></g><g transform="translate(-174,10) scale(1,1)"><rect fill="#ffffff" stroke="none" x="416" y="40" width="146.4140625" height="39"/></g><g transform="translate(-174,10) scale(1,1)"><path fill="none" stroke="#000000" d="M 416 40 L 562.4140625 40 L 562.4140625 79 L 416 79 L 416 40 Z Z" stroke-miterlimit="10"/></g><g transform="translate(-174,10) scale(1,1)"><g><path fill="none" stroke="none"/><text fill="#000000" stroke="none" font-family="Arial" font-size="16px" font-style="normal" font-weight="bold" text-decoration="none" x="429.4921875" y="62.5">:PLANIFICATOR</text></g></g><g transform="translate(-174,10) scale(1,1)"><path fill="none" stroke="#000000" d="M 490.5 80 L 490.5 928" stroke-miterlimit="10" stroke-dasharray="3"/></g><g transform="translate(-174,10) scale(1,1)"><rect fill="#C0C0C0" stroke="none" x="647" y="47" width="71.736328125" height="39" opacity="0.2"/></g><g transform="translate(-174,10) scale(1,1)"><rect fill="#ffffff" stroke="none" x="640" y="40" width="71.736328125" height="39"/></g><g transform="translate(-174,10) scale(1,1)"><path fill="none" stroke="#000000" d="M 640 40 L 711.736328125 40 L 711.736328125 79 L 640 79 L 640 40 Z Z" stroke-miterlimit="10"/></g><g transform="translate(-174,10) scale(1,1)"><g><path fill="none" stroke="none"/><text fill="#000000" stroke="none" font-family="Arial" font-size="16px" font-style="normal" font-weight="bold" text-decoration="none" x="657.6376953125" y="62.5">:ESB</text></g></g><g transform="translate(-174,10) scale(1,1)"><path fill="none" stroke="#000000" d="M 676.5 80 L 676.5 928" stroke-miterlimit="10" stroke-dasharray="3"/></g><g transform="translate(-174,10) scale(1,1)"><rect fill="#C0C0C0" stroke="none" x="791" y="47" width="83.0234375" height="39" opacity="0.2"/></g><g transform="translate(-174,10) scale(1,1)"><rect fill="#ffffff" stroke="none" x="784" y="40" width="83.0234375" height="39"/></g><g transform="translate(-174,10) scale(1,1)"><path fill="none" stroke="#000000" d="M 784 40 L 867.0234375 40 L 867.0234375 79 L 784 79 L 784 40 Z Z" stroke-miterlimit="10"/></g><g transform="translate(-174,10) scale(1,1)"><g><path fill="none" stroke="none"/><text fill="#000000" stroke="none" font-family="Arial" font-size="16px" font-style="normal" font-weight="bold" text-decoration="none" x="795.71875" y="62.5">a :Alerte</text></g></g><g transform="translate(-174,10) scale(1,1)"><path fill="none" stroke="#000000" d="M 826.5 80 L 826.5 928" stroke-miterlimit="10" stroke-dasharray="3"/></g><g transform="translate(-174,10) scale(1,1)"><rect fill="#C0C0C0" stroke="none" x="975" y="47" width="82.1171875" height="39" opacity="0.2"/></g><g transform="translate(-174,10) scale(1,1)"><rect fill="#ffffff" stroke="none" x="968" y="40" width="82.1171875" height="39"/></g><g transform="translate(-174,10) scale(1,1)"><path fill="none" stroke="#000000" d="M 968 40 L 1050.1171875 40 L 1050.1171875 79 L 968 79 L 968 40 Z Z" stroke-miterlimit="10"/></g><g transform="translate(-174,10) scale(1,1)"><g><path fill="none" stroke="none"/><text fill="#000000" stroke="none" font-family="Arial" font-size="16px" font-style="normal" font-weight="bold" text-decoration="none" x="980.16015625" y="62.5">c :Client</text></g></g><g transform="translate(-174,10) scale(1,1)"><path fill="none" stroke="#000000" d="M 1010.5 80 L 1010.5 928" stroke-miterlimit="10" stroke-dasharray="3"/></g><g transform="translate(-174,10) scale(1,1)"><rect fill="#C0C0C0" stroke="none" x="1095" y="47" width="133.671875" height="39" opacity="0.2"/></g><g transform="translate(-174,10) scale(1,1)"><rect fill="#ffffff" stroke="none" x="1088" y="40" width="133.671875" height="39"/></g><g transform="translate(-174,10) scale(1,1)"><path fill="none" stroke="#000000" d="M 1088 40 L 1221.671875 40 L 1221.671875 79 L 1088 79 L 1088 40 Z Z" stroke-miterlimit="10"/></g><g transform="translate(-174,10) scale(1,1)"><g><path fill="none" stroke="none"/><text fill="#000000" stroke="none" font-family="Arial" font-size="16px" font-style="normal" font-weight="bold" text-decoration="none" x="1102.8046875" y="62.5">p :Planification</text></g></g><g transform="translate(-174,10) scale(1,1)"><path fill="none" stroke="#000000" d="M 1155.5 80 L 1155.5 928" stroke-miterlimit="10" stroke-dasharray="3"/></g><g transform="translate(-174,10) scale(1,1)"><path fill="none" stroke="#000000" d="M 490 112 L 669 112" stroke-miterlimit="10"/></g><g transform="translate(-174,10) scale(1,1)"><path fill="#000000" stroke="none" d="M 658.8373251423759 116.20951775601598 L 669 112 L 658.8373251423758 107.79048224398402"/></g><g transform="translate(-174,10) scale(1,1)"><path fill="none" stroke="#000000" d="M 658.8373251423759 116.20951775601598 L 669 112 L 658.8373251423758 107.79048224398402 L 658.8373251423759 116.20951775601598" stroke-miterlimit="10"/></g><g transform="translate(-174,10) scale(1,1)"><g><path fill="none" stroke="none"/><text fill="#000000" stroke="none" font-family="Arial" font-size="13px" font-style="normal" font-weight="normal" text-decoration="none" x="513.5" y="108.5">1 : updateClientData( )</text></g></g><g transform="translate(-174,10) scale(1,1)"><rect fill="#ffffff" stroke="none" x="669" y="112" width="13" height="48"/></g><g transform="translate(-174,10) scale(1,1)"><path fill="none" stroke="#000000" d="M 669 112 L 682 112 L 682 160 L 669 160 L 669 112 Z Z" stroke-miterlimit="10"/></g><g transform="translate(-174,10) scale(1,1)"><path fill="none" stroke="#000000" d="M 669 152 L 490 152" stroke-miterlimit="10" stroke-dasharray="3"/></g><g transform="translate(-174,10) scale(1,1)"><path fill="none" stroke="#000000" d="M 500.16267485762415 147.790482243984 L 490 152 L 500.16267485762415 156.209517756016" stroke-miterlimit="10"/></g><g transform="translate(-174,10) scale(1,1)"><g><path fill="none" stroke="none"/><text fill="#000000" stroke="none" font-family="Arial" font-size="13px" font-style="normal" font-weight="normal" text-decoration="none" x="568.46728515625" y="168.5">2 : </text></g></g><g transform="translate(-174,10) scale(1,1)"><path fill="none" stroke="#000000" d="M 490 288 L 520 288 L 520 308 L 496 308" stroke-miterlimit="10"/></g><g transform="translate(-174,10) scale(1,1)"><path fill="#000000" stroke="none" d="M 506.16267485762415 303.790482243984 L 496 308 L 506.16267485762415 312.209517756016"/></g><g transform="translate(-174,10) scale(1,1)"><path fill="none" stroke="#000000" d="M 506.16267485762415 303.790482243984 L 496 308 L 506.16267485762415 312.209517756016 L 506.16267485762415 303.790482243984" stroke-miterlimit="10"/></g><g transform="translate(-174,10) scale(1,1)"><g><path fill="none" stroke="none"/><text fill="#000000" stroke="none" font-family="Arial" font-size="13px" font-style="normal" font-weight="normal" text-decoration="none" x="473.61083984375" y="284.5">3 : closeAlert(Alert a , Motif = PAYEMENT)</text></g></g><g transform="translate(-174,10) scale(1,1)"><rect fill="#ffffff" stroke="none" x="483" y="308" width="13" height="556"/></g><g transform="translate(-174,10) scale(1,1)"><path fill="none" stroke="#000000" d="M 483 308 L 496 308 L 496 864 L 483 864 L 483 308 Z Z" stroke-miterlimit="10"/></g><g transform="translate(-174,10) scale(1,1)"><path fill="none" stroke="#000000" d="M 496 328 L 819 328" stroke-miterlimit="10"/></g><g transform="translate(-174,10) scale(1,1)"><path fill="none" stroke="#000000" d="M 808.8373251423759 332.209517756016 L 819 328 L 808.8373251423758 323.790482243984" stroke-miterlimit="10"/></g><g transform="translate(-174,10) scale(1,1)"><g><path fill="none" stroke="none"/><text fill="#000000" stroke="none" font-family="Arial" font-size="13px" font-style="normal" font-weight="normal" text-decoration="none" x="567.843994140625" y="324.5">4 : cloture(Motif = PAYEMENT)</text></g></g><g transform="translate(-174,10) scale(1,1)"><rect fill="#ffffff" stroke="none" x="819" y="328" width="13" height="219"/></g><g transform="translate(-174,10) scale(1,1)"><path fill="none" stroke="#000000" d="M 819 328 L 832 328 L 832 547 L 819 547 L 819 328 Z Z" stroke-miterlimit="10"/></g><g transform="translate(-174,10) scale(1,1)"><path fill="none" stroke="#000000" d="M 832 336 L 862 336 L 862 356 L 839 356" stroke-miterlimit="10"/></g><g transform="translate(-174,10) scale(1,1)"><path fill="#000000" stroke="none" d="M 849.1626748576241 351.790482243984 L 839 356 L 849.1626748576241 360.209517756016"/></g><g transform="translate(-174,10) scale(1,1)"><path fill="none" stroke="#000000" d="M 849.1626748576241 351.790482243984 L 839 356 L 849.1626748576241 360.209517756016 L 849.1626748576241 351.790482243984" stroke-miterlimit="10"/></g><g transform="translate(-174,10) scale(1,1)"><g><path fill="none" stroke="none"/><text fill="#000000" stroke="none" font-family="Arial" font-size="13px" font-style="normal" font-weight="normal" text-decoration="none" x="831.607177734375" y="332.5">5 : setClosingMotif( PAYEMENT)</text></g></g><g transform="translate(-174,10) scale(1,1)"><rect fill="#ffffff" stroke="none" x="826" y="356" width="13" height="28"/></g><g transform="translate(-174,10) scale(1,1)"><path fill="none" stroke="#000000" d="M 826 356 L 839 356 L 839 384 L 826 384 L 826 356 Z Z" stroke-miterlimit="10"/></g><g transform="translate(-174,10) scale(1,1)"><path fill="none" stroke="#000000" d="M 832 392 L 862 392 L 862 412 L 839 412" stroke-miterlimit="10"/></g><g transform="translate(-174,10) scale(1,1)"><path fill="#000000" stroke="none" d="M 849.1626748576241 407.790482243984 L 839 412 L 849.1626748576241 416.209517756016"/></g><g transform="translate(-174,10) scale(1,1)"><path fill="none" stroke="#000000" d="M 849.1626748576241 407.790482243984 L 839 412 L 849.1626748576241 416.209517756016 L 849.1626748576241 407.790482243984" stroke-miterlimit="10"/></g><g transform="translate(-174,10) scale(1,1)"><g><path fill="none" stroke="none"/><text fill="#000000" stroke="none" font-family="Arial" font-size="13px" font-style="normal" font-weight="normal" text-decoration="none" x="840.305908203125" y="388.5">6 : setClosingDate( currentDate( ))</text></g></g><g transform="translate(-174,10) scale(1,1)"><rect fill="#ffffff" stroke="none" x="826" y="412" width="13" height="28"/></g><g transform="translate(-174,10) scale(1,1)"><path fill="none" stroke="#000000" d="M 826 412 L 839 412 L 839 440 L 826 440 L 826 412 Z Z" stroke-miterlimit="10"/></g><g transform="translate(-174,10) scale(1,1)"><path fill="none" stroke="#000000" d="M 832 448 L 862 448 L 862 468 L 839 468" stroke-miterlimit="10"/></g><g transform="translate(-174,10) scale(1,1)"><path fill="#000000" stroke="none" d="M 849.1626748576241 463.790482243984 L 839 468 L 849.1626748576241 472.209517756016"/></g><g transform="translate(-174,10) scale(1,1)"><path fill="none" stroke="#000000" d="M 849.1626748576241 463.790482243984 L 839 468 L 849.1626748576241 472.209517756016 L 849.1626748576241 463.790482243984" stroke-miterlimit="10"/></g><g transform="translate(-174,10) scale(1,1)"><g><path fill="none" stroke="none"/><text fill="#000000" stroke="none" font-family="Arial" font-size="13px" font-style="normal" font-weight="normal" text-decoration="none" x="838.5" y="444.5">7 : setClosingLevel( a.getLevel( ))</text></g></g><g transform="translate(-174,10) scale(1,1)"><rect fill="#ffffff" stroke="none" x="826" y="468" width="13" height="28"/></g><g transform="translate(-174,10) scale(1,1)"><path fill="none" stroke="#000000" d="M 826 468 L 839 468 L 839 496 L 826 496 L 826 468 Z Z" stroke-miterlimit="10"/></g><g transform="translate(-174,10) scale(1,1)"><path fill="none" stroke="#000000" d="M 832 496 L 862 496 L 862 516 L 839 516" stroke-miterlimit="10"/></g><g transform="translate(-174,10) scale(1,1)"><path fill="#000000" stroke="none" d="M 849.1626748576241 511.790482243984 L 839 516 L 849.1626748576241 520.209517756016"/></g><g transform="translate(-174,10) scale(1,1)"><path fill="none" stroke="#000000" d="M 849.1626748576241 511.790482243984 L 839 516 L 849.1626748576241 520.209517756016 L 849.1626748576241 511.790482243984" stroke-miterlimit="10"/></g><g transform="translate(-174,10) scale(1,1)"><g><path fill="none" stroke="none"/><text fill="#000000" stroke="none" font-family="Arial" font-size="13px" font-style="normal" font-weight="normal" text-decoration="none" x="846.5" y="492.5">8 : setClosingDoer("System")</text></g></g><g transform="translate(-174,10) scale(1,1)"><rect fill="#ffffff" stroke="none" x="826" y="516" width="13" height="28"/></g><g transform="translate(-174,10) scale(1,1)"><path fill="none" stroke="#000000" d="M 826 516 L 839 516 L 839 544 L 826 544 L 826 516 Z Z" stroke-miterlimit="10"/></g><g transform="translate(-174,10) scale(1,1)"><path fill="none" stroke="#000000" d="M 496 576 L 1003 576" stroke-miterlimit="10"/></g><g transform="translate(-174,10) scale(1,1)"><path fill="none" stroke="#000000" d="M 992.8373251423759 580.209517756016 L 1003 576 L 992.8373251423758 571.790482243984" stroke-miterlimit="10"/></g><g transform="translate(-174,10) scale(1,1)"><g><path fill="none" stroke="none"/><text fill="#000000" stroke="none" font-family="Arial" font-size="13px" font-style="normal" font-weight="normal" text-decoration="none" x="683.5" y="571.5">9 : setStatus("paid")</text></g></g><g transform="translate(-174,10) scale(1,1)"><rect fill="#ffffff" stroke="none" x="1003" y="576" width="13" height="28"/></g><g transform="translate(-174,10) scale(1,1)"><path fill="none" stroke="#000000" d="M 1003 576 L 1016 576 L 1016 604 L 1003 604 L 1003 576 Z Z" stroke-miterlimit="10"/></g><g transform="translate(-174,10) scale(1,1)"><rect fill="#ffffff" stroke="none" x="448" y="760" width="792" height="88"/></g><g transform="translate(-174,10) scale(1,1)"><path fill="none" stroke="#000000" d="M 448 760 L 1240 760 L 1240 848 L 448 848 L 448 760 Z Z" stroke-miterlimit="10"/></g><g transform="translate(-174,10) scale(1,1)"><path fill="none" stroke="#000000" d="M 448 760 L 448 795 L 488.341796875 795 L 505.841796875 777.5 L 505.841796875 760 L 448 760 L 448 760" stroke-miterlimit="10"/></g><g transform="translate(-174,10) scale(1,1)"><g><path fill="none" stroke="none"/><text fill="#000000" stroke="none" font-family="Arial" font-size="26px" font-style="normal" font-weight="normal" text-decoration="none" x="718.9892578125" y="817">Notification Exception</text></g></g><g transform="translate(-174,10) scale(1,1)"><g><path fill="none" stroke="none"/><text fill="#000000" stroke="none" font-family="Arial" font-size="26px" font-style="normal" font-weight="normal" text-decoration="none" x="453" y="790.5">ref</text></g></g><g transform="translate(-174,10) scale(1,1)"><path fill="none" stroke="#000000" d="M 496 656 L 1148 656" stroke-miterlimit="10"/></g><g transform="translate(-174,10) scale(1,1)"><path fill="none" stroke="#000000" d="M 1137.837325142376 660.209517756016 L 1148 656 L 1137.837325142376 651.790482243984" stroke-miterlimit="10"/></g><g transform="translate(-174,10) scale(1,1)"><g><path fill="none" stroke="none"/><text fill="#000000" stroke="none" font-family="Arial" font-size="13px" font-style="normal" font-weight="normal" text-decoration="none" x="869.636962890625" y="652.5">10 : cancel( )</text></g></g><g transform="translate(-174,10) scale(1,1)"><rect fill="#ffffff" stroke="none" x="1148" y="656" width="13" height="59"/></g><g transform="translate(-174,10) scale(1,1)"><path fill="none" stroke="#000000" d="M 1148 656 L 1161 656 L 1161 715 L 1148 715 L 1148 656 Z Z" stroke-miterlimit="10"/></g><g transform="translate(-174,10) scale(1,1)"><path fill="none" stroke="#000000" d="M 1161 664 L 1191 664 L 1191 684 L 1168 684" stroke-miterlimit="10"/></g><g transform="translate(-174,10) scale(1,1)"><path fill="#000000" stroke="none" d="M 1178.162674857624 679.790482243984 L 1168 684 L 1178.162674857624 688.209517756016"/></g><g transform="translate(-174,10) scale(1,1)"><path fill="none" stroke="#000000" d="M 1178.162674857624 679.790482243984 L 1168 684 L 1178.162674857624 688.209517756016 L 1178.162674857624 679.790482243984" stroke-miterlimit="10"/></g><g transform="translate(-174,10) scale(1,1)"><g><path fill="none" stroke="none"/><text fill="#000000" stroke="none" font-family="Arial" font-size="13px" font-style="normal" font-weight="normal" text-decoration="none" x="1159.982421875" y="660.5">11 : setStatus("canceled")</text></g></g><g transform="translate(-174,10) scale(1,1)"><rect fill="#ffffff" stroke="none" x="1155" y="684" width="13" height="28"/></g><g transform="translate(-174,10) scale(1,1)"><path fill="none" stroke="#000000" d="M 1155 684 L 1168 684 L 1168 712 L 1155 712 L 1155 684 Z Z" stroke-miterlimit="10"/></g><g transform="translate(-174,10) scale(1,1)"><path fill="none" stroke="#000000" d="M 224 176 L 1336 176 L 1336 888 L 224 888 L 224 176" stroke-miterlimit="10"/></g><g transform="translate(-174,10) scale(1,1)"><path fill="#ffffff" stroke="none" d="M 224 176 L 224 198 L 367.92431640625 198 L 378.92431640625 187 L 378.92431640625 176 L 224 176"/></g><g transform="translate(-174,10) scale(1,1)"><path fill="none" stroke="#000000" d="M 224 176 L 224 198 L 367.92431640625 198 L 378.92431640625 187 L 378.92431640625 176 L 224 176 L 224 176" stroke-miterlimit="10"/></g><g transform="translate(-174,10) scale(1,1)"><g><path fill="none" stroke="none"/><text fill="#000000" stroke="none" font-family="Arial" font-size="13px" font-style="normal" font-weight="normal" text-decoration="none" x="259.578125" y="193.5">*[chaque Alerte a]</text></g></g><g transform="translate(-174,10) scale(1,1)"><g><path fill="none" stroke="none"/><text fill="#000000" stroke="none" font-family="Arial" font-size="13px" font-style="normal" font-weight="bold" text-decoration="none" x="229" y="193.5">loop</text></g></g><g transform="translate(-174,10) scale(1,1)"><path fill="none" stroke="#000000" d="M 256 232 L 1320 232 L 1320 872 L 256 872 L 256 232" stroke-miterlimit="10"/></g><g transform="translate(-174,10) scale(1,1)"><path fill="#ffffff" stroke="none" d="M 256 232 L 256 254 L 503.587890625 254 L 514.587890625 243 L 514.587890625 232 L 256 232"/></g><g transform="translate(-174,10) scale(1,1)"><path fill="none" stroke="#000000" d="M 256 232 L 256 254 L 503.587890625 254 L 514.587890625 243 L 514.587890625 232 L 256 232 L 256 232" stroke-miterlimit="10"/></g><g transform="translate(-174,10) scale(1,1)"><g><path fill="none" stroke="none"/><text fill="#000000" stroke="none" font-family="Arial" font-size="13px" font-style="normal" font-weight="normal" text-decoration="none" x="285.07177734375" y="249.5">[ a.getClient( ).getDueAmount( ) = 0 ]</text></g></g><g transform="translate(-174,10) scale(1,1)"><g><path fill="none" stroke="none"/><text fill="#000000" stroke="none" font-family="Arial" font-size="13px" font-style="normal" font-weight="bold" text-decoration="none" x="261" y="249.5">opt</text></g></g><g transform="translate(-174,10) scale(1,1)"><path fill="none" stroke="#000000" d="M 288 624 L 1312 624 L 1312 720 L 288 720 L 288 624" stroke-miterlimit="10"/></g><g transform="translate(-174,10) scale(1,1)"><path fill="#ffffff" stroke="none" d="M 288 624 L 288 646 L 452.16064453125 646 L 463.16064453125 635 L 463.16064453125 624 L 288 624"/></g><g transform="translate(-174,10) scale(1,1)"><path fill="none" stroke="#000000" d="M 288 624 L 288 646 L 452.16064453125 646 L 463.16064453125 635 L 463.16064453125 624 L 288 624 L 288 624" stroke-miterlimit="10"/></g><g transform="translate(-174,10) scale(1,1)"><g><path fill="none" stroke="none"/><text fill="#000000" stroke="none" font-family="Arial" font-size="13px" font-style="normal" font-weight="normal" text-decoration="none" x="323.578125" y="641.5">[chaque Planification]</text></g></g><g transform="translate(-174,10) scale(1,1)"><g><path fill="none" stroke="none"/><text fill="#000000" stroke="none" font-family="Arial" font-size="13px" font-style="normal" font-weight="bold" text-decoration="none" x="293" y="641.5">loop</text></g></g></g></svg>