<svg version="1.1" xmlns="http://www.w3.org/2000/svg" xmlns:xlink="http://www.w3.org/1999/xlink" width="1196" height="708"><defs/><g><g transform="translate(-78,10) scale(1,1)"><path fill="none" stroke="#000000" d="M 88 0 L 1264 0 L 1264 688 L 88 688 L 88 0" stroke-miterlimit="10"/></g><g transform="translate(-78,10) scale(1,1)"><path fill="#ffffff" stroke="none" d="M 88 0 L 88 22 L 277.0244140625 22 L 288.0244140625 11 L 288.0244140625 0 L 88 0"/></g><g transform="translate(-78,10) scale(1,1)"><path fill="none" stroke="#000000" d="M 88 0 L 88 22 L 277.0244140625 22 L 288.0244140625 11 L 288.0244140625 0 L 88 0 L 88 0" stroke-miterlimit="10"/></g><g transform="translate(-78,10) scale(1,1)"><g><path fill="none" stroke="none"/><text fill="#000000" stroke="none" font-family="Arial" font-size="13px" font-style="normal" font-weight="normal" text-decoration="none" x="158.97900390625" y="17.5">Interruption d'Alerte</text></g></g><g transform="translate(-78,10) scale(1,1)"><g><path fill="none" stroke="none"/><text fill="#000000" stroke="none" font-family="Arial" font-size="13px" font-style="normal" font-weight="bold" text-decoration="none" x="93" y="17.5">interaction</text></g></g><g transform="translate(-78,10) scale(1,1)"><rect fill="#C0C0C0" stroke="none" x="119" y="47" width="161.2421875" height="39" opacity="0.2"/></g><g transform="translate(-78,10) scale(1,1)"><rect fill="#ffffff" stroke="none" x="112" y="40" width="161.2421875" height="39"/></g><g transform="translate(-78,10) scale(1,1)"><path fill="none" stroke="#000000" d="M 112 40 L 273.2421875 40 L 273.2421875 79 L 112 79 L 112 40 Z Z" stroke-miterlimit="10"/></g><g transform="translate(-78,10) scale(1,1)"><g><path fill="none" stroke="none"/><text fill="#000000" stroke="none" font-family="Arial" font-size="16px" font-style="normal" font-weight="bold" text-decoration="none" x="126.37890625" y="62.5">cc :CC Facturation</text></g></g><g transform="translate(-78,10) scale(1,1)"><path fill="none" stroke="#000000" d="M 193.5 80 L 193.5 688" stroke-miterlimit="10" stroke-dasharray="3"/></g><g transform="translate(-78,10) scale(1,1)"><rect fill="#C0C0C0" stroke="none" x="351" y="47" width="96" height="39" opacity="0.2"/></g><g transform="translate(-78,10) scale(1,1)"><rect fill="#ffffff" stroke="none" x="344" y="40" width="96" height="39"/></g><g transform="translate(-78,10) scale(1,1)"><path fill="none" stroke="#000000" d="M 344 40 L 440 40 L 440 79 L 344 79 L 344 40 Z Z" stroke-miterlimit="10"/></g><g transform="translate(-78,10) scale(1,1)"><g><path fill="none" stroke="none"/><text fill="#000000" stroke="none" font-family="Arial" font-size="16px" font-style="normal" font-weight="bold" text-decoration="none" x="362.20703125" y="62.5">a :Alerte</text></g></g><g transform="translate(-78,10) scale(1,1)"><path fill="none" stroke="#000000" d="M 393.5 80 L 393.5 688" stroke-miterlimit="10" stroke-dasharray="3"/></g><g transform="translate(-78,10) scale(1,1)"><rect fill="#C0C0C0" stroke="none" x="527" y="47" width="82.1171875" height="39" opacity="0.2"/></g><g transform="translate(-78,10) scale(1,1)"><rect fill="#ffffff" stroke="none" x="520" y="40" width="82.1171875" height="39"/></g><g transform="translate(-78,10) scale(1,1)"><path fill="none" stroke="#000000" d="M 520 40 L 602.1171875 40 L 602.1171875 79 L 520 79 L 520 40 Z Z" stroke-miterlimit="10"/></g><g transform="translate(-78,10) scale(1,1)"><g><path fill="none" stroke="none"/><text fill="#000000" stroke="none" font-family="Arial" font-size="16px" font-style="normal" font-weight="bold" text-decoration="none" x="532.16015625" y="62.5">c :Client</text></g></g><g transform="translate(-78,10) scale(1,1)"><path fill="none" stroke="#000000" d="M 562.5 80 L 562.5 688" stroke-miterlimit="10" stroke-dasharray="3"/></g><g transform="translate(-78,10) scale(1,1)"><rect fill="#C0C0C0" stroke="none" x="703" y="47" width="146.4140625" height="39" opacity="0.2"/></g><g transform="translate(-78,10) scale(1,1)"><rect fill="#ffffff" stroke="none" x="696" y="40" width="146.4140625" height="39"/></g><g transform="translate(-78,10) scale(1,1)"><path fill="none" stroke="#000000" d="M 696 40 L 842.4140625 40 L 842.4140625 79 L 696 79 L 696 40 Z Z" stroke-miterlimit="10"/></g><g transform="translate(-78,10) scale(1,1)"><g><path fill="none" stroke="none"/><text fill="#000000" stroke="none" font-family="Arial" font-size="16px" font-style="normal" font-weight="bold" text-decoration="none" x="709.4921875" y="62.5">:PLANIFICATOR</text></g></g><g transform="translate(-78,10) scale(1,1)"><path fill="none" stroke="#000000" d="M 770.5 80 L 770.5 688" stroke-miterlimit="10" stroke-dasharray="3"/></g><g transform="translate(-78,10) scale(1,1)"><rect fill="#C0C0C0" stroke="none" x="927" y="47" width="133.671875" height="39" opacity="0.2"/></g><g transform="translate(-78,10) scale(1,1)"><rect fill="#ffffff" stroke="none" x="920" y="40" width="133.671875" height="39"/></g><g transform="translate(-78,10) scale(1,1)"><path fill="none" stroke="#000000" d="M 920 40 L 1053.671875 40 L 1053.671875 79 L 920 79 L 920 40 Z Z" stroke-miterlimit="10"/></g><g transform="translate(-78,10) scale(1,1)"><g><path fill="none" stroke="none"/><text fill="#000000" stroke="none" font-family="Arial" font-size="16px" font-style="normal" font-weight="bold" text-decoration="none" x="934.8046875" y="62.5">p :Planification</text></g></g><g transform="translate(-78,10) scale(1,1)"><path fill="none" stroke="#000000" d="M 987.5 80 L 987.5 688" stroke-miterlimit="10" stroke-dasharray="3"/></g><g transform="translate(-78,10) scale(1,1)"><path fill="none" stroke="#000000" d="M 193 154 L 386 154" stroke-miterlimit="10"/></g><g transform="translate(-78,10) scale(1,1)"><path fill="none" stroke="#000000" d="M 375.83732514237585 158.209517756016 L 386 154 L 375.83732514237585 149.790482243984" stroke-miterlimit="10"/></g><g transform="translate(-78,10) scale(1,1)"><g><path fill="none" stroke="none"/><text fill="#000000" stroke="none" font-family="Arial" font-size="13px" font-style="normal" font-weight="normal" text-decoration="none" x="251.674072265625" y="150.5">1 : interupt( )</text></g></g><g transform="translate(-78,10) scale(1,1)"><rect fill="#ffffff" stroke="none" x="386" y="154" width="13" height="78"/></g><g transform="translate(-78,10) scale(1,1)"><path fill="none" stroke="#000000" d="M 386 154 L 399 154 L 399 232 L 386 232 L 386 154 Z Z" stroke-miterlimit="10"/></g><g transform="translate(-78,10) scale(1,1)"><path fill="none" stroke="#000000" d="M 399 160 L 429 160 L 429 180 L 406 180" stroke-miterlimit="10"/></g><g transform="translate(-78,10) scale(1,1)"><path fill="#000000" stroke="none" d="M 416.16267485762415 175.790482243984 L 406 180 L 416.16267485762415 184.209517756016"/></g><g transform="translate(-78,10) scale(1,1)"><path fill="none" stroke="#000000" d="M 416.16267485762415 175.790482243984 L 406 180 L 416.16267485762415 184.209517756016 L 416.16267485762415 175.790482243984" stroke-miterlimit="10"/></g><g transform="translate(-78,10) scale(1,1)"><g><path fill="none" stroke="none"/><text fill="#000000" stroke="none" font-family="Arial" font-size="13px" font-style="normal" font-weight="normal" text-decoration="none" x="399.5" y="156.5">2 : setStatus("interupted")</text></g></g><g transform="translate(-78,10) scale(1,1)"><rect fill="#ffffff" stroke="none" x="393" y="180" width="13" height="28"/></g><g transform="translate(-78,10) scale(1,1)"><path fill="none" stroke="#000000" d="M 393 180 L 406 180 L 406 208 L 393 208 L 393 180 Z Z" stroke-miterlimit="10"/></g><g transform="translate(-78,10) scale(1,1)"><path fill="none" stroke="#000000" d="M 399 219 L 555 219" stroke-miterlimit="10"/></g><g transform="translate(-78,10) scale(1,1)"><path fill="none" stroke="#000000" d="M 544.8373251423759 223.209517756016 L 555 219 L 544.8373251423758 214.790482243984" stroke-miterlimit="10"/></g><g transform="translate(-78,10) scale(1,1)"><g><path fill="none" stroke="none"/><text fill="#000000" stroke="none" font-family="Arial" font-size="13px" font-style="normal" font-weight="normal" text-decoration="none" x="432.56005859375" y="215.5">3 : inDunning( )</text></g></g><g transform="translate(-78,10) scale(1,1)"><rect fill="#ffffff" stroke="none" x="555" y="219" width="13" height="77"/></g><g transform="translate(-78,10) scale(1,1)"><path fill="none" stroke="#000000" d="M 555 219 L 568 219 L 568 296 L 555 296 L 555 219 Z Z" stroke-miterlimit="10"/></g><g transform="translate(-78,10) scale(1,1)"><path fill="none" stroke="#000000" d="M 568 232 L 598 232 L 598 252 L 575 252" stroke-miterlimit="10"/></g><g transform="translate(-78,10) scale(1,1)"><path fill="#000000" stroke="none" d="M 585.1626748576241 247.790482243984 L 575 252 L 585.1626748576241 256.209517756016"/></g><g transform="translate(-78,10) scale(1,1)"><path fill="none" stroke="#000000" d="M 585.1626748576241 247.790482243984 L 575 252 L 585.1626748576241 256.209517756016 L 585.1626748576241 247.790482243984" stroke-miterlimit="10"/></g><g transform="translate(-78,10) scale(1,1)"><g><path fill="none" stroke="none"/><text fill="#000000" stroke="none" font-family="Arial" font-size="13px" font-style="normal" font-weight="normal" text-decoration="none" x="575.5" y="228.5">4 : setStatus("inprocess")</text></g></g><g transform="translate(-78,10) scale(1,1)"><rect fill="#ffffff" stroke="none" x="562" y="252" width="13" height="28"/></g><g transform="translate(-78,10) scale(1,1)"><path fill="none" stroke="#000000" d="M 562 252 L 575 252 L 575 280 L 562 280 L 562 252 Z Z" stroke-miterlimit="10"/></g><g transform="translate(-78,10) scale(1,1)"><path fill="none" stroke="#000000" d="M 193 332 L 763 332" stroke-miterlimit="10"/></g><g transform="translate(-78,10) scale(1,1)"><path fill="none" stroke="#000000" d="M 752.8373251423759 336.209517756016 L 763 332 L 752.8373251423758 327.790482243984" stroke-miterlimit="10"/></g><g transform="translate(-78,10) scale(1,1)"><g><path fill="none" stroke="none"/><text fill="#000000" stroke="none" font-family="Arial" font-size="13px" font-style="normal" font-weight="normal" text-decoration="none" x="410.806884765625" y="328.5">5 : interuptAlert(Alert a)</text></g></g><g transform="translate(-78,10) scale(1,1)"><rect fill="#ffffff" stroke="none" x="763" y="332" width="13" height="172"/></g><g transform="translate(-78,10) scale(1,1)"><path fill="none" stroke="#000000" d="M 763 332 L 776 332 L 776 504 L 763 504 L 763 332 Z Z" stroke-miterlimit="10"/></g><g transform="translate(-78,10) scale(1,1)"><rect fill="#ffffff" stroke="none" x="168" y="560" width="856" height="72"/></g><g transform="translate(-78,10) scale(1,1)"><path fill="none" stroke="#000000" d="M 168 560 L 1024 560 L 1024 632 L 168 632 L 168 560 Z Z" stroke-miterlimit="10"/></g><g transform="translate(-78,10) scale(1,1)"><path fill="none" stroke="#000000" d="M 168 560 L 168 595 L 208.341796875 595 L 225.841796875 577.5 L 225.841796875 560 L 168 560 L 168 560" stroke-miterlimit="10"/></g><g transform="translate(-78,10) scale(1,1)"><g><path fill="none" stroke="none"/><text fill="#000000" stroke="none" font-family="Arial" font-size="26px" font-style="normal" font-weight="normal" text-decoration="none" x="470.9892578125" y="609">Notification Exception</text></g></g><g transform="translate(-78,10) scale(1,1)"><g><path fill="none" stroke="none"/><text fill="#000000" stroke="none" font-family="Arial" font-size="26px" font-style="normal" font-weight="normal" text-decoration="none" x="173" y="590.5">ref</text></g></g><g transform="translate(-78,10) scale(1,1)"><path fill="none" stroke="#000000" d="M 776 376 L 980 376" stroke-miterlimit="10"/></g><g transform="translate(-78,10) scale(1,1)"><path fill="none" stroke="#000000" d="M 969.8373251423759 380.209517756016 L 980 376 L 969.8373251423758 371.790482243984" stroke-miterlimit="10"/></g><g transform="translate(-78,10) scale(1,1)"><g><path fill="none" stroke="none"/><text fill="#000000" stroke="none" font-family="Arial" font-size="13px" font-style="normal" font-weight="normal" text-decoration="none" x="777.5" y="372.5">6 : resume(Motif = INTERUPTION)</text></g></g><g transform="translate(-78,10) scale(1,1)"><rect fill="#ffffff" stroke="none" x="980" y="376" width="13" height="112"/></g><g transform="translate(-78,10) scale(1,1)"><path fill="none" stroke="#000000" d="M 980 376 L 993 376 L 993 488 L 980 488 L 980 376 Z Z" stroke-miterlimit="10"/></g><g transform="translate(-78,10) scale(1,1)"><path fill="none" stroke="#000000" d="M 993 384 L 1023 384 L 1023 404 L 1000 404" stroke-miterlimit="10"/></g><g transform="translate(-78,10) scale(1,1)"><path fill="#000000" stroke="none" d="M 1010.1626748576241 399.790482243984 L 1000 404 L 1010.1626748576241 408.209517756016"/></g><g transform="translate(-78,10) scale(1,1)"><path fill="none" stroke="#000000" d="M 1010.1626748576241 399.790482243984 L 1000 404 L 1010.1626748576241 408.209517756016 L 1010.1626748576241 399.790482243984" stroke-miterlimit="10"/></g><g transform="translate(-78,10) scale(1,1)"><g><path fill="none" stroke="none"/><text fill="#000000" stroke="none" font-family="Arial" font-size="13px" font-style="normal" font-weight="normal" text-decoration="none" x="991.8837890625" y="380.5">7 : setStatus("executable")</text></g></g><g transform="translate(-78,10) scale(1,1)"><rect fill="#ffffff" stroke="none" x="987" y="404" width="13" height="28"/></g><g transform="translate(-78,10) scale(1,1)"><path fill="none" stroke="#000000" d="M 987 404 L 1000 404 L 1000 432 L 987 432 L 987 404 Z Z" stroke-miterlimit="10"/></g><g transform="translate(-78,10) scale(1,1)"><path fill="none" stroke="#000000" d="M 993 432 L 1023 432 L 1023 452 L 1000 452" stroke-miterlimit="10"/></g><g transform="translate(-78,10) scale(1,1)"><path fill="#000000" stroke="none" d="M 1010.1626748576241 447.790482243984 L 1000 452 L 1010.1626748576241 456.209517756016"/></g><g transform="translate(-78,10) scale(1,1)"><path fill="none" stroke="#000000" d="M 1010.1626748576241 447.790482243984 L 1000 452 L 1010.1626748576241 456.209517756016 L 1010.1626748576241 447.790482243984" stroke-miterlimit="10"/></g><g transform="translate(-78,10) scale(1,1)"><g><path fill="none" stroke="none"/><text fill="#000000" stroke="none" font-family="Arial" font-size="13px" font-style="normal" font-weight="normal" text-decoration="none" x="1005.5" y="428.5">8 : resetExecutionDate( )</text></g></g><g transform="translate(-78,10) scale(1,1)"><rect fill="#ffffff" stroke="none" x="987" y="452" width="13" height="31"/></g><g transform="translate(-78,10) scale(1,1)"><path fill="none" stroke="#000000" d="M 987 452 L 1000 452 L 1000 483 L 987 483 L 987 452 Z Z" stroke-miterlimit="10"/></g><g transform="translate(-78,10) scale(1,1)"><path fill="none" stroke="#000000" d="M 440 352 L 1152 352 L 1152 496 L 440 496 L 440 352" stroke-miterlimit="10"/></g><g transform="translate(-78,10) scale(1,1)"><path fill="#ffffff" stroke="none" d="M 440 352 L 440 374 L 726.2958984375 374 L 737.2958984375 363 L 737.2958984375 352 L 440 352"/></g><g transform="translate(-78,10) scale(1,1)"><path fill="none" stroke="#000000" d="M 440 352 L 440 374 L 726.2958984375 374 L 737.2958984375 363 L 737.2958984375 352 L 440 352 L 440 352" stroke-miterlimit="10"/></g><g transform="translate(-78,10) scale(1,1)"><g><path fill="none" stroke="none"/><text fill="#000000" stroke="none" font-family="Arial" font-size="13px" font-style="normal" font-weight="normal" text-decoration="none" x="475.578125" y="369.5">pour chaque Action en Exception du Client</text></g></g><g transform="translate(-78,10) scale(1,1)"><g><path fill="none" stroke="none"/><text fill="#000000" stroke="none" font-family="Arial" font-size="13px" font-style="normal" font-weight="bold" text-decoration="none" x="445" y="369.5">loop</text></g></g></g></svg>