<svg version="1.1" xmlns="http://www.w3.org/2000/svg" xmlns:xlink="http://www.w3.org/1999/xlink" width="1123" height="932"><defs/><g><g transform="translate(-158,-30) scale(1,1)"><path fill="none" stroke="#000000" d="M 288 40 L 1271 40 L 1271 952 L 288 952 L 288 40" stroke-miterlimit="10"/></g><g transform="translate(-158,-30) scale(1,1)"><path fill="#ffffff" stroke="none" d="M 288 40 L 288 62 L 490.93212890625 62 L 501.93212890625 51 L 501.93212890625 40 L 288 40"/></g><g transform="translate(-158,-30) scale(1,1)"><path fill="none" stroke="#000000" d="M 288 40 L 288 62 L 490.93212890625 62 L 501.93212890625 51 L 501.93212890625 40 L 288 40 L 288 40" stroke-miterlimit="10"/></g><g transform="translate(-158,-30) scale(1,1)"><g><path fill="none" stroke="none"/><text fill="#000000" stroke="none" font-family="Arial" font-size="13px" font-style="normal" font-weight="normal" text-decoration="none" x="351.03173828125" y="57.5">Recherche et Affichage</text></g></g><g transform="translate(-158,-30) scale(1,1)"><g><path fill="none" stroke="none"/><text fill="#000000" stroke="none" font-family="Arial" font-size="13px" font-style="normal" font-weight="bold" text-decoration="none" x="293" y="57.5">use case</text></g></g><g transform="translate(-158,-30) scale(1,1)"><path fill="#ffffff" stroke="none" d="M 194.3018181818182 423.45 C 194.3018181818182 411.05120624 204.01642399418182 401 216 401 C 227.98357600581818 401 237.6981818181818 411.05120624 237.6981818181818 423.45 C 237.6981818181818 435.84879376 227.98357600581818 445.9 216 445.9 C 204.01642399418182 445.9 194.3018181818182 435.84879376 194.3018181818182 423.45 Z"/></g><g transform="translate(-158,-30) scale(1,1)"><path fill="none" stroke="#000000" d="M 194.3018181818182 423.45 C 194.3018181818182 411.05120624 204.01642399418182 401 216 401 C 227.98357600581818 401 237.6981818181818 411.05120624 237.6981818181818 423.45 C 237.6981818181818 435.84879376 227.98357600581818 445.9 216 445.9 C 204.01642399418182 445.9 194.3018181818182 435.84879376 194.3018181818182 423.45 Z" stroke-miterlimit="10"/></g><g transform="translate(-158,-30) scale(1,1)"><path fill="none" stroke="#000000" d="M 216 445.9 L 216 489.1" stroke-miterlimit="10"/></g><g transform="translate(-158,-30) scale(1,1)"><path fill="none" stroke="#000000" d="M 193.02545454545455 462.1 L 238.97454545454545 462.1" stroke-miterlimit="10"/></g><g transform="translate(-158,-30) scale(1,1)"><path fill="none" stroke="#000000" d="M 216 489.1 L 184.0909090909091 534" stroke-miterlimit="10"/></g><g transform="translate(-158,-30) scale(1,1)"><path fill="none" stroke="#000000" d="M 216 489.1 L 247.9090909090909 534" stroke-miterlimit="10"/></g><g transform="translate(-158,-30) scale(1,1)"><g><path fill="none" stroke="none"/><text fill="#000000" stroke="none" font-family="Arial" font-size="13px" font-style="normal" font-weight="bold" text-decoration="none" x="197.94091796875" y="554.5">USER</text></g></g><g transform="translate(-158,-30) scale(1,1)"><path fill="#C0C0C0" stroke="none" d="M 362 295 C 362 277.3268864 441.69330560000003 263 540 263 C 638.3066944 263 718 277.3268864 718 295 C 718 312.6731136 638.3066944 327 540 327 C 441.69330560000003 327 362 312.6731136 362 295 Z" opacity="0.2"/></g><g transform="translate(-158,-30) scale(1,1)"><path fill="#ffffff" stroke="none" d="M 355 288 C 355 270.3268864 434.69330560000003 256 533 256 C 631.3066944 256 711 270.3268864 711 288 C 711 305.6731136 631.3066944 320 533 320 C 434.69330560000003 320 355 305.6731136 355 288 Z"/></g><g transform="translate(-158,-30) scale(1,1)"><path fill="none" stroke="#000000" d="M 355 288 C 355 270.3268864 434.69330560000003 256 533 256 C 631.3066944 256 711 270.3268864 711 288 C 711 305.6731136 631.3066944 320 533 320 C 434.69330560000003 320 355 305.6731136 355 288 Z" stroke-miterlimit="10"/></g><g transform="translate(-158,-30) scale(1,1)"><g><path fill="none" stroke="none"/><text fill="#000000" stroke="none" font-family="Arial" font-size="13px" font-style="normal" font-weight="bold" text-decoration="none" x="421.19873046875" y="295">Recherche des informations d'un client</text></g></g><g transform="translate(-158,-30) scale(1,1)"><path fill="#C0C0C0" stroke="none" d="M 391 507 C 391 491.5360256 468.4547296 479 564 479 C 659.5452704 479 737 491.5360256 737 507 C 737 522.4639744 659.5452704 535 564 535 C 468.4547296 535 391 522.4639744 391 507 Z" opacity="0.2"/></g><g transform="translate(-158,-30) scale(1,1)"><path fill="#ffffff" stroke="none" d="M 384 500 C 384 484.5360256 461.4547296 472 557 472 C 652.5452704 472 730 484.5360256 730 500 C 730 515.4639744 652.5452704 528 557 528 C 461.4547296 528 384 515.4639744 384 500 Z"/></g><g transform="translate(-158,-30) scale(1,1)"><path fill="none" stroke="#000000" d="M 384 500 C 384 484.5360256 461.4547296 472 557 472 C 652.5452704 472 730 484.5360256 730 500 C 730 515.4639744 652.5452704 528 557 528 C 461.4547296 528 384 515.4639744 384 500 Z" stroke-miterlimit="10"/></g><g transform="translate(-158,-30) scale(1,1)"><g><path fill="none" stroke="none"/><text fill="#000000" stroke="none" font-family="Arial" font-size="13px" font-style="normal" font-weight="bold" text-decoration="none" x="449.6484375" y="507">Affichage des informations d'un client</text></g></g><g transform="translate(-158,-30) scale(1,1)"><path fill="#C0C0C0" stroke="none" d="M 423 663 C 423 645.3268864 502.0217328 631 599.5 631 C 696.9782672 631 776 645.3268864 776 663 C 776 680.6731136 696.9782672 695 599.5 695 C 502.0217328 695 423 680.6731136 423 663 Z" opacity="0.2"/></g><g transform="translate(-158,-30) scale(1,1)"><path fill="#ffffff" stroke="none" d="M 416 656 C 416 638.3268864 495.0217328 624 592.5 624 C 689.9782672 624 769 638.3268864 769 656 C 769 673.6731136 689.9782672 688 592.5 688 C 495.0217328 688 416 673.6731136 416 656 Z"/></g><g transform="translate(-158,-30) scale(1,1)"><path fill="none" stroke="#000000" d="M 416 656 C 416 638.3268864 495.0217328 624 592.5 624 C 689.9782672 624 769 638.3268864 769 656 C 769 673.6731136 689.9782672 688 592.5 688 C 495.0217328 688 416 673.6731136 416 656 Z" stroke-miterlimit="10"/></g><g transform="translate(-158,-30) scale(1,1)"><g><path fill="none" stroke="none"/><text fill="#000000" stroke="none" font-family="Arial" font-size="13px" font-style="normal" font-weight="bold" text-decoration="none" x="495.05712890625" y="663">Affichage des alertes et exception</text></g></g><g transform="translate(-158,-30) scale(1,1)"><path fill="#C0C0C0" stroke="none" d="M 823 191 C 823 177.7451648 897.5445808 167 989.5 167 C 1081.4554192 167 1156 177.7451648 1156 191 C 1156 204.2548352 1081.4554192 215 989.5 215 C 897.5445808 215 823 204.2548352 823 191 Z" opacity="0.2"/></g><g transform="translate(-158,-30) scale(1,1)"><path fill="#ffffff" stroke="none" d="M 816 184 C 816 170.7451648 890.5445808 160 982.5 160 C 1074.4554192 160 1149 170.7451648 1149 184 C 1149 197.2548352 1074.4554192 208 982.5 208 C 890.5445808 208 816 197.2548352 816 184 Z"/></g><g transform="translate(-158,-30) scale(1,1)"><path fill="none" stroke="#000000" d="M 816 184 C 816 170.7451648 890.5445808 160 982.5 160 C 1074.4554192 160 1149 170.7451648 1149 184 C 1149 197.2548352 1074.4554192 208 982.5 208 C 890.5445808 208 816 197.2548352 816 184 Z" stroke-miterlimit="10"/></g><g transform="translate(-158,-30) scale(1,1)"><g><path fill="none" stroke="none"/><text fill="#000000" stroke="none" font-family="Arial" font-size="13px" font-style="normal" font-weight="bold" text-decoration="none" x="901.932373046875" y="191">Recherche par raison social</text></g></g><g transform="translate(-158,-30) scale(1,1)"><path fill="#C0C0C0" stroke="none" d="M 783 260 C 783 243.9837408 884.4074928 231 1009.5 231 C 1134.5925072 231 1236 243.9837408 1236 260 C 1236 276.0162592 1134.5925072 289 1009.5 289 C 884.4074928 289 783 276.0162592 783 260 Z" opacity="0.2"/></g><g transform="translate(-158,-30) scale(1,1)"><path fill="#ffffff" stroke="none" d="M 776 253 C 776 236.9837408 877.4074928 224 1002.5 224 C 1127.5925072 224 1229 236.9837408 1229 253 C 1229 269.0162592 1127.5925072 282 1002.5 282 C 877.4074928 282 776 269.0162592 776 253 Z"/></g><g transform="translate(-158,-30) scale(1,1)"><path fill="none" stroke="#000000" d="M 776 253 C 776 236.9837408 877.4074928 224 1002.5 224 C 1127.5925072 224 1229 236.9837408 1229 253 C 1229 269.0162592 1127.5925072 282 1002.5 282 C 877.4074928 282 776 269.0162592 776 253 Z" stroke-miterlimit="10"/></g><g transform="translate(-158,-30) scale(1,1)"><g><path fill="none" stroke="none"/><text fill="#000000" stroke="none" font-family="Arial" font-size="13px" font-style="normal" font-weight="bold" text-decoration="none" x="857.6083984375" y="260">Recherche par numero du gestionnaire du compte</text></g></g><g transform="translate(-158,-30) scale(1,1)"><path fill="#C0C0C0" stroke="none" d="M 815 328 C 815 314.19288 891.5592991999999 303 986 303 C 1080.4407008 303 1157 314.19288 1157 328 C 1157 341.80712 1080.4407008 353 986 353 C 891.5592991999999 353 815 341.80712 815 328 Z" opacity="0.2"/></g><g transform="translate(-158,-30) scale(1,1)"><path fill="#ffffff" stroke="none" d="M 808 321 C 808 307.19288 884.5592991999999 296 979 296 C 1073.4407008 296 1150 307.19288 1150 321 C 1150 334.80712 1073.4407008 346 979 346 C 884.5592991999999 346 808 334.80712 808 321 Z"/></g><g transform="translate(-158,-30) scale(1,1)"><path fill="none" stroke="#000000" d="M 808 321 C 808 307.19288 884.5592991999999 296 979 296 C 1073.4407008 296 1150 307.19288 1150 321 C 1150 334.80712 1073.4407008 346 979 346 C 884.5592991999999 346 808 334.80712 808 321 Z" stroke-miterlimit="10"/></g><g transform="translate(-158,-30) scale(1,1)"><g><path fill="none" stroke="none"/><text fill="#000000" stroke="none" font-family="Arial" font-size="13px" font-style="normal" font-weight="bold" text-decoration="none" x="909.629638671875" y="328">Recherche par segment</text></g></g><g transform="translate(-158,-30) scale(1,1)"><path fill="#C0C0C0" stroke="none" d="M 359 843 C 359 827.5360256 455.7064832 815 575 815 C 694.2935168 815 791 827.5360256 791 843 C 791 858.4639744 694.2935168 871 575 871 C 455.7064832 871 359 858.4639744 359 843 Z" opacity="0.2"/></g><g transform="translate(-158,-30) scale(1,1)"><path fill="#ffffff" stroke="none" d="M 352 836 C 352 820.5360256 448.7064832 808 568 808 C 687.2935168 808 784 820.5360256 784 836 C 784 851.4639744 687.2935168 864 568 864 C 448.7064832 864 352 851.4639744 352 836 Z"/></g><g transform="translate(-158,-30) scale(1,1)"><path fill="none" stroke="#000000" d="M 352 836 C 352 820.5360256 448.7064832 808 568 808 C 687.2935168 808 784 820.5360256 784 836 C 784 851.4639744 687.2935168 864 568 864 C 448.7064832 864 352 851.4639744 352 836 Z" stroke-miterlimit="10"/></g><g transform="translate(-158,-30) scale(1,1)"><g><path fill="none" stroke="none"/><text fill="#000000" stroke="none" font-family="Arial" font-size="13px" font-style="normal" font-weight="bold" text-decoration="none" x="461.7275390625" y="843">Affichage des notifications d'un client</text></g></g><g transform="translate(-158,-30) scale(1,1)"><path fill="none" stroke="#000000" d="M 479 321 L 265 450" stroke-miterlimit="10"/></g><g transform="translate(-158,-30) scale(1,1)"><path fill="none" stroke="#000000" d="M 383 490 L 265 483" stroke-miterlimit="10"/></g><g transform="translate(-158,-30) scale(1,1)"><path fill="none" stroke="#000000" d="M 522 623 L 265 503" stroke-miterlimit="10"/></g><g transform="translate(-158,-30) scale(1,1)"><path fill="none" stroke="#000000" d="M 265 530 L 539 807" stroke-miterlimit="10"/></g><g transform="translate(-158,-30) scale(1,1)"><path fill="#C0C0C0" stroke="none" d="M 823 480 C 823 466.19288 896.873008 455 988 455 C 1079.126992 455 1153 466.19288 1153 480 C 1153 493.80712 1079.126992 505 988 505 C 896.873008 505 823 493.80712 823 480 Z" opacity="0.2"/></g><g transform="translate(-158,-30) scale(1,1)"><path fill="#ffffff" stroke="none" d="M 816 473 C 816 459.19288 889.873008 448 981 448 C 1072.126992 448 1146 459.19288 1146 473 C 1146 486.80712 1072.126992 498 981 498 C 889.873008 498 816 486.80712 816 473 Z"/></g><g transform="translate(-158,-30) scale(1,1)"><path fill="none" stroke="#000000" d="M 816 473 C 816 459.19288 889.873008 448 981 448 C 1072.126992 448 1146 459.19288 1146 473 C 1146 486.80712 1072.126992 498 981 498 C 889.873008 498 816 486.80712 816 473 Z" stroke-miterlimit="10"/></g><g transform="translate(-158,-30) scale(1,1)"><g><path fill="none" stroke="none"/><text fill="#000000" stroke="none" font-family="Arial" font-size="13px" font-style="normal" font-weight="bold" text-decoration="none" x="904.87890625" y="480">Affichage facturation client</text></g></g><g transform="translate(-158,-30) scale(1,1)"><path fill="#C0C0C0" stroke="none" d="M 823 688 C 823 674.19288 888.1425616 663 968.5 663 C 1048.8574384 663 1114 674.19288 1114 688 C 1114 701.80712 1048.8574384 713 968.5 713 C 888.1425616 713 823 701.80712 823 688 Z" opacity="0.2"/></g><g transform="translate(-158,-30) scale(1,1)"><path fill="#ffffff" stroke="none" d="M 816 681 C 816 667.19288 881.1425616 656 961.5 656 C 1041.8574384 656 1107 667.19288 1107 681 C 1107 694.80712 1041.8574384 706 961.5 706 C 881.1425616 706 816 694.80712 816 681 Z"/></g><g transform="translate(-158,-30) scale(1,1)"><path fill="none" stroke="#000000" d="M 816 681 C 816 667.19288 881.1425616 656 961.5 656 C 1041.8574384 656 1107 667.19288 1107 681 C 1107 694.80712 1041.8574384 706 961.5 706 C 881.1425616 706 816 694.80712 816 681 Z" stroke-miterlimit="10"/></g><g transform="translate(-158,-30) scale(1,1)"><g><path fill="none" stroke="none"/><text fill="#000000" stroke="none" font-family="Arial" font-size="13px" font-style="normal" font-weight="bold" text-decoration="none" x="870.757080078125" y="688">Affichage du contenu de l'alerte</text></g></g><g transform="translate(-158,-30) scale(1,1)"><path fill="#C0C0C0" stroke="none" d="M 823 540 C 823 528.4020192 896.873008 519 988 519 C 1079.126992 519 1153 528.4020192 1153 540 C 1153 551.5979808 1079.126992 561 988 561 C 896.873008 561 823 551.5979808 823 540 Z" opacity="0.2"/></g><g transform="translate(-158,-30) scale(1,1)"><path fill="#ffffff" stroke="none" d="M 816 533 C 816 521.4020192 889.873008 512 981 512 C 1072.126992 512 1146 521.4020192 1146 533 C 1146 544.5979808 1072.126992 554 981 554 C 889.873008 554 816 544.5979808 816 533 Z"/></g><g transform="translate(-158,-30) scale(1,1)"><path fill="none" stroke="#000000" d="M 816 533 C 816 521.4020192 889.873008 512 981 512 C 1072.126992 512 1146 521.4020192 1146 533 C 1146 544.5979808 1072.126992 554 981 554 C 889.873008 554 816 544.5979808 816 533 Z" stroke-miterlimit="10"/></g><g transform="translate(-158,-30) scale(1,1)"><g><path fill="none" stroke="none"/><text fill="#000000" stroke="none" font-family="Arial" font-size="13px" font-style="normal" font-weight="bold" text-decoration="none" x="901.263916015625" y="540">Affichage du segment client</text></g></g><g transform="translate(-158,-30) scale(1,1)"><path fill="#C0C0C0" stroke="none" d="M 735 775 C 735 761.7451648 835.73592 751 960 751 C 1084.26408 751 1185 761.7451648 1185 775 C 1185 788.2548352 1084.26408 799 960 799 C 835.73592 799 735 788.2548352 735 775 Z" opacity="0.2"/></g><g transform="translate(-158,-30) scale(1,1)"><path fill="#ffffff" stroke="none" d="M 728 768 C 728 754.7451648 828.73592 744 953 744 C 1077.26408 744 1178 754.7451648 1178 768 C 1178 781.2548352 1077.26408 792 953 792 C 828.73592 792 728 781.2548352 728 768 Z"/></g><g transform="translate(-158,-30) scale(1,1)"><path fill="none" stroke="#000000" d="M 728 768 C 728 754.7451648 828.73592 744 953 744 C 1077.26408 744 1178 754.7451648 1178 768 C 1178 781.2548352 1077.26408 792 953 792 C 828.73592 792 728 781.2548352 728 768 Z" stroke-miterlimit="10"/></g><g transform="translate(-158,-30) scale(1,1)"><g><path fill="none" stroke="none"/><text fill="#000000" stroke="none" font-family="Arial" font-size="13px" font-style="normal" font-weight="bold" text-decoration="none" x="810.238037109375" y="775">Affichage des informations des niveaux de l'alerte</text></g></g><g transform="translate(-158,-30) scale(1,1)"><path fill="#C0C0C0" stroke="none" d="M 847 600 C 847 590.6111584 906.7699792 583 980.5 583 C 1054.2300208 583 1114 590.6111584 1114 600 C 1114 609.3888416 1054.2300208 617 980.5 617 C 906.7699792 617 847 609.3888416 847 600 Z" opacity="0.2"/></g><g transform="translate(-158,-30) scale(1,1)"><path fill="#ffffff" stroke="none" d="M 840 593 C 840 583.6111584 899.7699792 576 973.5 576 C 1047.2300208 576 1107 583.6111584 1107 593 C 1107 602.3888416 1047.2300208 610 973.5 610 C 899.7699792 610 840 602.3888416 840 593 Z"/></g><g transform="translate(-158,-30) scale(1,1)"><path fill="none" stroke="#000000" d="M 840 593 C 840 583.6111584 899.7699792 576 973.5 576 C 1047.2300208 576 1107 583.6111584 1107 593 C 1107 602.3888416 1047.2300208 610 973.5 610 C 899.7699792 610 840 602.3888416 840 593 Z" stroke-miterlimit="10"/></g><g transform="translate(-158,-30) scale(1,1)"><g><path fill="none" stroke="none"/><text fill="#000000" stroke="none" font-family="Arial" font-size="13px" font-style="normal" font-weight="bold" text-decoration="none" x="890.87890625" y="600">Affichage des comptes client</text></g></g><g transform="translate(-158,-30) scale(1,1)"><path fill="#C0C0C0" stroke="none" d="M 863 388 C 863 376.4020192 922.0984064 367 995 367 C 1067.9015936 367 1127 376.4020192 1127 388 C 1127 399.5979808 1067.9015936 409 995 409 C 922.0984064 409 863 399.5979808 863 388 Z" opacity="0.2"/></g><g transform="translate(-158,-30) scale(1,1)"><path fill="#ffffff" stroke="none" d="M 856 381 C 856 369.4020192 915.0984064 360 988 360 C 1060.9015936 360 1120 369.4020192 1120 381 C 1120 392.5979808 1060.9015936 402 988 402 C 915.0984064 402 856 392.5979808 856 381 Z"/></g><g transform="translate(-158,-30) scale(1,1)"><path fill="none" stroke="#000000" d="M 856 381 C 856 369.4020192 915.0984064 360 988 360 C 1060.9015936 360 1120 369.4020192 1120 381 C 1120 392.5979808 1060.9015936 402 988 402 C 915.0984064 402 856 392.5979808 856 381 Z" stroke-miterlimit="10"/></g><g transform="translate(-158,-30) scale(1,1)"><g><path fill="none" stroke="none"/><text fill="#000000" stroke="none" font-family="Arial" font-size="13px" font-style="normal" font-weight="bold" text-decoration="none" x="905.2646484375" y="388">Recherche par compte client</text></g></g><g transform="translate(-158,-30) scale(1,1)"><path fill="none" stroke="#000000" d="M 874 209 L 675 255" stroke-miterlimit="10"/></g><g transform="translate(-158,-30) scale(1,1)"><path fill="#FFFFFF" stroke="none" d="M 692.907052807585 242.21964555474457 L 675 255 L 696.6992737655168 258.6251231771013"/></g><g transform="translate(-158,-30) scale(1,1)"><path fill="none" stroke="#000000" d="M 692.907052807585 242.21964555474457 L 675 255 L 696.6992737655168 258.6251231771013 L 692.907052807585 242.21964555474457" stroke-miterlimit="10"/></g><g transform="translate(-158,-30) scale(1,1)"><path fill="none" stroke="#000000" d="M 775 270 L 712 275" stroke-miterlimit="10"/></g><g transform="translate(-158,-30) scale(1,1)"><path fill="#FFFFFF" stroke="none" d="M 731.5955547754586 264.99928837322045 L 712 275 L 732.9277206708261 281.7845786548522"/></g><g transform="translate(-158,-30) scale(1,1)"><path fill="none" stroke="#000000" d="M 731.5955547754586 264.99928837322045 L 712 275 L 732.9277206708261 281.7845786548522 L 731.5955547754586 264.99928837322045" stroke-miterlimit="10"/></g><g transform="translate(-158,-30) scale(1,1)"><path fill="none" stroke="#000000" d="M 807 308 L 712 301" stroke-miterlimit="10"/></g><g transform="translate(-158,-30) scale(1,1)"><path fill="#FFFFFF" stroke="none" d="M 732.8890692943279 294.09733500619035 L 712 301 L 731.6517237760768 310.8898813253132"/></g><g transform="translate(-158,-30) scale(1,1)"><path fill="none" stroke="#000000" d="M 732.8890692943279 294.09733500619035 L 712 301 L 731.6517237760768 310.8898813253132 L 732.8890692943279 294.09733500619035" stroke-miterlimit="10"/></g><g transform="translate(-158,-30) scale(1,1)"><path fill="none" stroke="#000000" d="M 880 359 L 694 321" stroke-miterlimit="10"/></g><g transform="translate(-158,-30) scale(1,1)"><path fill="#FFFFFF" stroke="none" d="M 715.5992116662039 316.819801990513 L 694 321 L 712.2287953966671 333.31710267824565"/></g><g transform="translate(-158,-30) scale(1,1)"><path fill="none" stroke="#000000" d="M 715.5992116662039 316.819801990513 L 694 321 L 712.2287953966671 333.31710267824565 L 715.5992116662039 316.819801990513" stroke-miterlimit="10"/></g><g transform="translate(-158,-30) scale(1,1)"><path fill="none" stroke="#000000" d="M 815 484 L 731 489" stroke-miterlimit="10"/></g><g transform="translate(-158,-30) scale(1,1)"><path fill="#FFFFFF" stroke="none" d="M 750.7891902662609 479.38813500897334 L 731 489 L 751.7896855464685 496.1964557164594"/></g><g transform="translate(-158,-30) scale(1,1)"><path fill="none" stroke="#000000" d="M 750.7891902662609 479.38813500897334 L 731 489 L 751.7896855464685 496.1964557164594 L 750.7891902662609 479.38813500897334" stroke-miterlimit="10"/></g><g transform="translate(-158,-30) scale(1,1)"><path fill="none" stroke="#000000" d="M 815 520 L 731 514" stroke-miterlimit="10"/></g><g transform="translate(-158,-30) scale(1,1)"><path fill="#FFFFFF" stroke="none" d="M 751.8735283445523 507.05048099152384 L 731 514 L 750.6738654566009 523.8457614228442"/></g><g transform="translate(-158,-30) scale(1,1)"><path fill="none" stroke="#000000" d="M 751.8735283445523 507.05048099152384 L 731 514 L 750.6738654566009 523.8457614228442 L 751.8735283445523 507.05048099152384" stroke-miterlimit="10"/></g><g transform="translate(-158,-30) scale(1,1)"><path fill="none" stroke="#000000" d="M 892 575 L 687 529" stroke-miterlimit="10"/></g><g transform="translate(-158,-30) scale(1,1)"><path fill="#FFFFFF" stroke="none" d="M 708.6755089248271 525.2353867596073 L 687 529 L 704.9888828972411 541.6649157955885"/></g><g transform="translate(-158,-30) scale(1,1)"><path fill="none" stroke="#000000" d="M 708.6755089248271 525.2353867596073 L 687 529 L 704.9888828972411 541.6649157955885 L 708.6755089248271 525.2353867596073" stroke-miterlimit="10"/></g><g transform="translate(-158,-30) scale(1,1)"><path fill="none" stroke="#000000" d="M 815 671 L 770 668" stroke-miterlimit="10"/></g><g transform="translate(-158,-30) scale(1,1)"><path fill="#FFFFFF" stroke="none" d="M 790.8403581859448 660.9516334742348 L 770 668 L 789.7203063622949 677.7524108289812"/></g><g transform="translate(-158,-30) scale(1,1)"><path fill="none" stroke="#000000" d="M 790.8403581859448 660.9516334742348 L 770 668 L 789.7203063622949 677.7524108289812 L 790.8403581859448 660.9516334742348" stroke-miterlimit="10"/></g><g transform="translate(-158,-30) scale(1,1)"><path fill="none" stroke="#000000" d="M 872 743 L 698 689" stroke-miterlimit="10"/></g><g transform="translate(-158,-30) scale(1,1)"><path fill="#FFFFFF" stroke="none" d="M 719.9074080969298 686.9836988135256 L 698 689 L 714.9166170654306 703.0651365816896"/></g><g transform="translate(-158,-30) scale(1,1)"><path fill="none" stroke="#000000" d="M 719.9074080969298 686.9836988135256 L 698 689 L 714.9166170654306 703.0651365816896 L 719.9074080969298 686.9836988135256" stroke-miterlimit="10"/></g></g></svg>