<svg version="1.1" xmlns="http://www.w3.org/2000/svg" xmlns:xlink="http://www.w3.org/1999/xlink" width="1157" height="357"><defs/><g><g transform="translate(-62,-46) scale(1,1)"><path fill="#C0C0C0" stroke="none" d="M 79 240.5 C 79 235.2532944 83.2532944 231 88.5 231 C 93.7467056 231 98 235.2532944 98 240.5 C 98 245.7467056 93.7467056 250 88.5 250 C 83.2532944 250 79 245.7467056 79 240.5 Z" opacity="0.2"/></g><g transform="translate(-62,-46) scale(1,1)"><path fill="#000000" stroke="none" d="M 72 233.5 C 72 228.2532944 76.2532944 224 81.5 224 C 86.7467056 224 91 228.2532944 91 233.5 C 91 238.7467056 86.7467056 243 81.5 243 C 76.2532944 243 72 238.7467056 72 233.5 Z"/></g><g transform="translate(-62,-46) scale(1,1)"><path fill="#C0C0C0" stroke="none" d="M 857 63 L 973 63 Q 983 63 983 73 L 983 95 Q 983 105 973 105 L 857 105 Q 847 105 847 95 L 847 73 Q 847 63 857 63 Z" opacity="0.2"/></g><g transform="translate(-62,-46) scale(1,1)"><path fill="#ed8686" stroke="none" d="M 850 56 L 966 56 Q 976 56 976 66 L 976 88 Q 976 98 966 98 L 850 98 Q 840 98 840 88 L 840 66 Q 840 56 850 56 Z"/></g><g transform="translate(-62,-46) scale(1,1)"><path fill="none" stroke="#000000" d="M 850 56 L 966 56 Q 976 56 976 66 L 976 88 Q 976 98 966 98 L 850 98 Q 840 98 840 88 L 840 66 Q 840 56 850 56 Z" stroke-miterlimit="10"/></g><g transform="translate(-62,-46) scale(1,1)"><g><path fill="none" stroke="none"/><text fill="#000000" stroke="none" font-family="Arial" font-size="15px" font-style="normal" font-weight="bold" text-decoration="none" x="855.8955078125" y="77.5">Evoyer un SMS</text></g></g><g transform="translate(-62,-46) scale(1,1)"><path fill="#C0C0C0" stroke="none" d="M 857 127 L 973 127 Q 983 127 983 137 L 983 159 Q 983 169 973 169 L 857 169 Q 847 169 847 159 L 847 137 Q 847 127 857 127 Z" opacity="0.2"/></g><g transform="translate(-62,-46) scale(1,1)"><path fill="#ed8686" stroke="none" d="M 850 120 L 966 120 Q 976 120 976 130 L 976 152 Q 976 162 966 162 L 850 162 Q 840 162 840 152 L 840 130 Q 840 120 850 120 Z"/></g><g transform="translate(-62,-46) scale(1,1)"><path fill="none" stroke="#000000" d="M 850 120 L 966 120 Q 976 120 976 130 L 976 152 Q 976 162 966 162 L 850 162 Q 840 162 840 152 L 840 130 Q 840 120 850 120 Z" stroke-miterlimit="10"/></g><g transform="translate(-62,-46) scale(1,1)"><g><path fill="none" stroke="none"/><text fill="#000000" stroke="none" font-family="Arial" font-size="15px" font-style="normal" font-weight="bold" text-decoration="none" x="849.22314453125" y="141.5">Envoyer un Email</text></g></g><g transform="translate(-62,-46) scale(1,1)"><path fill="#C0C0C0" stroke="none" d="M 857 191 L 973 191 Q 983 191 983 201 L 983 253 Q 983 263 973 263 L 857 263 Q 847 263 847 253 L 847 201 Q 847 191 857 191 Z" opacity="0.2"/></g><g transform="translate(-62,-46) scale(1,1)"><path fill="#ed8686" stroke="none" d="M 850 184 L 966 184 Q 976 184 976 194 L 976 246 Q 976 256 966 256 L 850 256 Q 840 256 840 246 L 840 194 Q 840 184 850 184 Z"/></g><g transform="translate(-62,-46) scale(1,1)"><path fill="none" stroke="#000000" d="M 850 184 L 966 184 Q 976 184 976 194 L 976 246 Q 976 256 966 256 L 850 256 Q 840 256 840 246 L 840 194 Q 840 184 850 184 Z" stroke-miterlimit="10"/></g><g transform="translate(-62,-46) scale(1,1)"><g><path fill="none" stroke="none"/><text fill="#000000" stroke="none" font-family="Arial" font-size="15px" font-style="normal" font-weight="bold" text-decoration="none" x="861.714599609375" y="205.5">Appliquer une</text><text fill="#000000" stroke="none" font-family="Arial" font-size="15px" font-style="normal" font-weight="bold" text-decoration="none" x="875.491455078125" y="220.5">restriction</text><text fill="#000000" stroke="none" font-family="Arial" font-size="15px" font-style="normal" font-weight="bold" text-decoration="none" x="880.296142578125" y="235.5">d'appels</text></g></g><g transform="translate(-62,-46) scale(1,1)"><path fill="#C0C0C0" stroke="none" d="M 857 279 L 973 279 Q 983 279 983 289 L 983 326 Q 983 336 973 336 L 857 336 Q 847 336 847 326 L 847 289 Q 847 279 857 279 Z" opacity="0.2"/></g><g transform="translate(-62,-46) scale(1,1)"><path fill="#ed8686" stroke="none" d="M 850 272 L 966 272 Q 976 272 976 282 L 976 319 Q 976 329 966 329 L 850 329 Q 840 329 840 319 L 840 282 Q 840 272 850 272 Z"/></g><g transform="translate(-62,-46) scale(1,1)"><path fill="none" stroke="#000000" d="M 850 272 L 966 272 Q 976 272 976 282 L 976 319 Q 976 329 966 329 L 850 329 Q 840 329 840 319 L 840 282 Q 840 272 850 272 Z" stroke-miterlimit="10"/></g><g transform="translate(-62,-46) scale(1,1)"><g><path fill="none" stroke="none"/><text fill="#000000" stroke="none" font-family="Arial" font-size="15px" font-style="normal" font-weight="bold" text-decoration="none" x="864.651611328125" y="293.5">Desactiver la</text><text fill="#000000" stroke="none" font-family="Arial" font-size="15px" font-style="normal" font-weight="bold" text-decoration="none" x="862.1357421875" y="308.5">ligne du client</text></g></g><g transform="translate(-62,-46) scale(1,1)"><path fill="#C0C0C0" stroke="none" d="M 857 343 L 973 343 Q 983 343 983 353 L 983 390 Q 983 400 973 400 L 857 400 Q 847 400 847 390 L 847 353 Q 847 343 857 343 Z" opacity="0.2"/></g><g transform="translate(-62,-46) scale(1,1)"><path fill="#ed8686" stroke="none" d="M 850 336 L 966 336 Q 976 336 976 346 L 976 383 Q 976 393 966 393 L 850 393 Q 840 393 840 383 L 840 346 Q 840 336 850 336 Z"/></g><g transform="translate(-62,-46) scale(1,1)"><path fill="none" stroke="#000000" d="M 850 336 L 966 336 Q 976 336 976 346 L 976 383 Q 976 393 966 393 L 850 393 Q 840 393 840 383 L 840 346 Q 840 336 850 336 Z" stroke-miterlimit="10"/></g><g transform="translate(-62,-46) scale(1,1)"><g><path fill="none" stroke="none"/><text fill="#000000" stroke="none" font-family="Arial" font-size="15px" font-style="normal" font-weight="bold" text-decoration="none" x="859.63818359375" y="357.5">Déclencher un</text><text fill="#000000" stroke="none" font-family="Arial" font-size="15px" font-style="normal" font-weight="bold" text-decoration="none" x="895.49755859375" y="372.5">IVR</text></g></g><g transform="translate(-62,-46) scale(1,1)"><path fill="#C0C0C0" stroke="none" d="M 583 240.5 L 594.5 231 L 605 240.5 L 594.5 249 L 583 240.5" opacity="0.2"/></g><g transform="translate(-62,-46) scale(1,1)"><path fill="#ffffff" stroke="none" d="M 576 233 L 587 224 L 598 233 L 587 242 L 576 233"/></g><g transform="translate(-62,-46) scale(1,1)"><path fill="none" stroke="#000000" d="M 576 233 L 587 224 L 598 233 L 587 242 L 576 233 L 576 233" stroke-miterlimit="10"/></g><g transform="translate(-62,-46) scale(1,1)"><path fill="none" stroke="#000000" d="M 92 233 L 143 233" stroke-miterlimit="10"/></g><g transform="translate(-62,-46) scale(1,1)"><path fill="none" stroke="#000000" d="M 132.83732514237585 237.209517756016 L 143 233 L 132.83732514237585 228.790482243984" stroke-miterlimit="10"/></g><g transform="translate(-62,-46) scale(1,1)"><path fill="none" stroke="#000000" d="M 598 236 L 840 236" stroke-miterlimit="10"/></g><g transform="translate(-62,-46) scale(1,1)"><path fill="none" stroke="#000000" d="M 829.8373251423759 240.209517756016 L 840 236 L 829.8373251423758 231.790482243984" stroke-miterlimit="10"/></g><g transform="translate(-62,-46) scale(1,1)"><g><path fill="none" stroke="none"/><text fill="#000000" stroke="none" font-family="Arial" font-size="13px" font-style="normal" font-weight="normal" text-decoration="none" x="634.5" y="227.5">[TYPE = BAR]</text></g></g><g transform="translate(-62,-46) scale(1,1)"><path fill="none" stroke="#000000" d="M 587 242 L 587 362 M 587 362 A 8 8 0 0 0 595 370 L 840 370" stroke-miterlimit="10"/></g><g transform="translate(-62,-46) scale(1,1)"><path fill="none" stroke="#000000" d="M 829.8373251423759 374.209517756016 L 840 370 L 829.8373251423758 365.790482243984" stroke-miterlimit="10"/></g><g transform="translate(-62,-46) scale(1,1)"><g><path fill="none" stroke="none"/><text fill="#000000" stroke="none" font-family="Arial" font-size="13px" font-style="normal" font-weight="normal" text-decoration="none" x="703.5" y="364.5">[TYPE = IVR]</text></g></g><g transform="translate(-62,-46) scale(1,1)"><path fill="none" stroke="#000000" d="M 587 242 L 587 276 M 587 276 A 8 8 0 0 0 595 284 L 840 284" stroke-miterlimit="10"/></g><g transform="translate(-62,-46) scale(1,1)"><path fill="none" stroke="#000000" d="M 829.8373251423759 288.209517756016 L 840 284 L 829.8373251423758 279.790482243984" stroke-miterlimit="10"/></g><g transform="translate(-62,-46) scale(1,1)"><g><path fill="none" stroke="none"/><text fill="#000000" stroke="none" font-family="Arial" font-size="13px" font-style="normal" font-weight="normal" text-decoration="none" x="648.46484375" y="276.5">[TYPE = DESSACTIVATION]</text></g></g><g transform="translate(-62,-46) scale(1,1)"><path fill="#C0C0C0" stroke="none" d="M 161 207 L 317 207 Q 327 207 327 217 L 327 263 Q 327 273 317 273 L 161 273 Q 151 273 151 263 L 151 217 Q 151 207 161 207 Z" opacity="0.2"/></g><g transform="translate(-62,-46) scale(1,1)"><path fill="#ffffff" stroke="none" d="M 154 200 L 310 200 Q 320 200 320 210 L 320 256 Q 320 266 310 266 L 154 266 Q 144 266 144 256 L 144 210 Q 144 200 154 200 Z"/></g><g transform="translate(-62,-46) scale(1,1)"><path fill="none" stroke="#000000" d="M 154 200 L 310 200 Q 320 200 320 210 L 320 256 Q 320 266 310 266 L 154 266 Q 144 266 144 256 L 144 210 Q 144 200 154 200 Z" stroke-miterlimit="10"/></g><g transform="translate(-62,-46) scale(1,1)"><g><path fill="none" stroke="none"/><text fill="#000000" stroke="none" font-family="Arial" font-size="13px" font-style="normal" font-weight="bold" text-decoration="none" x="172.379638671875" y="219.5">Consulter la table de</text><text fill="#000000" stroke="none" font-family="Arial" font-size="13px" font-style="normal" font-weight="bold" text-decoration="none" x="194.780517578125" y="232.5">configuration</text><text fill="#000000" stroke="none" font-family="Arial" font-size="13px" font-style="normal" font-weight="bold" text-decoration="none" x="169.161376953125" y="245.5">DUNNING_ACTIONS</text></g></g><g transform="translate(-62,-46) scale(1,1)"><path fill="none" stroke="#000000" d="M 321 233 L 375 234" stroke-miterlimit="10"/></g><g transform="translate(-62,-46) scale(1,1)"><path fill="none" stroke="#000000" d="M 364.76112659609436 238.0206307240026 L 375 234 L 364.9170079347985 229.60303843397693" stroke-miterlimit="10"/></g><g transform="translate(-62,-46) scale(1,1)"><path fill="#C0C0C0" stroke="none" d="M 1191 235.5 C 1191 228.59644 1196.59644 223 1203.5 223 C 1210.40356 223 1216 228.59644 1216 235.5 C 1216 242.40356 1210.40356 248 1203.5 248 C 1196.59644 248 1191 242.40356 1191 235.5 Z" opacity="0.2"/></g><g transform="translate(-62,-46) scale(1,1)"><path fill="none" stroke="#000000" d="M 1184 228.5 C 1184 221.59644 1189.59644 216 1196.5 216 C 1203.40356 216 1209 221.59644 1209 228.5 C 1209 235.40356 1203.40356 241 1196.5 241 C 1189.59644 241 1184 235.40356 1184 228.5 Z" stroke-miterlimit="10"/></g><g transform="translate(-62,-46) scale(1,1)"><path fill="#000000" stroke="none" d="M 1189 228.5 C 1189 224.357864 1192.357864 221 1196.5 221 C 1200.642136 221 1204 224.357864 1204 228.5 C 1204 232.642136 1200.642136 236 1196.5 236 C 1192.357864 236 1189 232.642136 1189 228.5 Z"/></g><g transform="translate(-62,-46) scale(1,1)"><path fill="none" stroke="#000000" d="M 950 99 L 1183 221" stroke-miterlimit="10"/></g><g transform="translate(-62,-46) scale(1,1)"><path fill="none" stroke="#000000" d="M 1172.0441783458868 220.01512849403215 L 1183 221 L 1175.9494735353735 212.55665489443896" stroke-miterlimit="10"/></g><g transform="translate(-62,-46) scale(1,1)"><path fill="none" stroke="#000000" d="M 977 162 L 1183 224" stroke-miterlimit="10"/></g><g transform="translate(-62,-46) scale(1,1)"><path fill="none" stroke="#000000" d="M 1172.0553412116747 225.10201815190692 L 1183 224 L 1174.4817130447982 217.04020206120623" stroke-miterlimit="10"/></g><g transform="translate(-62,-46) scale(1,1)"><path fill="none" stroke="#000000" d="M 977 222 L 1183 228" stroke-miterlimit="10"/></g><g transform="translate(-62,-46) scale(1,1)"><path fill="none" stroke="#000000" d="M 1172.7190777444882 231.91185858334933 L 1183 228 L 1172.9641884249468 223.49639188760509" stroke-miterlimit="10"/></g><g transform="translate(-62,-46) scale(1,1)"><path fill="none" stroke="#000000" d="M 977 283 L 1183 231" stroke-miterlimit="10"/></g><g transform="translate(-62,-46) scale(1,1)"><path fill="none" stroke="#000000" d="M 1174.176689460764 237.568804391075 L 1183 231 L 1172.1161311559745 229.40582341440856" stroke-miterlimit="10"/></g><g transform="translate(-62,-46) scale(1,1)"><path fill="none" stroke="#000000" d="M 969 335 L 1183 234" stroke-miterlimit="10"/></g><g transform="translate(-62,-46) scale(1,1)"><path fill="none" stroke="#000000" d="M 1175.606176480621 242.1444075146248 L 1183 234 L 1172.0128114682127 234.53074303288835" stroke-miterlimit="10"/></g><g transform="translate(-62,-46) scale(1,1)"><path fill="#C0C0C0" stroke="none" d="M 393 215 L 517 215 Q 527 215 527 225 L 527 258 Q 527 268 517 268 L 393 268 Q 383 268 383 258 L 383 225 Q 383 215 393 215 Z" opacity="0.2"/></g><g transform="translate(-62,-46) scale(1,1)"><path fill="#ffffff" stroke="none" d="M 386 208 L 510 208 Q 520 208 520 218 L 520 251 Q 520 261 510 261 L 386 261 Q 376 261 376 251 L 376 218 Q 376 208 386 208 Z"/></g><g transform="translate(-62,-46) scale(1,1)"><path fill="none" stroke="#000000" d="M 386 208 L 510 208 Q 520 208 520 218 L 520 251 Q 520 261 510 261 L 386 261 Q 376 261 376 251 L 376 218 Q 376 208 386 208 Z" stroke-miterlimit="10"/></g><g transform="translate(-62,-46) scale(1,1)"><g><path fill="none" stroke="none"/><text fill="#000000" stroke="none" font-family="Arial" font-size="13px" font-style="normal" font-weight="bold" text-decoration="none" x="385.865966796875" y="227.5">Extraire le TYPE et le</text><text fill="#000000" stroke="none" font-family="Arial" font-size="13px" font-style="normal" font-weight="bold" text-decoration="none" x="384.989990234375" y="240.5">CONTENU de l'action</text></g></g><g transform="translate(-62,-46) scale(1,1)"><path fill="none" stroke="#000000" d="M 521 233 L 575 233" stroke-miterlimit="10"/></g><g transform="translate(-62,-46) scale(1,1)"><path fill="none" stroke="#000000" d="M 564.8373251423759 237.209517756016 L 575 233 L 564.8373251423758 228.790482243984" stroke-miterlimit="10"/></g><g transform="translate(-62,-46) scale(1,1)"><path fill="none" stroke="#000000" d="M 587 224 L 587 93 M 587 93 A 8 8 0 0 1 595 85 L 840 85" stroke-miterlimit="10"/></g><g transform="translate(-62,-46) scale(1,1)"><path fill="none" stroke="#000000" d="M 829.8373251423759 89.20951775601598 L 840 85 L 829.8373251423758 80.79048224398402" stroke-miterlimit="10"/></g><g transform="translate(-62,-46) scale(1,1)"><g><path fill="none" stroke="none"/><text fill="#000000" stroke="none" font-family="Arial" font-size="13px" font-style="normal" font-weight="normal" text-decoration="none" x="678.5" y="81.5">[TYPE = SMS]</text></g></g><g transform="translate(-62,-46) scale(1,1)"><path fill="none" stroke="#000000" d="M 587 224 L 587 149 M 587 149 A 8 8 0 0 1 595 141 L 840 141" stroke-miterlimit="10"/></g><g transform="translate(-62,-46) scale(1,1)"><path fill="none" stroke="#000000" d="M 829.8373251423759 145.209517756016 L 840 141 L 829.8373251423758 136.790482243984" stroke-miterlimit="10"/></g><g transform="translate(-62,-46) scale(1,1)"><g><path fill="none" stroke="none"/><text fill="#000000" stroke="none" font-family="Arial" font-size="13px" font-style="normal" font-weight="normal" text-decoration="none" x="679.220458984375" y="137.5">[TYPE = MAL]</text></g></g></g></svg>