<svg version="1.1" xmlns="http://www.w3.org/2000/svg" xmlns:xlink="http://www.w3.org/1999/xlink" width="503.61181640625" height="230"><defs/><g><g transform="translate(-158,-110) scale(1,1)"><path fill="#ffffff" stroke="none" d="M 187.29436008522728 129.68 C 187.29436008522728 124.886167936 191.18020241017274 121 195.9736328125 121 C 200.76706321482726 121 204.65290553977272 124.886167936 204.65290553977272 129.68 C 204.65290553977272 134.47383206400002 200.76706321482726 138.36 195.9736328125 138.36 C 191.18020241017274 138.36 187.29436008522728 134.47383206400002 187.29436008522728 129.68 Z"/></g><g transform="translate(-158,-110) scale(1,1)"><path fill="none" stroke="#000000" d="M 187.29436008522728 129.68 C 187.29436008522728 124.886167936 191.18020241017274 121 195.9736328125 121 C 200.76706321482726 121 204.65290553977272 124.886167936 204.65290553977272 129.68 C 204.65290553977272 134.47383206400002 200.76706321482726 138.36 195.9736328125 138.36 C 191.18020241017274 138.36 187.29436008522728 134.47383206400002 187.29436008522728 129.68 Z" stroke-miterlimit="10"/></g><g transform="translate(-158,-110) scale(1,1)"><path fill="none" stroke="#000000" d="M 195.9736328125 138.36 L 195.9736328125 155.64" stroke-miterlimit="10"/></g><g transform="translate(-158,-110) scale(1,1)"><path fill="none" stroke="#000000" d="M 186.78381463068183 144.84 L 205.16345099431817 144.84" stroke-miterlimit="10"/></g><g transform="translate(-158,-110) scale(1,1)"><path fill="none" stroke="#000000" d="M 195.9736328125 155.64 L 183.20999644886365 173" stroke-miterlimit="10"/></g><g transform="translate(-158,-110) scale(1,1)"><path fill="none" stroke="#000000" d="M 195.9736328125 155.64 L 208.73726917613635 173" stroke-miterlimit="10"/></g><g transform="translate(-158,-110) scale(1,1)"><g><path fill="none" stroke="none"/><text fill="#000000" stroke="none" font-family="Arial" font-size="13px" font-style="normal" font-weight="bold" text-decoration="none" x="172.858642578125" y="193.5">SOUAD</text></g></g><g transform="translate(-158,-110) scale(1,1)"><path fill="#C0C0C0" stroke="none" d="M 319 184 C 319 174.6111584 341.6096176 167 369.5 167 C 397.3903824 167 420 174.6111584 420 184 C 420 193.3888416 397.3903824 201 369.5 201 C 341.6096176 201 319 193.3888416 319 184 Z" opacity="0.2"/></g><g transform="translate(-158,-110) scale(1,1)"><path fill="#ffffff" stroke="none" d="M 312 177 C 312 167.6111584 334.6096176 160 362.5 160 C 390.3903824 160 413 167.6111584 413 177 C 413 186.3888416 390.3903824 194 362.5 194 C 334.6096176 194 312 186.3888416 312 177 Z"/></g><g transform="translate(-158,-110) scale(1,1)"><path fill="none" stroke="#000000" d="M 312 177 C 312 167.6111584 334.6096176 160 362.5 160 C 390.3903824 160 413 167.6111584 413 177 C 413 186.3888416 390.3903824 194 362.5 194 C 334.6096176 194 312 186.3888416 312 177 Z" stroke-miterlimit="10"/></g><g transform="translate(-158,-110) scale(1,1)"><g><path fill="none" stroke="none"/><text fill="#000000" stroke="none" font-family="Arial" font-size="13px" font-style="normal" font-weight="bold" text-decoration="none" x="338.420166015625" y="184">BATTLE</text></g></g><g transform="translate(-158,-110) scale(1,1)"><path fill="#ffffff" stroke="none" d="M 512.4093503196023 129.68 C 512.4093503196023 124.886167936 516.2951926445477 121 521.088623046875 121 C 525.8820534492023 121 529.7678957741477 124.886167936 529.7678957741477 129.68 C 529.7678957741477 134.47383206400002 525.8820534492023 138.36 521.088623046875 138.36 C 516.2951926445477 138.36 512.4093503196023 134.47383206400002 512.4093503196023 129.68 Z"/></g><g transform="translate(-158,-110) scale(1,1)"><path fill="none" stroke="#000000" d="M 512.4093503196023 129.68 C 512.4093503196023 124.886167936 516.2951926445477 121 521.088623046875 121 C 525.8820534492023 121 529.7678957741477 124.886167936 529.7678957741477 129.68 C 529.7678957741477 134.47383206400002 525.8820534492023 138.36 521.088623046875 138.36 C 516.2951926445477 138.36 512.4093503196023 134.47383206400002 512.4093503196023 129.68 Z" stroke-miterlimit="10"/></g><g transform="translate(-158,-110) scale(1,1)"><path fill="none" stroke="#000000" d="M 521.088623046875 138.36 L 521.088623046875 155.64" stroke-miterlimit="10"/></g><g transform="translate(-158,-110) scale(1,1)"><path fill="none" stroke="#000000" d="M 511.89880486505683 144.84 L 530.2784412286932 144.84" stroke-miterlimit="10"/></g><g transform="translate(-158,-110) scale(1,1)"><path fill="none" stroke="#000000" d="M 521.088623046875 155.64 L 508.32498668323865 173" stroke-miterlimit="10"/></g><g transform="translate(-158,-110) scale(1,1)"><path fill="none" stroke="#000000" d="M 521.088623046875 155.64 L 533.8522594105114 173" stroke-miterlimit="10"/></g><g transform="translate(-158,-110) scale(1,1)"><g><path fill="none" stroke="none"/><text fill="#000000" stroke="none" font-family="Arial" font-size="13px" font-style="normal" font-weight="bold" text-decoration="none" x="504.832275390625" y="193.5">JASS</text></g></g><g transform="translate(-158,-110) scale(1,1)"><path fill="none" stroke="#000000" d="M 225 162 L 311 172" stroke-miterlimit="10"/></g><g transform="translate(-158,-110) scale(1,1)"><path fill="none" stroke="#000000" d="M 414 171 L 495 162" stroke-miterlimit="10"/></g><g transform="translate(-158,-110) scale(1,1)"><path fill="#C0C0C0" stroke="none" d="M 295 272 C 295 262.6111584 320.743624 255 352.5 255 C 384.256376 255 410 262.6111584 410 272 C 410 281.3888416 384.256376 289 352.5 289 C 320.743624 289 295 281.3888416 295 272 Z" opacity="0.2"/></g><g transform="translate(-158,-110) scale(1,1)"><path fill="#ffffff" stroke="none" d="M 288 265 C 288 255.6111584 313.743624 248 345.5 248 C 377.256376 248 403 255.6111584 403 265 C 403 274.3888416 377.256376 282 345.5 282 C 313.743624 282 288 274.3888416 288 265 Z"/></g><g transform="translate(-158,-110) scale(1,1)"><path fill="none" stroke="#000000" d="M 288 265 C 288 255.6111584 313.743624 248 345.5 248 C 377.256376 248 403 255.6111584 403 265 C 403 274.3888416 377.256376 282 345.5 282 C 313.743624 282 288 274.3888416 288 265 Z" stroke-miterlimit="10"/></g><g transform="translate(-158,-110) scale(1,1)"><g><path fill="none" stroke="none"/><text fill="#000000" stroke="none" font-family="Arial" font-size="13px" font-style="normal" font-weight="bold" text-decoration="none" x="310.11181640625" y="272">DUNNIDOO</text></g></g><g transform="translate(-158,-110) scale(1,1)"><path fill="none" stroke="#000000" d="M 348 247 L 359 195" stroke-miterlimit="10"/></g><g transform="translate(-158,-110) scale(1,1)"><path fill="#FFFFFF" stroke="none" d="M 363.030255154192 216.62769158722466 L 359 195 L 346.5567333667034 213.142908132179"/></g><g transform="translate(-158,-110) scale(1,1)"><path fill="none" stroke="#000000" d="M 363.030255154192 216.62769158722466 L 359 195 L 346.5567333667034 213.142908132179 L 363.030255154192 216.62769158722466" stroke-miterlimit="10"/></g><g transform="translate(-158,-110) scale(1,1)"><path fill="#ffffff" stroke="none" d="M 617.1266354758523 209.68 C 617.1266354758523 204.886167936 621.0124778007977 201 625.805908203125 201 C 630.5993386054523 201 634.4851809303977 204.886167936 634.4851809303977 209.68 C 634.4851809303977 214.47383206400002 630.5993386054523 218.36 625.805908203125 218.36 C 621.0124778007977 218.36 617.1266354758523 214.47383206400002 617.1266354758523 209.68 Z"/></g><g transform="translate(-158,-110) scale(1,1)"><path fill="none" stroke="#000000" d="M 617.1266354758523 209.68 C 617.1266354758523 204.886167936 621.0124778007977 201 625.805908203125 201 C 630.5993386054523 201 634.4851809303977 204.886167936 634.4851809303977 209.68 C 634.4851809303977 214.47383206400002 630.5993386054523 218.36 625.805908203125 218.36 C 621.0124778007977 218.36 617.1266354758523 214.47383206400002 617.1266354758523 209.68 Z" stroke-miterlimit="10"/></g><g transform="translate(-158,-110) scale(1,1)"><path fill="none" stroke="#000000" d="M 625.805908203125 218.36 L 625.805908203125 235.64" stroke-miterlimit="10"/></g><g transform="translate(-158,-110) scale(1,1)"><path fill="none" stroke="#000000" d="M 616.6160900213068 224.84 L 634.9957263849432 224.84" stroke-miterlimit="10"/></g><g transform="translate(-158,-110) scale(1,1)"><path fill="none" stroke="#000000" d="M 625.805908203125 235.64 L 613.0422718394886 253" stroke-miterlimit="10"/></g><g transform="translate(-158,-110) scale(1,1)"><path fill="none" stroke="#000000" d="M 625.805908203125 235.64 L 638.5695445667614 253" stroke-miterlimit="10"/></g><g transform="translate(-158,-110) scale(1,1)"><g><path fill="none" stroke="none"/><text fill="#000000" stroke="none" font-family="Arial" font-size="13px" font-style="normal" font-weight="bold" text-decoration="none" x="605.94091796875" y="273.5">NADIA</text></g></g><g transform="translate(-158,-110) scale(1,1)"><path fill="#C0C0C0" stroke="none" d="M 479 320 C 479 310.6111584 504.743624 303 536.5 303 C 568.256376 303 594 310.6111584 594 320 C 594 329.3888416 568.256376 337 536.5 337 C 504.743624 337 479 329.3888416 479 320 Z" opacity="0.2"/></g><g transform="translate(-158,-110) scale(1,1)"><path fill="#ffffff" stroke="none" d="M 472 313 C 472 303.6111584 497.743624 296 529.5 296 C 561.256376 296 587 303.6111584 587 313 C 587 322.3888416 561.256376 330 529.5 330 C 497.743624 330 472 322.3888416 472 313 Z"/></g><g transform="translate(-158,-110) scale(1,1)"><path fill="none" stroke="#000000" d="M 472 313 C 472 303.6111584 497.743624 296 529.5 296 C 561.256376 296 587 303.6111584 587 313 C 587 322.3888416 561.256376 330 529.5 330 C 497.743624 330 472 322.3888416 472 313 Z" stroke-miterlimit="10"/></g><g transform="translate(-158,-110) scale(1,1)"><g><path fill="none" stroke="none"/><text fill="#000000" stroke="none" font-family="Arial" font-size="13px" font-style="normal" font-weight="bold" text-decoration="none" x="494.09912109375" y="320">DESAPEAR</text></g></g><g transform="translate(-158,-110) scale(1,1)"><path fill="none" stroke="#000000" d="M 552 295 L 599 259" stroke-miterlimit="10"/></g><g transform="translate(-158,-110) scale(1,1)"><path fill="none" stroke="#000000" d="M 471 298 L 404 280" stroke-miterlimit="10" stroke-dasharray="3"/></g><g transform="translate(-158,-110) scale(1,1)"><path fill="none" stroke="#000000" d="M 414.90683873707695 278.571410218643 L 404 280 L 412.72246515422654 286.7021341103639" stroke-miterlimit="10"/></g><g transform="translate(-158,-110) scale(1,1)"><g><path fill="none" stroke="none"/><text fill="#000000" stroke="none" font-family="Arial" font-size="13px" font-style="normal" font-weight="normal" text-decoration="none" x="391.5" y="315.5">«extend»</text></g></g></g></svg>