<svg version="1.1" xmlns="http://www.w3.org/2000/svg" xmlns:xlink="http://www.w3.org/1999/xlink" width="714" height="614"><defs/><g><g transform="translate(10,5) scale(1,1)"><path fill="none" stroke="#000000" d="M 0 5 L 694 5 L 694 599 L 0 599 L 0 5" stroke-miterlimit="10"/></g><g transform="translate(10,5) scale(1,1)"><path fill="#ffffff" stroke="none" d="M 0 5 L 0 27 L 163.4052734375 27 L 174.4052734375 16 L 174.4052734375 5 L 0 5"/></g><g transform="translate(10,5) scale(1,1)"><path fill="none" stroke="#000000" d="M 0 5 L 0 27 L 163.4052734375 27 L 174.4052734375 16 L 174.4052734375 5 L 0 5 L 0 5" stroke-miterlimit="10"/></g><g transform="translate(10,5) scale(1,1)"><g><path fill="none" stroke="none"/><text fill="#000000" stroke="none" font-family="Arial" font-size="13px" font-style="normal" font-weight="normal" text-decoration="none" x="70.97900390625" y="22.5">Envoie De Mail</text></g></g><g transform="translate(10,5) scale(1,1)"><g><path fill="none" stroke="none"/><text fill="#000000" stroke="none" font-family="Arial" font-size="13px" font-style="normal" font-weight="bold" text-decoration="none" x="5" y="22.5">interaction</text></g></g><g transform="translate(10,5) scale(1,1)"><rect fill="#C0C0C0" stroke="none" x="87" y="47" width="71.736328125" height="39" opacity="0.2"/></g><g transform="translate(10,5) scale(1,1)"><rect fill="#ffffff" stroke="none" x="80" y="40" width="71.736328125" height="39"/></g><g transform="translate(10,5) scale(1,1)"><path fill="none" stroke="#000000" d="M 80 40 L 151.736328125 40 L 151.736328125 79 L 80 79 L 80 40 Z Z" stroke-miterlimit="10"/></g><g transform="translate(10,5) scale(1,1)"><g><path fill="none" stroke="none"/><text fill="#000000" stroke="none" font-family="Arial" font-size="13px" font-style="normal" font-weight="bold" text-decoration="none" x="100.33544921875" y="59.5">:SOA</text></g></g><g transform="translate(10,5) scale(1,1)"><path fill="none" stroke="#000000" d="M 116.5 80 L 116.5 440" stroke-miterlimit="10" stroke-dasharray="3"/></g><g transform="translate(10,5) scale(1,1)"><rect fill="#C0C0C0" stroke="none" x="471" y="47" width="94.10546875" height="39" opacity="0.2"/></g><g transform="translate(10,5) scale(1,1)"><rect fill="#ffffff" stroke="none" x="464" y="40" width="94.10546875" height="39"/></g><g transform="translate(10,5) scale(1,1)"><path fill="none" stroke="#000000" d="M 464 40 L 558.10546875 40 L 558.10546875 79 L 464 79 L 464 40 Z Z" stroke-miterlimit="10"/></g><g transform="translate(10,5) scale(1,1)"><g><path fill="none" stroke="none"/><text fill="#000000" stroke="none" font-family="Arial" font-size="13px" font-style="normal" font-weight="bold" text-decoration="none" x="477.4482421875" y="59.5">:Application</text></g></g><g transform="translate(10,5) scale(1,1)"><path fill="none" stroke="#000000" d="M 512.5 80 L 512.5 440" stroke-miterlimit="10" stroke-dasharray="3"/></g><g transform="translate(10,5) scale(1,1)"><path fill="none" stroke="#000000" d="M 116 104 L 146 104 L 146 124 L 122 124" stroke-miterlimit="10"/></g><g transform="translate(10,5) scale(1,1)"><path fill="#000000" stroke="none" d="M 132.16267485762415 119.79048224398402 L 122 124 L 132.16267485762415 128.209517756016"/></g><g transform="translate(10,5) scale(1,1)"><path fill="none" stroke="#000000" d="M 132.16267485762415 119.79048224398402 L 122 124 L 132.16267485762415 128.209517756016 L 132.16267485762415 119.79048224398402" stroke-miterlimit="10"/></g><g transform="translate(10,5) scale(1,1)"><g><path fill="none" stroke="none"/><text fill="#000000" stroke="none" font-family="Arial" font-size="13px" font-style="normal" font-weight="normal" text-decoration="none" x="151.46240234375" y="119.5">1 : Mail_Template = getMailTemplate(Mail_ID)</text></g></g><g transform="translate(10,5) scale(1,1)"><rect fill="#ffffff" stroke="none" x="109" y="124" width="13" height="28"/></g><g transform="translate(10,5) scale(1,1)"><path fill="none" stroke="#000000" d="M 109 124 L 122 124 L 122 152 L 109 152 L 109 124 Z Z" stroke-miterlimit="10"/></g><g transform="translate(10,5) scale(1,1)"><path fill="none" stroke="#000000" d="M 116 176 L 146 176 L 146 196 L 122 196" stroke-miterlimit="10"/></g><g transform="translate(10,5) scale(1,1)"><path fill="#000000" stroke="none" d="M 132.16267485762415 191.790482243984 L 122 196 L 132.16267485762415 200.209517756016"/></g><g transform="translate(10,5) scale(1,1)"><path fill="none" stroke="#000000" d="M 132.16267485762415 191.790482243984 L 122 196 L 132.16267485762415 200.209517756016 L 132.16267485762415 191.790482243984" stroke-miterlimit="10"/></g><g transform="translate(10,5) scale(1,1)"><g><path fill="none" stroke="none"/><text fill="#000000" stroke="none" font-family="Arial" font-size="13px" font-style="normal" font-weight="normal" text-decoration="none" x="151.548828125" y="191.5">2 : Mail_Content = setMailContent (Mail_Template , Infos )</text></g></g><g transform="translate(10,5) scale(1,1)"><rect fill="#ffffff" stroke="none" x="109" y="196" width="13" height="28"/></g><g transform="translate(10,5) scale(1,1)"><path fill="none" stroke="#000000" d="M 109 196 L 122 196 L 122 224 L 109 224 L 109 196 Z Z" stroke-miterlimit="10"/></g><g transform="translate(10,5) scale(1,1)"><path fill="none" stroke="#000000" d="M 116 262 L 505 262" stroke-miterlimit="10"/></g><g transform="translate(10,5) scale(1,1)"><path fill="none" stroke="#000000" d="M 494.83732514237585 266.209517756016 L 505 262 L 494.83732514237585 257.790482243984" stroke-miterlimit="10"/></g><g transform="translate(10,5) scale(1,1)"><g><path fill="none" stroke="none"/><text fill="#000000" stroke="none" font-family="Arial" font-size="13px" font-style="normal" font-weight="normal" text-decoration="none" x="142.5" y="258.5">3 : Personnalized_Mail = PersonnalizeMail(Mail_Content )</text></g></g><g transform="translate(10,5) scale(1,1)"><rect fill="#ffffff" stroke="none" x="505" y="262" width="13" height="28"/></g><g transform="translate(10,5) scale(1,1)"><path fill="none" stroke="#000000" d="M 505 262 L 518 262 L 518 290 L 505 290 L 505 262 Z Z" stroke-miterlimit="10"/></g><g transform="translate(10,5) scale(1,1)"><path fill="none" stroke="#000000" d="M 512 296 L 116 296" stroke-miterlimit="10" stroke-dasharray="3"/></g><g transform="translate(10,5) scale(1,1)"><path fill="none" stroke="#000000" d="M 126.16267485762415 291.790482243984 L 116 296 L 126.16267485762415 300.209517756016" stroke-miterlimit="10"/></g><g transform="translate(10,5) scale(1,1)"><g><path fill="none" stroke="none"/><text fill="#000000" stroke="none" font-family="Arial" font-size="13px" font-style="normal" font-weight="normal" text-decoration="none" x="247.5" y="312.5">4 : Personnalized_Mail</text></g></g><g transform="translate(10,5) scale(1,1)"><path fill="none" stroke="#000000" d="M 116 360 L 146 360 L 146 380 L 122 380" stroke-miterlimit="10"/></g><g transform="translate(10,5) scale(1,1)"><path fill="#000000" stroke="none" d="M 132.16267485762415 375.790482243984 L 122 380 L 132.16267485762415 384.209517756016"/></g><g transform="translate(10,5) scale(1,1)"><path fill="none" stroke="#000000" d="M 132.16267485762415 375.790482243984 L 122 380 L 132.16267485762415 384.209517756016 L 132.16267485762415 375.790482243984" stroke-miterlimit="10"/></g><g transform="translate(10,5) scale(1,1)"><g><path fill="none" stroke="none"/><text fill="#000000" stroke="none" font-family="Arial" font-size="13px" font-style="normal" font-weight="normal" text-decoration="none" x="150.5" y="375.5">5 : sendMail(Mail_Content , address )</text></g></g><g transform="translate(10,5) scale(1,1)"><rect fill="#ffffff" stroke="none" x="109" y="380" width="13" height="28"/></g><g transform="translate(10,5) scale(1,1)"><path fill="none" stroke="#000000" d="M 109 380 L 122 380 L 122 408 L 109 408 L 109 380 Z Z" stroke-miterlimit="10"/></g><g transform="translate(10,5) scale(1,1)"><path fill="none" stroke="#000000" d="M 72 232 L 528 232 L 528 344 L 72 344 L 72 232" stroke-miterlimit="10"/></g><g transform="translate(10,5) scale(1,1)"><path fill="#ffffff" stroke="none" d="M 72 232 L 72 254 L 106.07177734375 254 L 117.07177734375 243 L 117.07177734375 232 L 72 232"/></g><g transform="translate(10,5) scale(1,1)"><path fill="none" stroke="#000000" d="M 72 232 L 72 254 L 106.07177734375 254 L 117.07177734375 243 L 117.07177734375 232 L 72 232 L 72 232" stroke-miterlimit="10"/></g><g transform="translate(10,5) scale(1,1)"><g><path fill="none" stroke="none"/><text fill="#000000" stroke="none" font-family="Arial" font-size="13px" font-style="normal" font-weight="bold" text-decoration="none" x="77" y="249.5">opt</text></g></g><g transform="translate(10,5) scale(1,1)"><path fill="none" stroke="#000000" d="M 88 272 L 519 272 L 519 337 L 88 337 L 88 272" stroke-miterlimit="10"/></g><g transform="translate(10,5) scale(1,1)"><path fill="#ffffff" stroke="none" d="M 88 272 L 88 294 L 122.07177734375 294 L 133.07177734375 283 L 133.07177734375 272 L 88 272"/></g><g transform="translate(10,5) scale(1,1)"><path fill="none" stroke="#000000" d="M 88 272 L 88 294 L 122.07177734375 294 L 133.07177734375 283 L 133.07177734375 272 L 88 272 L 88 272" stroke-miterlimit="10"/></g><g transform="translate(10,5) scale(1,1)"><g><path fill="none" stroke="none"/><text fill="#000000" stroke="none" font-family="Arial" font-size="13px" font-style="normal" font-weight="bold" text-decoration="none" x="93" y="289.5">opt</text></g></g></g></svg>