<svg version="1.1" xmlns="http://www.w3.org/2000/svg" xmlns:xlink="http://www.w3.org/1999/xlink" width="1234.490234375" height="628"><defs/><g><g transform="translate(-150,-150) scale(1,1)"><path fill="none" stroke="#000000" d="M 272 160 L 1208 160 L 1208 768 L 272 768 L 272 160" stroke-miterlimit="10"/></g><g transform="translate(-150,-150) scale(1,1)"><path fill="#ffffff" stroke="none" d="M 272 160 L 272 182 L 444.7998046875 182 L 455.7998046875 171 L 455.7998046875 160 L 272 160"/></g><g transform="translate(-150,-150) scale(1,1)"><path fill="none" stroke="#000000" d="M 272 160 L 272 182 L 444.7998046875 182 L 455.7998046875 171 L 455.7998046875 160 L 272 160 L 272 160" stroke-miterlimit="10"/></g><g transform="translate(-150,-150) scale(1,1)"><g><path fill="none" stroke="none"/><text fill="#000000" stroke="none" font-family="Arial" font-size="13px" font-style="normal" font-weight="normal" text-decoration="none" x="335.03173828125" y="177.5">Surconsommation</text></g></g><g transform="translate(-150,-150) scale(1,1)"><g><path fill="none" stroke="none"/><text fill="#000000" stroke="none" font-family="Arial" font-size="13px" font-style="normal" font-weight="bold" text-decoration="none" x="277" y="177.5">use case</text></g></g><g transform="translate(-150,-150) scale(1,1)"><path fill="#ffffff" stroke="none" d="M 186.3018181818182 383.45 C 186.3018181818182 371.05120624 196.01642399418182 361 208 361 C 219.98357600581818 361 229.6981818181818 371.05120624 229.6981818181818 383.45 C 229.6981818181818 395.84879376 219.98357600581818 405.9 208 405.9 C 196.01642399418182 405.9 186.3018181818182 395.84879376 186.3018181818182 383.45 Z"/></g><g transform="translate(-150,-150) scale(1,1)"><path fill="none" stroke="#000000" d="M 186.3018181818182 383.45 C 186.3018181818182 371.05120624 196.01642399418182 361 208 361 C 219.98357600581818 361 229.6981818181818 371.05120624 229.6981818181818 383.45 C 229.6981818181818 395.84879376 219.98357600581818 405.9 208 405.9 C 196.01642399418182 405.9 186.3018181818182 395.84879376 186.3018181818182 383.45 Z" stroke-miterlimit="10"/></g><g transform="translate(-150,-150) scale(1,1)"><path fill="none" stroke="#000000" d="M 208 405.9 L 208 449.1" stroke-miterlimit="10"/></g><g transform="translate(-150,-150) scale(1,1)"><path fill="none" stroke="#000000" d="M 185.02545454545455 422.1 L 230.97454545454545 422.1" stroke-miterlimit="10"/></g><g transform="translate(-150,-150) scale(1,1)"><path fill="none" stroke="#000000" d="M 208 449.1 L 176.0909090909091 494" stroke-miterlimit="10"/></g><g transform="translate(-150,-150) scale(1,1)"><path fill="none" stroke="#000000" d="M 208 449.1 L 239.9090909090909 494" stroke-miterlimit="10"/></g><g transform="translate(-150,-150) scale(1,1)"><g><path fill="none" stroke="none"/><text fill="#000000" stroke="none" font-family="Arial" font-size="13px" font-style="normal" font-weight="bold" text-decoration="none" x="189.94091796875" y="514.5">USER</text></g></g><g transform="translate(-150,-150) scale(1,1)"><path fill="#ffffff" stroke="none" d="M 1283.4624912997158 354.88 C 1283.4624912997158 344.452862976 1291.665936207934 336 1301.785400390625 336 C 1311.904864573316 336 1320.1083094815342 344.452862976 1320.1083094815342 354.88 C 1320.1083094815342 365.307137024 1311.904864573316 373.76 1301.785400390625 373.76 C 1291.665936207934 373.76 1283.4624912997158 365.307137024 1283.4624912997158 354.88 Z"/></g><g transform="translate(-150,-150) scale(1,1)"><path fill="none" stroke="#000000" d="M 1283.4624912997158 354.88 C 1283.4624912997158 344.452862976 1291.665936207934 336 1301.785400390625 336 C 1311.904864573316 336 1320.1083094815342 344.452862976 1320.1083094815342 354.88 C 1320.1083094815342 365.307137024 1311.904864573316 373.76 1301.785400390625 373.76 C 1291.665936207934 373.76 1283.4624912997158 365.307137024 1283.4624912997158 354.88 Z" stroke-miterlimit="10"/></g><g transform="translate(-150,-150) scale(1,1)"><path fill="none" stroke="#000000" d="M 1301.785400390625 373.76 L 1301.785400390625 410.24" stroke-miterlimit="10"/></g><g transform="translate(-150,-150) scale(1,1)"><path fill="none" stroke="#000000" d="M 1282.3846731178976 387.44 L 1321.1861276633524 387.44" stroke-miterlimit="10"/></g><g transform="translate(-150,-150) scale(1,1)"><path fill="none" stroke="#000000" d="M 1301.785400390625 410.24 L 1274.8399458451704 448" stroke-miterlimit="10"/></g><g transform="translate(-150,-150) scale(1,1)"><path fill="none" stroke="#000000" d="M 1301.785400390625 410.24 L 1328.7308549360796 448" stroke-miterlimit="10"/></g><g transform="translate(-150,-150) scale(1,1)"><path fill="none" stroke="#000000" d="M 1257 477 L 1346.57080078125 477" stroke-miterlimit="10"/></g><g transform="translate(-150,-150) scale(1,1)"><g><path fill="none" stroke="none"/><text fill="#000000" stroke="none" font-family="Arial" font-size="16px" font-style="normal" font-weight="bold" text-decoration="none" x="1284.890869140625" y="471.5">SOA</text></g></g><g transform="translate(-150,-150) scale(1,1)"><path fill="#ffffff" stroke="none" d="M 1233 495 L 1363.490234375 495 L 1373.490234375 505 L 1373.490234375 543 L 1233 543 L 1233 495"/></g><g transform="translate(-150,-150) scale(1,1)"><path fill="none" stroke="#000000" d="M 1233 495 L 1363.490234375 495 L 1373.490234375 505 L 1373.490234375 543 L 1233 543 L 1233 495 L 1233 495" stroke-miterlimit="10"/></g><g transform="translate(-150,-150) scale(1,1)"><path fill="none" stroke="#000000" d="M 1363.490234375 495 L 1363.490234375 505 L 1373.490234375 505 L 1363.490234375 495" stroke-miterlimit="10"/></g><g transform="translate(-150,-150) scale(1,1)"><g><path fill="none" stroke="none"/><text fill="#000000" stroke="none" font-family="Arial" font-size="20px" font-style="normal" font-weight="normal" text-decoration="none" x="1238" y="520">&lt;&lt;System&gt;&gt;</text></g></g><g transform="translate(-150,-150) scale(1,1)"><path fill="none" stroke="#000000" d="M 1302 488 L 1303 494" stroke-miterlimit="10" stroke-dasharray="3"/></g><g transform="translate(-150,-150) scale(1,1)"><rect fill="#000000" stroke="none" x="1265" y="351" width="72" height="8"/></g><g transform="translate(-150,-150) scale(1,1)"><path fill="none" stroke="#000000" d="M 1265 351 L 1337 351 L 1337 359 L 1265 359 L 1265 351 Z Z" stroke-miterlimit="10"/></g><g transform="translate(-150,-150) scale(1,1)"><path fill="#C0C0C0" stroke="none" d="M 311 360 C 311 346.19288 388.9024448 335 485 335 C 581.0975552 335 659 346.19288 659 360 C 659 373.80712 581.0975552 385 485 385 C 388.9024448 385 311 373.80712 311 360 Z" opacity="0.2"/></g><g transform="translate(-150,-150) scale(1,1)"><path fill="#ffffff" stroke="none" d="M 304 353 C 304 339.19288 381.9024448 328 478 328 C 574.0975552 328 652 339.19288 652 353 C 652 366.80712 574.0975552 378 478 378 C 381.9024448 378 304 366.80712 304 353 Z"/></g><g transform="translate(-150,-150) scale(1,1)"><path fill="none" stroke="#000000" d="M 304 353 C 304 339.19288 381.9024448 328 478 328 C 574.0975552 328 652 339.19288 652 353 C 652 366.80712 574.0975552 378 478 378 C 381.9024448 378 304 366.80712 304 353 Z" stroke-miterlimit="10"/></g><g transform="translate(-150,-150) scale(1,1)"><g><path fill="none" stroke="none"/><text fill="#000000" stroke="none" font-family="Arial" font-size="13px" font-style="normal" font-weight="bold" text-decoration="none" x="368.64892578125" y="360">Affichage de la tracabilite sur systeme</text></g></g><g transform="translate(-150,-150) scale(1,1)"><path fill="#C0C0C0" stroke="none" d="M 359 464 C 359 450.19288 388.3253456 439 424.5 439 C 460.6746544 439 490 450.19288 490 464 C 490 477.80712 460.6746544 489 424.5 489 C 388.3253456 489 359 477.80712 359 464 Z" opacity="0.2"/></g><g transform="translate(-150,-150) scale(1,1)"><path fill="#ffffff" stroke="none" d="M 352 457 C 352 443.19288 381.3253456 432 417.5 432 C 453.6746544 432 483 443.19288 483 457 C 483 470.80712 453.6746544 482 417.5 482 C 381.3253456 482 352 470.80712 352 457 Z"/></g><g transform="translate(-150,-150) scale(1,1)"><path fill="none" stroke="#000000" d="M 352 457 C 352 443.19288 381.3253456 432 417.5 432 C 453.6746544 432 483 443.19288 483 457 C 483 470.80712 453.6746544 482 417.5 482 C 381.3253456 482 352 470.80712 352 457 Z" stroke-miterlimit="10"/></g><g transform="translate(-150,-150) scale(1,1)"><g><path fill="none" stroke="none"/><text fill="#000000" stroke="none" font-family="Arial" font-size="13px" font-style="normal" font-weight="bold" text-decoration="none" x="379.1982421875" y="464">Appel sortant</text></g></g><g transform="translate(-150,-150) scale(1,1)"><path fill="#C0C0C0" stroke="none" d="M 335 604 C 335 587.9837408 400.3664192 575 481 575 C 561.6335808 575 627 587.9837408 627 604 C 627 620.0162592 561.6335808 633 481 633 C 400.3664192 633 335 620.0162592 335 604 Z" opacity="0.2"/></g><g transform="translate(-150,-150) scale(1,1)"><path fill="#ffffff" stroke="none" d="M 328 597 C 328 580.9837408 393.3664192 568 474 568 C 554.6335808 568 620 580.9837408 620 597 C 620 613.0162592 554.6335808 626 474 626 C 393.3664192 626 328 613.0162592 328 597 Z"/></g><g transform="translate(-150,-150) scale(1,1)"><path fill="none" stroke="#000000" d="M 328 597 C 328 580.9837408 393.3664192 568 474 568 C 554.6335808 568 620 580.9837408 620 597 C 620 613.0162592 554.6335808 626 474 626 C 393.3664192 626 328 613.0162592 328 597 Z" stroke-miterlimit="10"/></g><g transform="translate(-150,-150) scale(1,1)"><g><path fill="none" stroke="none"/><text fill="#000000" stroke="none" font-family="Arial" font-size="13px" font-style="normal" font-weight="bold" text-decoration="none" x="382.46044921875" y="604">Affichage des Bar Out effectues</text></g></g><g transform="translate(-150,-150) scale(1,1)"><path fill="#C0C0C0" stroke="none" d="M 415 528 C 415 514.19288 507.4531888 503 621.5 503 C 735.5468112 503 828 514.19288 828 528 C 828 541.80712 735.5468112 553 621.5 553 C 507.4531888 553 415 541.80712 415 528 Z" opacity="0.2"/></g><g transform="translate(-150,-150) scale(1,1)"><path fill="#ffffff" stroke="none" d="M 408 521 C 408 507.19288 500.4531888 496 614.5 496 C 728.5468112 496 821 507.19288 821 521 C 821 534.80712 728.5468112 546 614.5 546 C 500.4531888 546 408 534.80712 408 521 Z"/></g><g transform="translate(-150,-150) scale(1,1)"><path fill="none" stroke="#000000" d="M 408 521 C 408 507.19288 500.4531888 496 614.5 496 C 728.5468112 496 821 507.19288 821 521 C 821 534.80712 728.5468112 546 614.5 546 C 500.4531888 546 408 534.80712 408 521 Z" stroke-miterlimit="10"/></g><g transform="translate(-150,-150) scale(1,1)"><g><path fill="none" stroke="none"/><text fill="#000000" stroke="none" font-family="Arial" font-size="13px" font-style="normal" font-weight="bold" text-decoration="none" x="482.471923828125" y="528">Envoie d'un SMS de limiste de consommation</text></g></g><g transform="translate(-150,-150) scale(1,1)"><path fill="#C0C0C0" stroke="none" d="M 831 340 C 831 323.9837408 905.5445808 311 997.5 311 C 1089.4554192 311 1164 323.9837408 1164 340 C 1164 356.0162592 1089.4554192 369 997.5 369 C 905.5445808 369 831 356.0162592 831 340 Z" opacity="0.2"/></g><g transform="translate(-150,-150) scale(1,1)"><path fill="#ffffff" stroke="none" d="M 824 333 C 824 316.9837408 898.5445808 304 990.5 304 C 1082.4554192 304 1157 316.9837408 1157 333 C 1157 349.0162592 1082.4554192 362 990.5 362 C 898.5445808 362 824 349.0162592 824 333 Z"/></g><g transform="translate(-150,-150) scale(1,1)"><path fill="none" stroke="#000000" d="M 824 333 C 824 316.9837408 898.5445808 304 990.5 304 C 1082.4554192 304 1157 316.9837408 1157 333 C 1157 349.0162592 1082.4554192 362 990.5 362 C 898.5445808 362 824 349.0162592 824 333 Z" stroke-miterlimit="10"/></g><g transform="translate(-150,-150) scale(1,1)"><g><path fill="none" stroke="none"/><text fill="#000000" stroke="none" font-family="Arial" font-size="13px" font-style="normal" font-weight="bold" text-decoration="none" x="886.08740234375" y="340">Calcul du seuil de surconsommation</text></g></g><g transform="translate(-150,-150) scale(1,1)"><path fill="#C0C0C0" stroke="none" d="M 807 444 C 807 427.9837408 896.0953248 415 1006 415 C 1115.9046752 415 1205 427.9837408 1205 444 C 1205 460.0162592 1115.9046752 473 1006 473 C 896.0953248 473 807 460.0162592 807 444 Z" opacity="0.2"/></g><g transform="translate(-150,-150) scale(1,1)"><path fill="#ffffff" stroke="none" d="M 800 437 C 800 420.9837408 889.0953248 408 999 408 C 1108.9046752 408 1198 420.9837408 1198 437 C 1198 453.0162592 1108.9046752 466 999 466 C 889.0953248 466 800 453.0162592 800 437 Z"/></g><g transform="translate(-150,-150) scale(1,1)"><path fill="none" stroke="#000000" d="M 800 437 C 800 420.9837408 889.0953248 408 999 408 C 1108.9046752 408 1198 420.9837408 1198 437 C 1198 453.0162592 1108.9046752 466 999 466 C 889.0953248 466 800 453.0162592 800 437 Z" stroke-miterlimit="10"/></g><g transform="translate(-150,-150) scale(1,1)"><g><path fill="none" stroke="none"/><text fill="#000000" stroke="none" font-family="Arial" font-size="13px" font-style="normal" font-weight="bold" text-decoration="none" x="873.6337890625" y="444">Gerer la notification de la surconsommation</text></g></g><g transform="translate(-150,-150) scale(1,1)"><path fill="#C0C0C0" stroke="none" d="M 847 544 C 847 530.19288 919.9775776 519 1010 519 C 1100.0224224 519 1173 530.19288 1173 544 C 1173 557.80712 1100.0224224 569 1010 569 C 919.9775776 569 847 557.80712 847 544 Z" opacity="0.2"/></g><g transform="translate(-150,-150) scale(1,1)"><path fill="#ffffff" stroke="none" d="M 840 537 C 840 523.19288 912.9775776 512 1003 512 C 1093.0224224 512 1166 523.19288 1166 537 C 1166 550.80712 1093.0224224 562 1003 562 C 912.9775776 562 840 550.80712 840 537 Z"/></g><g transform="translate(-150,-150) scale(1,1)"><path fill="none" stroke="#000000" d="M 840 537 C 840 523.19288 912.9775776 512 1003 512 C 1093.0224224 512 1166 523.19288 1166 537 C 1166 550.80712 1093.0224224 562 1003 562 C 912.9775776 562 840 550.80712 840 537 Z" stroke-miterlimit="10"/></g><g transform="translate(-150,-150) scale(1,1)"><g><path fill="none" stroke="none"/><text fill="#000000" stroke="none" font-family="Arial" font-size="13px" font-style="normal" font-weight="bold" text-decoration="none" x="924.94921875" y="544">Baring out la ligne du client</text></g></g><g transform="translate(-150,-150) scale(1,1)"><path fill="none" stroke="#000000" d="M 1256 400 L 1110 363" stroke-miterlimit="10"/></g><g transform="translate(-150,-150) scale(1,1)"><path fill="none" stroke="#000000" d="M 1256 415 L 1199 420" stroke-miterlimit="10"/></g><g transform="translate(-150,-150) scale(1,1)"><path fill="none" stroke="#000000" d="M 1256 430 L 1064 511" stroke-miterlimit="10"/></g><g transform="translate(-150,-150) scale(1,1)"><path fill="none" stroke="#000000" d="M 257 424 L 397 379" stroke-miterlimit="10"/></g><g transform="translate(-150,-150) scale(1,1)"><path fill="none" stroke="#000000" d="M 257 444 L 351 452" stroke-miterlimit="10"/></g><g transform="translate(-150,-150) scale(1,1)"><path fill="none" stroke="#000000" d="M 257 469 L 423 567" stroke-miterlimit="10"/></g><g transform="translate(-150,-150) scale(1,1)"><path fill="none" stroke="#000000" d="M 813 407 L 639 379" stroke-miterlimit="10" stroke-dasharray="3"/></g><g transform="translate(-150,-150) scale(1,1)"><path fill="none" stroke="#000000" d="M 649.7023845078685 376.45855044399144 L 639 379 L 648.3648048754768 384.7706524452825" stroke-miterlimit="10"/></g><g transform="translate(-150,-150) scale(1,1)"><g><path fill="none" stroke="none"/><text fill="#000000" stroke="none" font-family="Arial" font-size="13px" font-style="normal" font-weight="normal" text-decoration="none" x="698.5" y="386.5">«include»</text></g></g><g transform="translate(-150,-150) scale(1,1)"><path fill="none" stroke="#000000" d="M 862 467 L 733 495" stroke-miterlimit="10" stroke-dasharray="3"/></g><g transform="translate(-150,-150) scale(1,1)"><path fill="none" stroke="#000000" d="M 742.0385175995999 488.73061409692133 L 733 495 L 743.8243223724934 496.9580718006088" stroke-miterlimit="10"/></g><g transform="translate(-150,-150) scale(1,1)"><g><path fill="none" stroke="none"/><text fill="#000000" stroke="none" font-family="Arial" font-size="13px" font-style="normal" font-weight="normal" text-decoration="none" x="751.5" y="475.5">«include»</text></g></g><g transform="translate(-150,-150) scale(1,1)"><path fill="none" stroke="#000000" d="M 432 431 L 463 379" stroke-miterlimit="10" stroke-dasharray="3"/></g><g transform="translate(-150,-150) scale(1,1)"><path fill="none" stroke="#000000" d="M 461.41180708972496 389.8847436019298 L 463 379 L 454.1803020109107 385.5736540357136" stroke-miterlimit="10"/></g><g transform="translate(-150,-150) scale(1,1)"><g><path fill="none" stroke="none"/><text fill="#000000" stroke="none" font-family="Arial" font-size="13px" font-style="normal" font-weight="normal" text-decoration="none" x="447.5" y="411.5">«extend»</text></g></g></g></svg>