<svg version="1.1" xmlns="http://www.w3.org/2000/svg" xmlns:xlink="http://www.w3.org/1999/xlink" width="495.61181640625" height="230"><defs/><g><g transform="translate(-142,-110) scale(1,1)"><path fill="#ffffff" stroke="none" d="M 171.29436008522728 129.68 C 171.29436008522728 124.886167936 175.18020241017274 121 179.9736328125 121 C 184.76706321482726 121 188.65290553977272 124.886167936 188.65290553977272 129.68 C 188.65290553977272 134.47383206400002 184.76706321482726 138.36 179.9736328125 138.36 C 175.18020241017274 138.36 171.29436008522728 134.47383206400002 171.29436008522728 129.68 Z"/></g><g transform="translate(-142,-110) scale(1,1)"><path fill="none" stroke="#000000" d="M 171.29436008522728 129.68 C 171.29436008522728 124.886167936 175.18020241017274 121 179.9736328125 121 C 184.76706321482726 121 188.65290553977272 124.886167936 188.65290553977272 129.68 C 188.65290553977272 134.47383206400002 184.76706321482726 138.36 179.9736328125 138.36 C 175.18020241017274 138.36 171.29436008522728 134.47383206400002 171.29436008522728 129.68 Z" stroke-miterlimit="10"/></g><g transform="translate(-142,-110) scale(1,1)"><path fill="none" stroke="#000000" d="M 179.9736328125 138.36 L 179.9736328125 155.64" stroke-miterlimit="10"/></g><g transform="translate(-142,-110) scale(1,1)"><path fill="none" stroke="#000000" d="M 170.78381463068183 144.84 L 189.16345099431817 144.84" stroke-miterlimit="10"/></g><g transform="translate(-142,-110) scale(1,1)"><path fill="none" stroke="#000000" d="M 179.9736328125 155.64 L 167.20999644886365 173" stroke-miterlimit="10"/></g><g transform="translate(-142,-110) scale(1,1)"><path fill="none" stroke="#000000" d="M 179.9736328125 155.64 L 192.73726917613635 173" stroke-miterlimit="10"/></g><g transform="translate(-142,-110) scale(1,1)"><g><path fill="none" stroke="none"/><text fill="#000000" stroke="none" font-family="Arial" font-size="13px" font-style="normal" font-weight="bold" text-decoration="none" x="156.858642578125" y="193.5">SOUAD</text></g></g><g transform="translate(-142,-110) scale(1,1)"><path fill="#C0C0C0" stroke="none" d="M 295 176 C 295 166.6111584 317.6096176 159 345.5 159 C 373.3903824 159 396 166.6111584 396 176 C 396 185.3888416 373.3903824 193 345.5 193 C 317.6096176 193 295 185.3888416 295 176 Z" opacity="0.2"/></g><g transform="translate(-142,-110) scale(1,1)"><path fill="#ffffff" stroke="none" d="M 288 169 C 288 159.6111584 310.6096176 152 338.5 152 C 366.3903824 152 389 159.6111584 389 169 C 389 178.3888416 366.3903824 186 338.5 186 C 310.6096176 186 288 178.3888416 288 169 Z"/></g><g transform="translate(-142,-110) scale(1,1)"><path fill="none" stroke="#000000" d="M 288 169 C 288 159.6111584 310.6096176 152 338.5 152 C 366.3903824 152 389 159.6111584 389 169 C 389 178.3888416 366.3903824 186 338.5 186 C 310.6096176 186 288 178.3888416 288 169 Z" stroke-miterlimit="10"/></g><g transform="translate(-142,-110) scale(1,1)"><g><path fill="none" stroke="none"/><text fill="#000000" stroke="none" font-family="Arial" font-size="13px" font-style="normal" font-weight="bold" text-decoration="none" x="314.420166015625" y="176">BATTLE</text></g></g><g transform="translate(-142,-110) scale(1,1)"><path fill="#ffffff" stroke="none" d="M 488.40935031960225 129.68 C 488.40935031960225 124.886167936 492.29519264454774 121 497.088623046875 121 C 501.88205344920226 121 505.76789577414775 124.886167936 505.76789577414775 129.68 C 505.76789577414775 134.47383206400002 501.88205344920226 138.36 497.088623046875 138.36 C 492.29519264454774 138.36 488.40935031960225 134.47383206400002 488.40935031960225 129.68 Z"/></g><g transform="translate(-142,-110) scale(1,1)"><path fill="none" stroke="#000000" d="M 488.40935031960225 129.68 C 488.40935031960225 124.886167936 492.29519264454774 121 497.088623046875 121 C 501.88205344920226 121 505.76789577414775 124.886167936 505.76789577414775 129.68 C 505.76789577414775 134.47383206400002 501.88205344920226 138.36 497.088623046875 138.36 C 492.29519264454774 138.36 488.40935031960225 134.47383206400002 488.40935031960225 129.68 Z" stroke-miterlimit="10"/></g><g transform="translate(-142,-110) scale(1,1)"><path fill="none" stroke="#000000" d="M 497.088623046875 138.36 L 497.088623046875 155.64" stroke-miterlimit="10"/></g><g transform="translate(-142,-110) scale(1,1)"><path fill="none" stroke="#000000" d="M 487.89880486505683 144.84 L 506.27844122869317 144.84" stroke-miterlimit="10"/></g><g transform="translate(-142,-110) scale(1,1)"><path fill="none" stroke="#000000" d="M 497.088623046875 155.64 L 484.32498668323865 173" stroke-miterlimit="10"/></g><g transform="translate(-142,-110) scale(1,1)"><path fill="none" stroke="#000000" d="M 497.088623046875 155.64 L 509.85225941051135 173" stroke-miterlimit="10"/></g><g transform="translate(-142,-110) scale(1,1)"><g><path fill="none" stroke="none"/><text fill="#000000" stroke="none" font-family="Arial" font-size="13px" font-style="normal" font-weight="bold" text-decoration="none" x="480.832275390625" y="193.5">JASS</text></g></g><g transform="translate(-142,-110) scale(1,1)"><path fill="none" stroke="#000000" d="M 209 161 L 287 166" stroke-miterlimit="10"/></g><g transform="translate(-142,-110) scale(1,1)"><path fill="none" stroke="#000000" d="M 390 166 L 471 161" stroke-miterlimit="10"/></g><g transform="translate(-142,-110) scale(1,1)"><path fill="#C0C0C0" stroke="none" d="M 271 272 C 271 262.6111584 296.743624 255 328.5 255 C 360.256376 255 386 262.6111584 386 272 C 386 281.3888416 360.256376 289 328.5 289 C 296.743624 289 271 281.3888416 271 272 Z" opacity="0.2"/></g><g transform="translate(-142,-110) scale(1,1)"><path fill="#ffffff" stroke="none" d="M 264 265 C 264 255.6111584 289.743624 248 321.5 248 C 353.256376 248 379 255.6111584 379 265 C 379 274.3888416 353.256376 282 321.5 282 C 289.743624 282 264 274.3888416 264 265 Z"/></g><g transform="translate(-142,-110) scale(1,1)"><path fill="none" stroke="#000000" d="M 264 265 C 264 255.6111584 289.743624 248 321.5 248 C 353.256376 248 379 255.6111584 379 265 C 379 274.3888416 353.256376 282 321.5 282 C 289.743624 282 264 274.3888416 264 265 Z" stroke-miterlimit="10"/></g><g transform="translate(-142,-110) scale(1,1)"><g><path fill="none" stroke="none"/><text fill="#000000" stroke="none" font-family="Arial" font-size="13px" font-style="normal" font-weight="bold" text-decoration="none" x="286.11181640625" y="272">DUNNIDOO</text></g></g><g transform="translate(-142,-110) scale(1,1)"><path fill="none" stroke="#000000" d="M 324 247 L 335 187" stroke-miterlimit="10"/></g><g transform="translate(-142,-110) scale(1,1)"><path fill="#FFFFFF" stroke="none" d="M 339.6157915385932 208.51033399257787 L 335 187 L 323.05375446574345 205.47396052922207"/></g><g transform="translate(-142,-110) scale(1,1)"><path fill="none" stroke="#000000" d="M 339.6157915385932 208.51033399257787 L 335 187 L 323.05375446574345 205.47396052922207 L 339.6157915385932 208.51033399257787" stroke-miterlimit="10"/></g><g transform="translate(-142,-110) scale(1,1)"><path fill="#ffffff" stroke="none" d="M 593.1266354758523 209.68 C 593.1266354758523 204.886167936 597.0124778007977 201 601.805908203125 201 C 606.5993386054523 201 610.4851809303977 204.886167936 610.4851809303977 209.68 C 610.4851809303977 214.47383206400002 606.5993386054523 218.36 601.805908203125 218.36 C 597.0124778007977 218.36 593.1266354758523 214.47383206400002 593.1266354758523 209.68 Z"/></g><g transform="translate(-142,-110) scale(1,1)"><path fill="none" stroke="#000000" d="M 593.1266354758523 209.68 C 593.1266354758523 204.886167936 597.0124778007977 201 601.805908203125 201 C 606.5993386054523 201 610.4851809303977 204.886167936 610.4851809303977 209.68 C 610.4851809303977 214.47383206400002 606.5993386054523 218.36 601.805908203125 218.36 C 597.0124778007977 218.36 593.1266354758523 214.47383206400002 593.1266354758523 209.68 Z" stroke-miterlimit="10"/></g><g transform="translate(-142,-110) scale(1,1)"><path fill="none" stroke="#000000" d="M 601.805908203125 218.36 L 601.805908203125 235.64" stroke-miterlimit="10"/></g><g transform="translate(-142,-110) scale(1,1)"><path fill="none" stroke="#000000" d="M 592.6160900213068 224.84 L 610.9957263849432 224.84" stroke-miterlimit="10"/></g><g transform="translate(-142,-110) scale(1,1)"><path fill="none" stroke="#000000" d="M 601.805908203125 235.64 L 589.0422718394886 253" stroke-miterlimit="10"/></g><g transform="translate(-142,-110) scale(1,1)"><path fill="none" stroke="#000000" d="M 601.805908203125 235.64 L 614.5695445667614 253" stroke-miterlimit="10"/></g><g transform="translate(-142,-110) scale(1,1)"><g><path fill="none" stroke="none"/><text fill="#000000" stroke="none" font-family="Arial" font-size="13px" font-style="normal" font-weight="bold" text-decoration="none" x="581.94091796875" y="273.5">NADIA</text></g></g><g transform="translate(-142,-110) scale(1,1)"><path fill="#C0C0C0" stroke="none" d="M 455 320 C 455 310.6111584 480.743624 303 512.5 303 C 544.256376 303 570 310.6111584 570 320 C 570 329.3888416 544.256376 337 512.5 337 C 480.743624 337 455 329.3888416 455 320 Z" opacity="0.2"/></g><g transform="translate(-142,-110) scale(1,1)"><path fill="#ffffff" stroke="none" d="M 448 313 C 448 303.6111584 473.743624 296 505.5 296 C 537.256376 296 563 303.6111584 563 313 C 563 322.3888416 537.256376 330 505.5 330 C 473.743624 330 448 322.3888416 448 313 Z"/></g><g transform="translate(-142,-110) scale(1,1)"><path fill="none" stroke="#000000" d="M 448 313 C 448 303.6111584 473.743624 296 505.5 296 C 537.256376 296 563 303.6111584 563 313 C 563 322.3888416 537.256376 330 505.5 330 C 473.743624 330 448 322.3888416 448 313 Z" stroke-miterlimit="10"/></g><g transform="translate(-142,-110) scale(1,1)"><g><path fill="none" stroke="none"/><text fill="#000000" stroke="none" font-family="Arial" font-size="13px" font-style="normal" font-weight="bold" text-decoration="none" x="470.09912109375" y="320">DESAPEAR</text></g></g><g transform="translate(-142,-110) scale(1,1)"><path fill="none" stroke="#000000" d="M 528 295 L 575 259" stroke-miterlimit="10"/></g><g transform="translate(-142,-110) scale(1,1)"><path fill="none" stroke="#000000" d="M 447 298 L 380 280" stroke-miterlimit="10" stroke-dasharray="3"/></g><g transform="translate(-142,-110) scale(1,1)"><path fill="none" stroke="#000000" d="M 390.90683873707695 278.571410218643 L 380 280 L 388.72246515422654 286.7021341103639" stroke-miterlimit="10"/></g><g transform="translate(-142,-110) scale(1,1)"><g><path fill="none" stroke="none"/><text fill="#000000" stroke="none" font-family="Arial" font-size="13px" font-style="normal" font-weight="normal" text-decoration="none" x="367.5" y="315.5">«extend»</text></g></g></g></svg>