<svg version="1.1" xmlns="http://www.w3.org/2000/svg" xmlns:xlink="http://www.w3.org/1999/xlink" width="1098.46142578125" height="777"><defs/><g><g transform="translate(-78,-36) scale(1,1)"><rect fill="#C0C0C0" stroke="none" x="551" y="53" width="176" height="147" opacity="0.2"/></g><g transform="translate(-78,-36) scale(1,1)"><rect fill="#ffffff" stroke="none" x="544" y="46" width="176" height="147"/></g><g transform="translate(-78,-36) scale(1,1)"><path fill="none" stroke="#000000" d="M 544 46 L 720 46 L 720 193 L 544 193 L 544 46 Z Z" stroke-miterlimit="10"/></g><g transform="translate(-78,-36) scale(1,1)"><path fill="none" stroke="#000000" d="M 544 71 L 720 71" stroke-miterlimit="10"/></g><g transform="translate(-78,-36) scale(1,1)"><path fill="none" stroke="#000000" d="M 544 184 L 720 184" stroke-miterlimit="10"/></g><g transform="translate(-78,-36) scale(1,1)"><g><path fill="none" stroke="none"/><text fill="#000000" stroke="none" font-family="Arial" font-size="13px" font-style="normal" font-weight="bold" text-decoration="none" x="611.766845703125" y="65.5">Recipe</text></g></g><g transform="translate(-78,-36) scale(1,1)"><g><path fill="none" stroke="none"/><text fill="#000000" stroke="none" font-family="Arial" font-size="13px" font-style="normal" font-weight="normal" text-decoration="none" x="549" y="88.5">-name: String</text></g></g><g transform="translate(-78,-36) scale(1,1)"><g><path fill="none" stroke="none"/><text fill="#000000" stroke="none" font-family="Arial" font-size="13px" font-style="normal" font-weight="normal" text-decoration="none" x="549" y="103.5">-price: int</text></g></g><g transform="translate(-78,-36) scale(1,1)"><g><path fill="none" stroke="none"/><text fill="#000000" stroke="none" font-family="Arial" font-size="13px" font-style="normal" font-weight="normal" text-decoration="none" x="549" y="118.5">-amtCoffe: int</text></g></g><g transform="translate(-78,-36) scale(1,1)"><g><path fill="none" stroke="none"/><text fill="#000000" stroke="none" font-family="Arial" font-size="13px" font-style="normal" font-weight="normal" text-decoration="none" x="549" y="133.5">-amtMilk: int</text></g></g><g transform="translate(-78,-36) scale(1,1)"><g><path fill="none" stroke="none"/><text fill="#000000" stroke="none" font-family="Arial" font-size="13px" font-style="normal" font-weight="normal" text-decoration="none" x="549" y="148.5">-amtSugar: int</text></g></g><g transform="translate(-78,-36) scale(1,1)"><g><path fill="none" stroke="none"/><text fill="#000000" stroke="none" font-family="Arial" font-size="13px" font-style="normal" font-weight="normal" text-decoration="none" x="549" y="163.5">-amtChocolate: int</text></g></g><g transform="translate(-78,-36) scale(1,1)"><g><path fill="none" stroke="none"/><text fill="#000000" stroke="none" font-family="Arial" font-size="13px" font-style="normal" font-weight="normal" text-decoration="none" x="549" y="178.5">+Attribute1</text></g></g><g transform="translate(-78,-36) scale(1,1)"><rect fill="#C0C0C0" stroke="none" x="935" y="165" width="238.46142578125" height="115" opacity="0.2"/></g><g transform="translate(-78,-36) scale(1,1)"><rect fill="#ffffff" stroke="none" x="928" y="158" width="238.46142578125" height="115"/></g><g transform="translate(-78,-36) scale(1,1)"><path fill="none" stroke="#000000" d="M 928 158 L 1166.46142578125 158 L 1166.46142578125 273 L 928 273 L 928 158 Z Z" stroke-miterlimit="10"/></g><g transform="translate(-78,-36) scale(1,1)"><path fill="none" stroke="#000000" d="M 928 183 L 1166.46142578125 183" stroke-miterlimit="10"/></g><g transform="translate(-78,-36) scale(1,1)"><path fill="none" stroke="#000000" d="M 928 251 L 1166.46142578125 251" stroke-miterlimit="10"/></g><g transform="translate(-78,-36) scale(1,1)"><g><path fill="none" stroke="none"/><text fill="#000000" stroke="none" font-family="Arial" font-size="13px" font-style="normal" font-weight="bold" text-decoration="none" x="1020.494384765625" y="177.5">Inventory</text></g></g><g transform="translate(-78,-36) scale(1,1)"><g><path fill="none" stroke="none"/><text fill="#000000" stroke="none" font-family="Arial" font-size="13px" font-style="normal" font-weight="normal" text-decoration="none" x="933" y="200.5">-coffe: int</text></g></g><g transform="translate(-78,-36) scale(1,1)"><g><path fill="none" stroke="none"/><text fill="#000000" stroke="none" font-family="Arial" font-size="13px" font-style="normal" font-weight="normal" text-decoration="none" x="933" y="215.5">-milk: int</text></g></g><g transform="translate(-78,-36) scale(1,1)"><g><path fill="none" stroke="none"/><text fill="#000000" stroke="none" font-family="Arial" font-size="13px" font-style="normal" font-weight="normal" text-decoration="none" x="933" y="230.5">-sugar: int</text></g></g><g transform="translate(-78,-36) scale(1,1)"><g><path fill="none" stroke="none"/><text fill="#000000" stroke="none" font-family="Arial" font-size="13px" font-style="normal" font-weight="normal" text-decoration="none" x="933" y="245.5">-chocolate: int</text></g></g><g transform="translate(-78,-36) scale(1,1)"><rect fill="#C0C0C0" stroke="none" x="399" y="605" width="447.216796875" height="205" opacity="0.2"/></g><g transform="translate(-78,-36) scale(1,1)"><rect fill="#ffffff" stroke="none" x="392" y="598" width="447.216796875" height="205"/></g><g transform="translate(-78,-36) scale(1,1)"><path fill="none" stroke="#000000" d="M 392 598 L 839.216796875 598 L 839.216796875 803 L 392 803 L 392 598 Z Z" stroke-miterlimit="10"/></g><g transform="translate(-78,-36) scale(1,1)"><path fill="none" stroke="#000000" d="M 392 623 L 839.216796875 623" stroke-miterlimit="10"/></g><g transform="translate(-78,-36) scale(1,1)"><path fill="none" stroke="#000000" d="M 392 691 L 839.216796875 691" stroke-miterlimit="10"/></g><g transform="translate(-78,-36) scale(1,1)"><g><path fill="none" stroke="none"/><text fill="#000000" stroke="none" font-family="Arial" font-size="13px" font-style="normal" font-weight="bold" text-decoration="none" x="582.130859375" y="617.5">CoffeMaker</text></g></g><g transform="translate(-78,-36) scale(1,1)"><g><path fill="none" stroke="none"/><text fill="#000000" stroke="none" font-family="Arial" font-size="13px" font-style="normal" font-weight="normal" text-decoration="none" x="397" y="640.5">-recipeArray: Recipe[]</text></g></g><g transform="translate(-78,-36) scale(1,1)"><g><path fill="none" stroke="none"/><text fill="#000000" stroke="none" font-family="Arial" font-size="13px" font-style="normal" font-weight="normal" text-decoration="none" x="397" y="655.5">-NUM_RECIPIES: int {readOnly}</text></g></g><g transform="translate(-78,-36) scale(1,1)"><g><path fill="none" stroke="none"/><text fill="#000000" stroke="none" font-family="Arial" font-size="13px" font-style="normal" font-weight="normal" text-decoration="none" x="397" y="670.5">-recipeFull: boolean[]</text></g></g><g transform="translate(-78,-36) scale(1,1)"><g><path fill="none" stroke="none"/><text fill="#000000" stroke="none" font-family="Arial" font-size="13px" font-style="normal" font-weight="normal" text-decoration="none" x="397" y="685.5">-inventory: Inventory</text></g></g><g transform="translate(-78,-36) scale(1,1)"><g><path fill="none" stroke="none"/><text fill="#000000" stroke="none" font-family="Arial" font-size="13px" font-style="normal" font-weight="normal" text-decoration="none" x="397" y="708.5">+addRecipe(r: Recipe): boolean</text></g></g><g transform="translate(-78,-36) scale(1,1)"><g><path fill="none" stroke="none"/><text fill="#000000" stroke="none" font-family="Arial" font-size="13px" font-style="normal" font-weight="normal" text-decoration="none" x="397" y="723.5">+deleteRecipe(r: Recipe): boolean</text></g></g><g transform="translate(-78,-36) scale(1,1)"><g><path fill="none" stroke="none"/><text fill="#000000" stroke="none" font-family="Arial" font-size="13px" font-style="normal" font-weight="normal" text-decoration="none" x="397" y="738.5">+editRecipe(oldRecipe: Recipe, newRecipe: Recipe)</text></g></g><g transform="translate(-78,-36) scale(1,1)"><g><path fill="none" stroke="none"/><text fill="#000000" stroke="none" font-family="Arial" font-size="13px" font-style="normal" font-weight="normal" text-decoration="none" x="397" y="753.5">+addInventory(amtCoffee: int, amtMilk: int, amtSugar: int, amtChocolate: int)</text></g></g><g transform="translate(-78,-36) scale(1,1)"><g><path fill="none" stroke="none"/><text fill="#000000" stroke="none" font-family="Arial" font-size="13px" font-style="normal" font-weight="normal" text-decoration="none" x="397" y="768.5">+checkInventory(): Inventory</text></g></g><g transform="translate(-78,-36) scale(1,1)"><g><path fill="none" stroke="none"/><text fill="#000000" stroke="none" font-family="Arial" font-size="13px" font-style="normal" font-weight="normal" text-decoration="none" x="397" y="783.5">+makeCoffee(r Recipe, amtPaid: int): int</text></g></g><g transform="translate(-78,-36) scale(1,1)"><path fill="#C0C0C0" stroke="none" d="M 615 301 C 615 287.7451648 625.7451648 277 639 277 C 652.2548352 277 663 287.7451648 663 301 C 663 314.2548352 652.2548352 325 639 325 C 625.7451648 325 615 314.2548352 615 301 Z" opacity="0.2"/></g><g transform="translate(-78,-36) scale(1,1)"><path fill="#ffffff" stroke="none" d="M 608 294 C 608 280.7451648 618.7451648 270 632 270 C 645.2548352 270 656 280.7451648 656 294 C 656 307.2548352 645.2548352 318 632 318 C 618.7451648 318 608 307.2548352 608 294 Z"/></g><g transform="translate(-78,-36) scale(1,1)"><path fill="none" stroke="#000000" d="M 608 294 C 608 280.7451648 618.7451648 270 632 270 C 645.2548352 270 656 280.7451648 656 294 C 656 307.2548352 645.2548352 318 632 318 C 618.7451648 318 608 307.2548352 608 294 Z" stroke-miterlimit="10"/></g><g transform="translate(-78,-36) scale(1,1)"><path fill="none" stroke="#000000" d="M 480 343 L 784 343" stroke-miterlimit="10"/></g><g transform="translate(-78,-36) scale(1,1)"><g><path fill="none" stroke="none"/><text fill="#000000" stroke="none" font-family="Arial" font-size="13px" font-style="normal" font-weight="bold" text-decoration="none" x="609.9609375" y="337.5">IRecipe</text></g></g><g transform="translate(-78,-36) scale(1,1)"><g><path fill="none" stroke="none"/><text fill="#000000" stroke="none" font-family="Arial" font-size="13px" font-style="normal" font-weight="normal" text-decoration="none" x="485" y="360.5">+equals(Recipe r): boolean</text></g></g><g transform="translate(-78,-36) scale(1,1)"><g><path fill="none" stroke="none"/><text fill="#000000" stroke="none" font-family="Arial" font-size="13px" font-style="normal" font-weight="normal" text-decoration="none" x="485" y="375.5">+setPrice(int price): void</text></g></g><g transform="translate(-78,-36) scale(1,1)"><g><path fill="none" stroke="none"/><text fill="#000000" stroke="none" font-family="Arial" font-size="13px" font-style="normal" font-weight="normal" text-decoration="none" x="485" y="390.5">+setName(String name): void</text></g></g><g transform="translate(-78,-36) scale(1,1)"><g><path fill="none" stroke="none"/><text fill="#000000" stroke="none" font-family="Arial" font-size="13px" font-style="normal" font-weight="normal" text-decoration="none" x="485" y="405.5">+getName(): String</text></g></g><g transform="translate(-78,-36) scale(1,1)"><g><path fill="none" stroke="none"/><text fill="#000000" stroke="none" font-family="Arial" font-size="13px" font-style="normal" font-weight="normal" text-decoration="none" x="485" y="420.5">+getAmtSugar(): int</text></g></g><g transform="translate(-78,-36) scale(1,1)"><g><path fill="none" stroke="none"/><text fill="#000000" stroke="none" font-family="Arial" font-size="13px" font-style="normal" font-weight="normal" text-decoration="none" x="485" y="435.5">+getAmtMilk(): int</text></g></g><g transform="translate(-78,-36) scale(1,1)"><g><path fill="none" stroke="none"/><text fill="#000000" stroke="none" font-family="Arial" font-size="13px" font-style="normal" font-weight="normal" text-decoration="none" x="485" y="450.5">+setAmtCoffee(int amtCoffee): int</text></g></g><g transform="translate(-78,-36) scale(1,1)"><g><path fill="none" stroke="none"/><text fill="#000000" stroke="none" font-family="Arial" font-size="13px" font-style="normal" font-weight="normal" text-decoration="none" x="485" y="465.5">+setAmtChocolate(int amtChocolate): void</text></g></g><g transform="translate(-78,-36) scale(1,1)"><g><path fill="none" stroke="none"/><text fill="#000000" stroke="none" font-family="Arial" font-size="13px" font-style="normal" font-weight="normal" text-decoration="none" x="485" y="480.5">+getAmtChocolate(): int</text></g></g><g transform="translate(-78,-36) scale(1,1)"><g><path fill="none" stroke="none"/><text fill="#000000" stroke="none" font-family="Arial" font-size="13px" font-style="normal" font-weight="normal" text-decoration="none" x="485" y="495.5">+equals(Recipe r): boolean</text></g></g><g transform="translate(-78,-36) scale(1,1)"><path fill="#C0C0C0" stroke="none" d="M 1024.03662109375 397 C 1024.03662109375 383.7451648 1034.78178589375 373 1048.03662109375 373 C 1061.29145629375 373 1072.03662109375 383.7451648 1072.03662109375 397 C 1072.03662109375 410.2548352 1061.29145629375 421 1048.03662109375 421 C 1034.78178589375 421 1024.03662109375 410.2548352 1024.03662109375 397 Z" opacity="0.2"/></g><g transform="translate(-78,-36) scale(1,1)"><path fill="#ffffff" stroke="none" d="M 1017.03662109375 390 C 1017.03662109375 376.7451648 1027.78178589375 366 1041.03662109375 366 C 1054.29145629375 366 1065.03662109375 376.7451648 1065.03662109375 390 C 1065.03662109375 403.2548352 1054.29145629375 414 1041.03662109375 414 C 1027.78178589375 414 1017.03662109375 403.2548352 1017.03662109375 390 Z"/></g><g transform="translate(-78,-36) scale(1,1)"><path fill="none" stroke="#000000" d="M 1017.03662109375 390 C 1017.03662109375 376.7451648 1027.78178589375 366 1041.03662109375 366 C 1054.29145629375 366 1065.03662109375 376.7451648 1065.03662109375 390 C 1065.03662109375 403.2548352 1054.29145629375 414 1041.03662109375 414 C 1027.78178589375 414 1017.03662109375 403.2548352 1017.03662109375 390 Z" stroke-miterlimit="10"/></g><g transform="translate(-78,-36) scale(1,1)"><path fill="none" stroke="#000000" d="M 920 439 L 1162.0732421875 439" stroke-miterlimit="10"/></g><g transform="translate(-78,-36) scale(1,1)"><g><path fill="none" stroke="none"/><text fill="#000000" stroke="none" font-family="Arial" font-size="13px" font-style="normal" font-weight="bold" text-decoration="none" x="1012.494384765625" y="433.5">IInventory</text></g></g><g transform="translate(-78,-36) scale(1,1)"><g><path fill="none" stroke="none"/><text fill="#000000" stroke="none" font-family="Arial" font-size="13px" font-style="normal" font-weight="normal" text-decoration="none" x="925" y="456.5">+enoughIngredients(r: IRecipe): boolean</text></g></g><g transform="translate(-78,-36) scale(1,1)"><path fill="none" stroke="#000000" d="M 768 597 L 968 463" stroke-miterlimit="10"/></g><g transform="translate(-78,-36) scale(1,1)"><path fill="none" stroke="#000000" d="M 961.9002392846061 472.15384723572214 L 968 463 L 957.2140703802048 465.15956528885454" stroke-miterlimit="10"/></g><g transform="translate(-78,-36) scale(1,1)"><path fill="none" stroke="#000000" d="M 621 597 L 626 502" stroke-miterlimit="10"/></g><g transform="translate(-78,-36) scale(1,1)"><path fill="none" stroke="#000000" d="M 629.6695611521266 512.3698756477985 L 626 502 L 621.2621621840278 511.92738096526693" stroke-miterlimit="10"/></g><g transform="translate(-78,-36) scale(1,1)"><path fill="none" stroke="#000000" d="M 632 194 L 632 269" stroke-miterlimit="10"/></g><g transform="translate(-78,-36) scale(1,1)"><path fill="#FFFFFF" stroke="none" d="M 623.580964487968 248.6746502847517 L 632 269 L 640.419035512032 248.6746502847517"/></g><g transform="translate(-78,-36) scale(1,1)"><path fill="none" stroke="#000000" d="M 623.580964487968 248.6746502847517 L 632 269 L 640.419035512032 248.6746502847517 L 623.580964487968 248.6746502847517" stroke-miterlimit="10"/></g><g transform="translate(-78,-36) scale(1,1)"><path fill="none" stroke="#000000" d="M 919 405 L 785 396" stroke-miterlimit="10"/></g><g transform="translate(-78,-36) scale(1,1)"><path fill="none" stroke="#000000" d="M 795.4219233239289 392.48097822823644 L 785 396 L 794.8577368133135 400.8810884973993" stroke-miterlimit="10"/></g><g transform="translate(-78,-36) scale(1,1)"><rect fill="#C0C0C0" stroke="none" x="103" y="149" width="247.1005859375" height="104" opacity="0.2"/></g><g transform="translate(-78,-36) scale(1,1)"><rect fill="#ffffff" stroke="none" x="96" y="142" width="247.1005859375" height="104"/></g><g transform="translate(-78,-36) scale(1,1)"><path fill="none" stroke="#000000" d="M 96 142 L 343.1005859375 142 L 343.1005859375 246 L 96 246 L 96 142 Z Z" stroke-miterlimit="10"/></g><g transform="translate(-78,-36) scale(1,1)"><path fill="none" stroke="#000000" d="M 96 167 L 343.1005859375 167" stroke-miterlimit="10"/></g><g transform="translate(-78,-36) scale(1,1)"><path fill="none" stroke="#000000" d="M 96 177 L 343.1005859375 177" stroke-miterlimit="10"/></g><g transform="translate(-78,-36) scale(1,1)"><g><path fill="none" stroke="none"/><text fill="#000000" stroke="none" font-family="Arial" font-size="13px" font-style="normal" font-weight="bold" text-decoration="none" x="186.431396484375" y="161.5">CoffeeDAO</text></g></g><g transform="translate(-78,-36) scale(1,1)"><g><path fill="none" stroke="none"/><text fill="#000000" stroke="none" font-family="Arial" font-size="13px" font-style="normal" font-weight="normal" text-decoration="none" x="101" y="194.5">+connect(): boolean</text></g></g><g transform="translate(-78,-36) scale(1,1)"><g><path fill="none" stroke="none"/><text fill="#000000" stroke="none" font-family="Arial" font-size="13px" font-style="normal" font-weight="normal" text-decoration="none" x="101" y="209.5">+saveIRecipes(Recipe [] recipe): boolean</text></g></g><g transform="translate(-78,-36) scale(1,1)"><g><path fill="none" stroke="none"/><text fill="#000000" stroke="none" font-family="Arial" font-size="13px" font-style="normal" font-weight="normal" text-decoration="none" x="101" y="224.5">+loadIRecipes(): Recipe</text></g></g><g transform="translate(-78,-36) scale(1,1)"><path fill="#C0C0C0" stroke="none" d="M 199.5 356.5 C 199.5 343.5213072 210.0213072 333 223 333 C 235.9786928 333 246.5 343.5213072 246.5 356.5 C 246.5 369.4786928 235.9786928 380 223 380 C 210.0213072 380 199.5 369.4786928 199.5 356.5 Z" opacity="0.2"/></g><g transform="translate(-78,-36) scale(1,1)"><path fill="#ffffff" stroke="none" d="M 192.5 349.5 C 192.5 336.5213072 203.0213072 326 216 326 C 228.9786928 326 239.5 336.5213072 239.5 349.5 C 239.5 362.4786928 228.9786928 373 216 373 C 203.0213072 373 192.5 362.4786928 192.5 349.5 Z"/></g><g transform="translate(-78,-36) scale(1,1)"><path fill="none" stroke="#000000" d="M 192.5 349.5 C 192.5 336.5213072 203.0213072 326 216 326 C 228.9786928 326 239.5 336.5213072 239.5 349.5 C 239.5 362.4786928 228.9786928 373 216 373 C 203.0213072 373 192.5 362.4786928 192.5 349.5 Z" stroke-miterlimit="10"/></g><g transform="translate(-78,-36) scale(1,1)"><path fill="none" stroke="#000000" d="M 88 398 L 344 398" stroke-miterlimit="10"/></g><g transform="translate(-78,-36) scale(1,1)"><g><path fill="none" stroke="none"/><text fill="#000000" stroke="none" font-family="Arial" font-size="13px" font-style="normal" font-weight="bold" text-decoration="none" x="181.0751953125" y="392.5">ICoffeeDAO</text></g></g><g transform="translate(-78,-36) scale(1,1)"><g><path fill="none" stroke="none"/><text fill="#000000" stroke="none" font-family="Arial" font-size="13px" font-style="normal" font-weight="normal" text-decoration="none" x="93" y="415.5">+connect(): boolean</text></g></g><g transform="translate(-78,-36) scale(1,1)"><g><path fill="none" stroke="none"/><text fill="#000000" stroke="none" font-family="Arial" font-size="13px" font-style="normal" font-weight="normal" text-decoration="none" x="93" y="430.5">+saveIRecipes(Recipe [] recipe): boolean</text></g></g><g transform="translate(-78,-36) scale(1,1)"><g><path fill="none" stroke="none"/><text fill="#000000" stroke="none" font-family="Arial" font-size="13px" font-style="normal" font-weight="normal" text-decoration="none" x="93" y="445.5">+loadIRecipes(): Recipe</text></g></g><g transform="translate(-78,-36) scale(1,1)"><path fill="none" stroke="#000000" d="M 483 597 L 298 452" stroke-miterlimit="10"/></g><g transform="translate(-78,-36) scale(1,1)"><path fill="none" stroke="#000000" d="M 308.595367675166 454.95604191919654 L 298 452 L 303.4018190457391 461.5822936188102" stroke-miterlimit="10"/></g><g transform="translate(-78,-36) scale(1,1)"><path fill="none" stroke="#000000" d="M 218 247 L 217 325" stroke-miterlimit="10"/></g><g transform="translate(-78,-36) scale(1,1)"><path fill="#FFFFFF" stroke="none" d="M 208.84221629632563 304.56839298919283 L 217 325 L 225.6789036915591 304.7842479557984"/></g><g transform="translate(-78,-36) scale(1,1)"><path fill="none" stroke="#000000" d="M 208.84221629632563 304.56839298919283 L 217 325 L 225.6789036915591 304.7842479557984 L 208.84221629632563 304.56839298919283" stroke-miterlimit="10"/></g><g transform="translate(-78,-36) scale(1,1)"><path fill="none" stroke="#000000" d="M 345 387 L 479 386" stroke-miterlimit="10"/></g><g transform="translate(-78,-36) scale(1,1)"><path fill="none" stroke="#000000" d="M 468.86902155571977 390.285239288713 L 479 386 L 468.80619468193873 381.86643820205074" stroke-miterlimit="10"/></g></g></svg>