<svg version="1.1" xmlns="http://www.w3.org/2000/svg" xmlns:xlink="http://www.w3.org/1999/xlink" width="780" height="1708"><defs/><g><g transform="translate(-6,-30) scale(1,1)"><path fill="none" stroke="#000000" d="M 16 40 L 776 40 L 776 1728 L 16 1728 L 16 40" stroke-miterlimit="10"/></g><g transform="translate(-6,-30) scale(1,1)"><path fill="#ffffff" stroke="none" d="M 16 40 L 16 62 L 149.06982421875 62 L 160.06982421875 51 L 160.06982421875 40 L 16 40"/></g><g transform="translate(-6,-30) scale(1,1)"><path fill="none" stroke="#000000" d="M 16 40 L 16 62 L 149.06982421875 62 L 160.06982421875 51 L 160.06982421875 40 L 16 40 L 16 40" stroke-miterlimit="10"/></g><g transform="translate(-6,-30) scale(1,1)"><g><path fill="none" stroke="none"/><text fill="#000000" stroke="none" font-family="Arial" font-size="13px" font-style="normal" font-weight="normal" text-decoration="none" x="86.97900390625" y="57.5">Exception</text></g></g><g transform="translate(-6,-30) scale(1,1)"><g><path fill="none" stroke="none"/><text fill="#000000" stroke="none" font-family="Arial" font-size="13px" font-style="normal" font-weight="bold" text-decoration="none" x="21" y="57.5">interaction</text></g></g><g transform="translate(-6,-30) scale(1,1)"><rect fill="#C0C0C0" stroke="none" x="279" y="47" width="104" height="39" opacity="0.2"/></g><g transform="translate(-6,-30) scale(1,1)"><rect fill="#ffffff" stroke="none" x="272" y="40" width="104" height="39"/></g><g transform="translate(-6,-30) scale(1,1)"><path fill="none" stroke="#000000" d="M 272 40 L 376 40 L 376 79 L 272 79 L 272 40 Z Z" stroke-miterlimit="10"/></g><g transform="translate(-6,-30) scale(1,1)"><g><path fill="none" stroke="none"/><text fill="#000000" stroke="none" font-family="Arial" font-size="13px" font-style="normal" font-weight="bold" text-decoration="none" x="292.201416015625" y="59.5">Application</text></g></g><g transform="translate(-6,-30) scale(1,1)"><path fill="none" stroke="#000000" d="M 325.5 80 L 325.5 1728" stroke-miterlimit="10" stroke-dasharray="3"/></g><g transform="translate(-6,-30) scale(1,1)"><rect fill="#C0C0C0" stroke="none" x="439" y="47" width="104" height="39" opacity="0.2"/></g><g transform="translate(-6,-30) scale(1,1)"><rect fill="#ffffff" stroke="none" x="432" y="40" width="104" height="39"/></g><g transform="translate(-6,-30) scale(1,1)"><path fill="none" stroke="#000000" d="M 432 40 L 536 40 L 536 79 L 432 79 L 432 40 Z Z" stroke-miterlimit="10"/></g><g transform="translate(-6,-30) scale(1,1)"><g><path fill="none" stroke="none"/><text fill="#000000" stroke="none" font-family="Arial" font-size="13px" font-style="normal" font-weight="bold" text-decoration="none" x="466.299560546875" y="59.5">BSCS</text></g></g><g transform="translate(-6,-30) scale(1,1)"><path fill="none" stroke="#000000" d="M 485.5 80 L 485.5 1728" stroke-miterlimit="10" stroke-dasharray="3"/></g><g transform="translate(-6,-30) scale(1,1)"><rect fill="#C0C0C0" stroke="none" x="639" y="47" width="104" height="39" opacity="0.2"/></g><g transform="translate(-6,-30) scale(1,1)"><rect fill="#ffffff" stroke="none" x="632" y="40" width="104" height="39"/></g><g transform="translate(-6,-30) scale(1,1)"><path fill="none" stroke="#000000" d="M 632 40 L 736 40 L 736 79 L 632 79 L 632 40 Z Z" stroke-miterlimit="10"/></g><g transform="translate(-6,-30) scale(1,1)"><g><path fill="none" stroke="none"/><text fill="#000000" stroke="none" font-family="Arial" font-size="13px" font-style="normal" font-weight="bold" text-decoration="none" x="670.273193359375" y="59.5">SOA</text></g></g><g transform="translate(-6,-30) scale(1,1)"><path fill="none" stroke="#000000" d="M 685.5 80 L 685.5 1728" stroke-miterlimit="10" stroke-dasharray="3"/></g><g transform="translate(-6,-30) scale(1,1)"><path fill="none" stroke="#000000" d="M 325 144 L 678 144" stroke-miterlimit="10"/></g><g transform="translate(-6,-30) scale(1,1)"><path fill="none" stroke="#000000" d="M 667.8373251423759 148.209517756016 L 678 144 L 667.8373251423758 139.790482243984" stroke-miterlimit="10"/></g><g transform="translate(-6,-30) scale(1,1)"><g><path fill="none" stroke="none"/><text fill="#000000" stroke="none" font-family="Arial" font-size="13px" font-style="normal" font-weight="normal" text-decoration="none" x="410.5" y="131.5">1 : InintierException(Compte)</text></g></g><g transform="translate(-6,-30) scale(1,1)"><rect fill="#ffffff" stroke="none" x="678" y="144" width="13" height="96"/></g><g transform="translate(-6,-30) scale(1,1)"><path fill="none" stroke="#000000" d="M 678 144 L 691 144 L 691 240 L 678 240 L 678 144 Z Z" stroke-miterlimit="10"/></g><g transform="translate(-6,-30) scale(1,1)"><path fill="none" stroke="#000000" d="M 691 168 L 721 168 L 721 188 L 698 188" stroke-miterlimit="10"/></g><g transform="translate(-6,-30) scale(1,1)"><path fill="#000000" stroke="none" d="M 708.1626748576241 183.790482243984 L 698 188 L 708.1626748576241 192.209517756016"/></g><g transform="translate(-6,-30) scale(1,1)"><path fill="none" stroke="#000000" d="M 708.1626748576241 183.790482243984 L 698 188 L 708.1626748576241 192.209517756016 L 708.1626748576241 183.790482243984" stroke-miterlimit="10"/></g><g transform="translate(-6,-30) scale(1,1)"><g><path fill="none" stroke="none"/><text fill="#000000" stroke="none" font-family="Arial" font-size="13px" font-style="normal" font-weight="normal" text-decoration="none" x="471.220458984375" y="187.5">2 : updateTableException(Compte)</text></g></g><g transform="translate(-6,-30) scale(1,1)"><rect fill="#ffffff" stroke="none" x="685" y="188" width="13" height="36"/></g><g transform="translate(-6,-30) scale(1,1)"><path fill="none" stroke="#000000" d="M 685 188 L 698 188 L 698 224 L 685 224 L 685 188 Z Z" stroke-miterlimit="10"/></g><g transform="translate(-6,-30) scale(1,1)"><rect fill="#ffffff" stroke="none" x="72" y="272" width="656" height="72"/></g><g transform="translate(-6,-30) scale(1,1)"><path fill="none" stroke="#000000" d="M 72 272 L 728 272 L 728 344 L 72 344 L 72 272 Z Z" stroke-miterlimit="10"/></g><g transform="translate(-6,-30) scale(1,1)"><path fill="none" stroke="#000000" d="M 72 272 L 72 294 L 97.1708984375 294 L 108.1708984375 283 L 108.1708984375 272 L 72 272 L 72 272" stroke-miterlimit="10"/></g><g transform="translate(-6,-30) scale(1,1)"><g><path fill="none" stroke="none"/><text fill="#000000" stroke="none" font-family="Arial" font-size="13px" font-style="normal" font-weight="normal" text-decoration="none" x="400" y="314.5"></text></g></g><g transform="translate(-6,-30) scale(1,1)"><g><path fill="none" stroke="none"/><text fill="#000000" stroke="none" font-family="Arial" font-size="13px" font-style="normal" font-weight="normal" text-decoration="none" x="77" y="289.5">ref</text></g></g><g transform="translate(-6,-30) scale(1,1)"><path fill="none" stroke="#000000" d="M 685 368 L 331 368" stroke-miterlimit="10"/></g><g transform="translate(-6,-30) scale(1,1)"><path fill="#000000" stroke="none" d="M 341.16267485762415 363.790482243984 L 331 368 L 341.16267485762415 372.209517756016"/></g><g transform="translate(-6,-30) scale(1,1)"><path fill="none" stroke="#000000" d="M 341.16267485762415 363.790482243984 L 331 368 L 341.16267485762415 372.209517756016 L 341.16267485762415 363.790482243984" stroke-miterlimit="10"/></g><g transform="translate(-6,-30) scale(1,1)"><g><path fill="none" stroke="none"/><text fill="#000000" stroke="none" font-family="Arial" font-size="13px" font-style="normal" font-weight="normal" text-decoration="none" x="394.982421875" y="384.5">3 : demandeValiderException(Compte)</text></g></g><g transform="translate(-6,-30) scale(1,1)"><rect fill="#ffffff" stroke="none" x="318" y="368" width="13" height="112"/></g><g transform="translate(-6,-30) scale(1,1)"><path fill="none" stroke="#000000" d="M 318 368 L 331 368 L 331 480 L 318 480 L 318 368 Z Z" stroke-miterlimit="10"/></g><g transform="translate(-6,-30) scale(1,1)"><path fill="none" stroke="#000000" d="M 331 472 L 685 472" stroke-miterlimit="10" stroke-dasharray="3"/></g><g transform="translate(-6,-30) scale(1,1)"><path fill="none" stroke="#000000" d="M 674.8373251423759 476.209517756016 L 685 472 L 674.8373251423758 467.790482243984" stroke-miterlimit="10"/></g><g transform="translate(-6,-30) scale(1,1)"><g><path fill="none" stroke="none"/><text fill="#000000" stroke="none" font-family="Arial" font-size="13px" font-style="normal" font-weight="normal" text-decoration="none" x="418.982421875" y="460.5">4 : Response = Validation(Compte)</text></g></g><g transform="translate(-6,-30) scale(1,1)"><path fill="none" stroke="#000000" d="M 685 584 L 715 584 L 715 604 L 691 604" stroke-miterlimit="10"/></g><g transform="translate(-6,-30) scale(1,1)"><path fill="#000000" stroke="none" d="M 701.1626748576241 599.790482243984 L 691 604 L 701.1626748576241 608.209517756016"/></g><g transform="translate(-6,-30) scale(1,1)"><path fill="none" stroke="#000000" d="M 701.1626748576241 599.790482243984 L 691 604 L 701.1626748576241 608.209517756016 L 701.1626748576241 599.790482243984" stroke-miterlimit="10"/></g><g transform="translate(-6,-30) scale(1,1)"><g><path fill="none" stroke="none"/><text fill="#000000" stroke="none" font-family="Arial" font-size="13px" font-style="normal" font-weight="normal" text-decoration="none" x="483.982421875" y="597.5">5 : setExceptionStatus("Validée")</text></g></g><g transform="translate(-6,-30) scale(1,1)"><rect fill="#ffffff" stroke="none" x="678" y="604" width="13" height="28"/></g><g transform="translate(-6,-30) scale(1,1)"><path fill="none" stroke="#000000" d="M 678 604 L 691 604 L 691 632 L 678 632 L 678 604 Z Z" stroke-miterlimit="10"/></g><g transform="translate(-6,-30) scale(1,1)"><path fill="none" stroke="#000000" d="M 685 640 L 715 640 L 715 660 L 691 660" stroke-miterlimit="10"/></g><g transform="translate(-6,-30) scale(1,1)"><path fill="#000000" stroke="none" d="M 701.1626748576241 655.790482243984 L 691 660 L 701.1626748576241 664.209517756016"/></g><g transform="translate(-6,-30) scale(1,1)"><path fill="none" stroke="#000000" d="M 701.1626748576241 655.790482243984 L 691 660 L 701.1626748576241 664.209517756016 L 701.1626748576241 655.790482243984" stroke-miterlimit="10"/></g><g transform="translate(-6,-30) scale(1,1)"><g><path fill="none" stroke="none"/><text fill="#000000" stroke="none" font-family="Arial" font-size="13px" font-style="normal" font-weight="normal" text-decoration="none" x="471.220458984375" y="653.5">6 : updateTablePlanification(Compte)</text></g></g><g transform="translate(-6,-30) scale(1,1)"><rect fill="#ffffff" stroke="none" x="678" y="660" width="13" height="28"/></g><g transform="translate(-6,-30) scale(1,1)"><path fill="none" stroke="#000000" d="M 678 660 L 691 660 L 691 688 L 678 688 L 678 660 Z Z" stroke-miterlimit="10"/></g><g transform="translate(-6,-30) scale(1,1)"><path fill="none" stroke="#000000" d="M 685 704 L 715 704 L 715 724 L 691 724" stroke-miterlimit="10"/></g><g transform="translate(-6,-30) scale(1,1)"><path fill="#000000" stroke="none" d="M 701.1626748576241 719.790482243984 L 691 724 L 701.1626748576241 728.209517756016"/></g><g transform="translate(-6,-30) scale(1,1)"><path fill="none" stroke="#000000" d="M 701.1626748576241 719.790482243984 L 691 724 L 701.1626748576241 728.209517756016 L 701.1626748576241 719.790482243984" stroke-miterlimit="10"/></g><g transform="translate(-6,-30) scale(1,1)"><g><path fill="none" stroke="none"/><text fill="#000000" stroke="none" font-family="Arial" font-size="13px" font-style="normal" font-weight="normal" text-decoration="none" x="486.5" y="716.5">7 : setClientStatus("Exception")</text></g></g><g transform="translate(-6,-30) scale(1,1)"><rect fill="#ffffff" stroke="none" x="678" y="724" width="13" height="28"/></g><g transform="translate(-6,-30) scale(1,1)"><path fill="none" stroke="#000000" d="M 678 724 L 691 724 L 691 752 L 678 752 L 678 724 Z Z" stroke-miterlimit="10"/></g><g transform="translate(-6,-30) scale(1,1)"><path fill="none" stroke="#000000" d="M 685 808 L 715 808 L 715 828 L 691 828" stroke-miterlimit="10"/></g><g transform="translate(-6,-30) scale(1,1)"><path fill="#000000" stroke="none" d="M 701.1626748576241 823.790482243984 L 691 828 L 701.1626748576241 832.209517756016"/></g><g transform="translate(-6,-30) scale(1,1)"><path fill="none" stroke="#000000" d="M 701.1626748576241 823.790482243984 L 691 828 L 701.1626748576241 832.209517756016 L 701.1626748576241 823.790482243984" stroke-miterlimit="10"/></g><g transform="translate(-6,-30) scale(1,1)"><g><path fill="none" stroke="none"/><text fill="#000000" stroke="none" font-family="Arial" font-size="13px" font-style="normal" font-weight="normal" text-decoration="none" x="485.5" y="827.5">8 : setExceptionStatus("Rejetée")</text></g></g><g transform="translate(-6,-30) scale(1,1)"><rect fill="#ffffff" stroke="none" x="678" y="828" width="13" height="28"/></g><g transform="translate(-6,-30) scale(1,1)"><path fill="none" stroke="#000000" d="M 678 828 L 691 828 L 691 856 L 678 856 L 678 828 Z Z" stroke-miterlimit="10"/></g><g transform="translate(-6,-30) scale(1,1)"><rect fill="#ffffff" stroke="none" x="72" y="896" width="664" height="72"/></g><g transform="translate(-6,-30) scale(1,1)"><path fill="none" stroke="#000000" d="M 72 896 L 736 896 L 736 968 L 72 968 L 72 896 Z Z" stroke-miterlimit="10"/></g><g transform="translate(-6,-30) scale(1,1)"><path fill="none" stroke="#000000" d="M 72 896 L 72 918 L 97.1708984375 918 L 108.1708984375 907 L 108.1708984375 896 L 72 896 L 72 896" stroke-miterlimit="10"/></g><g transform="translate(-6,-30) scale(1,1)"><g><path fill="none" stroke="none"/><text fill="#000000" stroke="none" font-family="Arial" font-size="13px" font-style="normal" font-weight="normal" text-decoration="none" x="404" y="938.5"></text></g></g><g transform="translate(-6,-30) scale(1,1)"><g><path fill="none" stroke="none"/><text fill="#000000" stroke="none" font-family="Arial" font-size="13px" font-style="normal" font-weight="normal" text-decoration="none" x="77" y="913.5">ref</text></g></g><g transform="translate(-6,-30) scale(1,1)"><path fill="none" stroke="#000000" d="M 325 1033 L 678 1033" stroke-miterlimit="10"/></g><g transform="translate(-6,-30) scale(1,1)"><path fill="none" stroke="#000000" d="M 667.8373251423759 1037.2095177560159 L 678 1033 L 667.8373251423758 1028.7904822439841" stroke-miterlimit="10"/></g><g transform="translate(-6,-30) scale(1,1)"><g><path fill="none" stroke="none"/><text fill="#000000" stroke="none" font-family="Arial" font-size="13px" font-style="normal" font-weight="normal" text-decoration="none" x="385.5" y="1029.5">9 : InterompreException(Compte , Motif)</text></g></g><g transform="translate(-6,-30) scale(1,1)"><rect fill="#ffffff" stroke="none" x="678" y="1033" width="13" height="231"/></g><g transform="translate(-6,-30) scale(1,1)"><path fill="none" stroke="#000000" d="M 678 1033 L 691 1033 L 691 1264 L 678 1264 L 678 1033 Z Z" stroke-miterlimit="10"/></g><g transform="translate(-6,-30) scale(1,1)"><path fill="none" stroke="#000000" d="M 691 1048 L 721 1048 L 721 1068 L 698 1068" stroke-miterlimit="10"/></g><g transform="translate(-6,-30) scale(1,1)"><path fill="#000000" stroke="none" d="M 708.1626748576241 1063.7904822439841 L 698 1068 L 708.1626748576241 1072.2095177560159"/></g><g transform="translate(-6,-30) scale(1,1)"><path fill="none" stroke="#000000" d="M 708.1626748576241 1063.7904822439841 L 698 1068 L 708.1626748576241 1072.2095177560159 L 708.1626748576241 1063.7904822439841" stroke-miterlimit="10"/></g><g transform="translate(-6,-30) scale(1,1)"><g><path fill="none" stroke="none"/><text fill="#000000" stroke="none" font-family="Arial" font-size="13px" font-style="normal" font-weight="normal" text-decoration="none" x="446.5" y="1062.5">10 : setExceptionStatus("Interompue")</text></g></g><g transform="translate(-6,-30) scale(1,1)"><rect fill="#ffffff" stroke="none" x="685" y="1068" width="13" height="28"/></g><g transform="translate(-6,-30) scale(1,1)"><path fill="none" stroke="#000000" d="M 685 1068 L 698 1068 L 698 1096 L 685 1096 L 685 1068 Z Z" stroke-miterlimit="10"/></g><g transform="translate(-6,-30) scale(1,1)"><path fill="none" stroke="#000000" d="M 691 1104 L 721 1104 L 721 1124 L 698 1124" stroke-miterlimit="10"/></g><g transform="translate(-6,-30) scale(1,1)"><path fill="#000000" stroke="none" d="M 708.1626748576241 1119.7904822439841 L 698 1124 L 708.1626748576241 1128.2095177560159"/></g><g transform="translate(-6,-30) scale(1,1)"><path fill="none" stroke="#000000" d="M 708.1626748576241 1119.7904822439841 L 698 1124 L 708.1626748576241 1128.2095177560159 L 708.1626748576241 1119.7904822439841" stroke-miterlimit="10"/></g><g transform="translate(-6,-30) scale(1,1)"><g><path fill="none" stroke="none"/><text fill="#000000" stroke="none" font-family="Arial" font-size="13px" font-style="normal" font-weight="normal" text-decoration="none" x="465.982421875" y="1118.5">11 : setClientStatus("In Process")</text></g></g><g transform="translate(-6,-30) scale(1,1)"><rect fill="#ffffff" stroke="none" x="685" y="1124" width="13" height="28"/></g><g transform="translate(-6,-30) scale(1,1)"><path fill="none" stroke="#000000" d="M 685 1124 L 698 1124 L 698 1152 L 685 1152 L 685 1124 Z Z" stroke-miterlimit="10"/></g><g transform="translate(-6,-30) scale(1,1)"><path fill="none" stroke="#000000" d="M 691 1168 L 721 1168 L 721 1188 L 698 1188" stroke-miterlimit="10"/></g><g transform="translate(-6,-30) scale(1,1)"><path fill="#000000" stroke="none" d="M 708.1626748576241 1183.7904822439841 L 698 1188 L 708.1626748576241 1192.2095177560159"/></g><g transform="translate(-6,-30) scale(1,1)"><path fill="none" stroke="#000000" d="M 708.1626748576241 1183.7904822439841 L 698 1188 L 708.1626748576241 1192.2095177560159 L 708.1626748576241 1183.7904822439841" stroke-miterlimit="10"/></g><g transform="translate(-6,-30) scale(1,1)"><g><path fill="none" stroke="none"/><text fill="#000000" stroke="none" font-family="Arial" font-size="13px" font-style="normal" font-weight="normal" text-decoration="none" x="486.5" y="1187.5">12 : repriseDunning(Compore)</text></g></g><g transform="translate(-6,-30) scale(1,1)"><rect fill="#ffffff" stroke="none" x="685" y="1188" width="13" height="28"/></g><g transform="translate(-6,-30) scale(1,1)"><path fill="none" stroke="#000000" d="M 685 1188 L 698 1188 L 698 1216 L 685 1216 L 685 1188 Z Z" stroke-miterlimit="10"/></g><g transform="translate(-6,-30) scale(1,1)"><rect fill="#ffffff" stroke="none" x="96" y="1272" width="616" height="72"/></g><g transform="translate(-6,-30) scale(1,1)"><path fill="none" stroke="#000000" d="M 96 1272 L 712 1272 L 712 1344 L 96 1344 L 96 1272 Z Z" stroke-miterlimit="10"/></g><g transform="translate(-6,-30) scale(1,1)"><path fill="none" stroke="#000000" d="M 96 1272 L 96 1294 L 121.1708984375 1294 L 132.1708984375 1283 L 132.1708984375 1272 L 96 1272 L 96 1272" stroke-miterlimit="10"/></g><g transform="translate(-6,-30) scale(1,1)"><g><path fill="none" stroke="none"/><text fill="#000000" stroke="none" font-family="Arial" font-size="13px" font-style="normal" font-weight="normal" text-decoration="none" x="404" y="1314.5"></text></g></g><g transform="translate(-6,-30) scale(1,1)"><g><path fill="none" stroke="none"/><text fill="#000000" stroke="none" font-family="Arial" font-size="13px" font-style="normal" font-weight="normal" text-decoration="none" x="101" y="1289.5">ref</text></g></g><g transform="translate(-6,-30) scale(1,1)"><path fill="none" stroke="#000000" d="M 325 1440 L 678 1440" stroke-miterlimit="10"/></g><g transform="translate(-6,-30) scale(1,1)"><path fill="none" stroke="#000000" d="M 667.8373251423759 1444.2095177560159 L 678 1440 L 667.8373251423758 1435.7904822439841" stroke-miterlimit="10"/></g><g transform="translate(-6,-30) scale(1,1)"><g><path fill="none" stroke="none"/><text fill="#000000" stroke="none" font-family="Arial" font-size="13px" font-style="normal" font-weight="normal" text-decoration="none" x="523.5" y="1436.5">13 : payedAmount</text></g></g><g transform="translate(-6,-30) scale(1,1)"><rect fill="#ffffff" stroke="none" x="678" y="1440" width="13" height="192"/></g><g transform="translate(-6,-30) scale(1,1)"><path fill="none" stroke="#000000" d="M 678 1440 L 691 1440 L 691 1632 L 678 1632 L 678 1440 Z Z" stroke-miterlimit="10"/></g><g transform="translate(-6,-30) scale(1,1)"><path fill="none" stroke="#000000" d="M 691 1456 L 721 1456 L 721 1476 L 698 1476" stroke-miterlimit="10"/></g><g transform="translate(-6,-30) scale(1,1)"><path fill="#000000" stroke="none" d="M 708.1626748576241 1471.7904822439841 L 698 1476 L 708.1626748576241 1480.2095177560159"/></g><g transform="translate(-6,-30) scale(1,1)"><path fill="none" stroke="#000000" d="M 708.1626748576241 1471.7904822439841 L 698 1476 L 708.1626748576241 1480.2095177560159 L 708.1626748576241 1471.7904822439841" stroke-miterlimit="10"/></g><g transform="translate(-6,-30) scale(1,1)"><g><path fill="none" stroke="none"/><text fill="#000000" stroke="none" font-family="Arial" font-size="13px" font-style="normal" font-weight="normal" text-decoration="none" x="463.5" y="1467.5">14 : setExceptionStatus("Cloturée")</text></g></g><g transform="translate(-6,-30) scale(1,1)"><rect fill="#ffffff" stroke="none" x="685" y="1476" width="13" height="28"/></g><g transform="translate(-6,-30) scale(1,1)"><path fill="none" stroke="#000000" d="M 685 1476 L 698 1476 L 698 1504 L 685 1504 L 685 1476 Z Z" stroke-miterlimit="10"/></g><g transform="translate(-6,-30) scale(1,1)"><path fill="none" stroke="#000000" d="M 691 1512 L 721 1512 L 721 1532 L 698 1532" stroke-miterlimit="10"/></g><g transform="translate(-6,-30) scale(1,1)"><path fill="#000000" stroke="none" d="M 708.1626748576241 1527.7904822439841 L 698 1532 L 708.1626748576241 1536.2095177560159"/></g><g transform="translate(-6,-30) scale(1,1)"><path fill="none" stroke="#000000" d="M 708.1626748576241 1527.7904822439841 L 698 1532 L 708.1626748576241 1536.2095177560159 L 708.1626748576241 1527.7904822439841" stroke-miterlimit="10"/></g><g transform="translate(-6,-30) scale(1,1)"><g><path fill="none" stroke="none"/><text fill="#000000" stroke="none" font-family="Arial" font-size="13px" font-style="normal" font-weight="normal" text-decoration="none" x="495.5" y="1523.5">15 : setClientStatus("paid")</text></g></g><g transform="translate(-6,-30) scale(1,1)"><rect fill="#ffffff" stroke="none" x="685" y="1532" width="13" height="28"/></g><g transform="translate(-6,-30) scale(1,1)"><path fill="none" stroke="#000000" d="M 685 1532 L 698 1532 L 698 1560 L 685 1560 L 685 1532 Z Z" stroke-miterlimit="10"/></g><g transform="translate(-6,-30) scale(1,1)"><path fill="none" stroke="#000000" d="M 691 1568 L 721 1568 L 721 1588 L 698 1588" stroke-miterlimit="10"/></g><g transform="translate(-6,-30) scale(1,1)"><path fill="#000000" stroke="none" d="M 708.1626748576241 1583.7904822439841 L 698 1588 L 708.1626748576241 1592.2095177560159"/></g><g transform="translate(-6,-30) scale(1,1)"><path fill="none" stroke="#000000" d="M 708.1626748576241 1583.7904822439841 L 698 1588 L 708.1626748576241 1592.2095177560159 L 708.1626748576241 1583.7904822439841" stroke-miterlimit="10"/></g><g transform="translate(-6,-30) scale(1,1)"><g><path fill="none" stroke="none"/><text fill="#000000" stroke="none" font-family="Arial" font-size="13px" font-style="normal" font-weight="normal" text-decoration="none" x="479.5" y="1582.5">16 : fermetureDunning(Compte)</text></g></g><g transform="translate(-6,-30) scale(1,1)"><rect fill="#ffffff" stroke="none" x="685" y="1588" width="13" height="28"/></g><g transform="translate(-6,-30) scale(1,1)"><path fill="none" stroke="#000000" d="M 685 1588 L 698 1588 L 698 1616 L 685 1616 L 685 1588 Z Z" stroke-miterlimit="10"/></g><g transform="translate(-6,-30) scale(1,1)"><path fill="none" stroke="#000000" d="M 685 1648 L 331 1648" stroke-miterlimit="10"/></g><g transform="translate(-6,-30) scale(1,1)"><path fill="#000000" stroke="none" d="M 341.16267485762415 1643.7904822439841 L 331 1648 L 341.16267485762415 1652.2095177560159"/></g><g transform="translate(-6,-30) scale(1,1)"><path fill="none" stroke="#000000" d="M 341.16267485762415 1643.7904822439841 L 331 1648 L 341.16267485762415 1652.2095177560159 L 341.16267485762415 1643.7904822439841" stroke-miterlimit="10"/></g><g transform="translate(-6,-30) scale(1,1)"><g><path fill="none" stroke="none"/><text fill="#000000" stroke="none" font-family="Arial" font-size="13px" font-style="normal" font-weight="normal" text-decoration="none" x="413.5" y="1664.5">17 : NotifierIntevenants(Compte)</text></g></g><g transform="translate(-6,-30) scale(1,1)"><rect fill="#ffffff" stroke="none" x="318" y="1648" width="13" height="28"/></g><g transform="translate(-6,-30) scale(1,1)"><path fill="none" stroke="#000000" d="M 318 1648 L 331 1648 L 331 1676 L 318 1676 L 318 1648 Z Z" stroke-miterlimit="10"/></g><g transform="translate(-6,-30) scale(1,1)"><path fill="none" stroke="#000000" d="M 48 112 L 760 112 L 760 1696 L 48 1696 L 48 112" stroke-miterlimit="10"/></g><g transform="translate(-6,-30) scale(1,1)"><path fill="#ffffff" stroke="none" d="M 48 112 L 48 134 L 90.0126953125 134 L 101.0126953125 123 L 101.0126953125 112 L 48 112"/></g><g transform="translate(-6,-30) scale(1,1)"><path fill="none" stroke="#000000" d="M 48 112 L 48 134 L 90.0126953125 134 L 101.0126953125 123 L 101.0126953125 112 L 48 112 L 48 112" stroke-miterlimit="10"/></g><g transform="translate(-6,-30) scale(1,1)"><g><path fill="none" stroke="none"/><text fill="#000000" stroke="none" font-family="Arial" font-size="13px" font-style="normal" font-weight="normal" text-decoration="none" x="77.7890625" y="129.5">[]</text></g></g><g transform="translate(-6,-30) scale(1,1)"><g><path fill="none" stroke="none"/><text fill="#000000" stroke="none" font-family="Arial" font-size="13px" font-style="normal" font-weight="bold" text-decoration="none" x="53" y="129.5">par</text></g></g><g transform="translate(-6,-30) scale(1,1)"><path fill="none" stroke="#000000" d="M 48 993 L 760 993" stroke-miterlimit="10" stroke-dasharray="10,3"/></g><g transform="translate(-6,-30) scale(1,1)"><path fill="none" stroke="#000000" d="M 48 1401 L 760 1401" stroke-miterlimit="10" stroke-dasharray="10,3"/></g><g transform="translate(-6,-30) scale(1,1)"><path fill="none" stroke="#000000" d="M 72 400 L 728 400 L 728 536 L 72 536 L 72 400" stroke-miterlimit="10"/></g><g transform="translate(-6,-30) scale(1,1)"><path fill="#ffffff" stroke="none" d="M 72 400 L 72 422 L 279.724609375 422 L 290.724609375 411 L 290.724609375 400 L 72 400"/></g><g transform="translate(-6,-30) scale(1,1)"><path fill="none" stroke="#000000" d="M 72 400 L 72 422 L 279.724609375 422 L 290.724609375 411 L 290.724609375 400 L 72 400 L 72 400" stroke-miterlimit="10"/></g><g transform="translate(-6,-30) scale(1,1)"><g><path fill="none" stroke="none"/><text fill="#000000" stroke="none" font-family="Arial" font-size="13px" font-style="normal" font-weight="normal" text-decoration="none" x="107.578125" y="417.5">[answerTime lowerThan 48h]</text></g></g><g transform="translate(-6,-30) scale(1,1)"><g><path fill="none" stroke="none"/><text fill="#000000" stroke="none" font-family="Arial" font-size="13px" font-style="normal" font-weight="bold" text-decoration="none" x="77" y="417.5">loop</text></g></g><g transform="translate(-6,-30) scale(1,1)"><path fill="none" stroke="#000000" d="M 80 432 L 712 432 L 712 520 L 80 520 L 80 432" stroke-miterlimit="10"/></g><g transform="translate(-6,-30) scale(1,1)"><path fill="#ffffff" stroke="none" d="M 80 432 L 80 454 L 124.9072265625 454 L 135.9072265625 443 L 135.9072265625 432 L 80 432"/></g><g transform="translate(-6,-30) scale(1,1)"><path fill="none" stroke="#000000" d="M 80 432 L 80 454 L 124.9072265625 454 L 135.9072265625 443 L 135.9072265625 432 L 80 432 L 80 432" stroke-miterlimit="10"/></g><g transform="translate(-6,-30) scale(1,1)"><g><path fill="none" stroke="none"/><text fill="#000000" stroke="none" font-family="Arial" font-size="13px" font-style="normal" font-weight="normal" text-decoration="none" x="109.07177734375" y="449.5">[ ]</text></g></g><g transform="translate(-6,-30) scale(1,1)"><g><path fill="none" stroke="none"/><text fill="#000000" stroke="none" font-family="Arial" font-size="13px" font-style="normal" font-weight="bold" text-decoration="none" x="85" y="449.5">opt</text></g></g><g transform="translate(-6,-30) scale(1,1)"><path fill="none" stroke="#000000" d="M 144 440 L 696 440 L 696 505 L 144 505 L 144 440" stroke-miterlimit="10"/></g><g transform="translate(-6,-30) scale(1,1)"><path fill="#ffffff" stroke="none" d="M 144 440 L 144 462 L 203.3544921875 462 L 214.3544921875 451 L 214.3544921875 440 L 144 440"/></g><g transform="translate(-6,-30) scale(1,1)"><path fill="none" stroke="#000000" d="M 144 440 L 144 462 L 203.3544921875 462 L 214.3544921875 451 L 214.3544921875 440 L 144 440 L 144 440" stroke-miterlimit="10"/></g><g transform="translate(-6,-30) scale(1,1)"><g><path fill="none" stroke="none"/><text fill="#000000" stroke="none" font-family="Arial" font-size="13px" font-style="normal" font-weight="normal" text-decoration="none" x="187.51904296875" y="457.5">[ ]</text></g></g><g transform="translate(-6,-30) scale(1,1)"><g><path fill="none" stroke="none"/><text fill="#000000" stroke="none" font-family="Arial" font-size="13px" font-style="normal" font-weight="bold" text-decoration="none" x="149" y="457.5">break</text></g></g><g transform="translate(-6,-30) scale(1,1)"><path fill="none" stroke="#000000" d="M 72 560 L 736 560 L 736 880 L 72 880 L 72 560" stroke-miterlimit="10"/></g><g transform="translate(-6,-30) scale(1,1)"><path fill="#ffffff" stroke="none" d="M 72 560 L 72 582 L 199.2744140625 582 L 210.2744140625 571 L 210.2744140625 560 L 72 560"/></g><g transform="translate(-6,-30) scale(1,1)"><path fill="none" stroke="#000000" d="M 72 560 L 72 582 L 199.2744140625 582 L 210.2744140625 571 L 210.2744140625 560 L 72 560 L 72 560" stroke-miterlimit="10"/></g><g transform="translate(-6,-30) scale(1,1)"><g><path fill="none" stroke="none"/><text fill="#000000" stroke="none" font-family="Arial" font-size="13px" font-style="normal" font-weight="normal" text-decoration="none" x="96.72998046875" y="577.5">[Respons is true]</text></g></g><g transform="translate(-6,-30) scale(1,1)"><g><path fill="none" stroke="none"/><text fill="#000000" stroke="none" font-family="Arial" font-size="13px" font-style="normal" font-weight="bold" text-decoration="none" x="77" y="577.5">alt</text></g></g><g transform="translate(-6,-30) scale(1,1)"><path fill="none" stroke="#000000" d="M 72 777 L 736 777" stroke-miterlimit="10" stroke-dasharray="10,3"/></g><g transform="translate(-6,-30) scale(1,1)"><g><path fill="none" stroke="none"/><text fill="#000000" stroke="none" font-family="Arial" font-size="13px" font-style="normal" font-weight="normal" text-decoration="none" x="91.5" y="804.5">[[Response is false]]</text></g></g><g transform="translate(-6,-30) scale(1,1)"><path fill="none" stroke="#000000" d="M 72 1008 L 736 1008 L 736 1368 L 72 1368 L 72 1008" stroke-miterlimit="10"/></g><g transform="translate(-6,-30) scale(1,1)"><path fill="#ffffff" stroke="none" d="M 72 1008 L 72 1030 L 131.3544921875 1030 L 142.3544921875 1019 L 142.3544921875 1008 L 72 1008"/></g><g transform="translate(-6,-30) scale(1,1)"><path fill="none" stroke="#000000" d="M 72 1008 L 72 1030 L 131.3544921875 1030 L 142.3544921875 1019 L 142.3544921875 1008 L 72 1008 L 72 1008" stroke-miterlimit="10"/></g><g transform="translate(-6,-30) scale(1,1)"><g><path fill="none" stroke="none"/><text fill="#000000" stroke="none" font-family="Arial" font-size="13px" font-style="normal" font-weight="normal" text-decoration="none" x="115.51904296875" y="1025.5">[ ]</text></g></g><g transform="translate(-6,-30) scale(1,1)"><g><path fill="none" stroke="none"/><text fill="#000000" stroke="none" font-family="Arial" font-size="13px" font-style="normal" font-weight="bold" text-decoration="none" x="77" y="1025.5">break</text></g></g><g transform="translate(-6,-30) scale(1,1)"><path fill="none" stroke="#000000" d="M 72 1416 L 736 1416 L 736 1680 L 72 1680 L 72 1416" stroke-miterlimit="10"/></g><g transform="translate(-6,-30) scale(1,1)"><path fill="#ffffff" stroke="none" d="M 72 1416 L 72 1438 L 131.3544921875 1438 L 142.3544921875 1427 L 142.3544921875 1416 L 72 1416"/></g><g transform="translate(-6,-30) scale(1,1)"><path fill="none" stroke="#000000" d="M 72 1416 L 72 1438 L 131.3544921875 1438 L 142.3544921875 1427 L 142.3544921875 1416 L 72 1416 L 72 1416" stroke-miterlimit="10"/></g><g transform="translate(-6,-30) scale(1,1)"><g><path fill="none" stroke="none"/><text fill="#000000" stroke="none" font-family="Arial" font-size="13px" font-style="normal" font-weight="normal" text-decoration="none" x="115.51904296875" y="1433.5">[ ]</text></g></g><g transform="translate(-6,-30) scale(1,1)"><g><path fill="none" stroke="none"/><text fill="#000000" stroke="none" font-family="Arial" font-size="13px" font-style="normal" font-weight="bold" text-decoration="none" x="77" y="1433.5">break</text></g></g></g></svg>