<svg version="1.1" xmlns="http://www.w3.org/2000/svg" xmlns:xlink="http://www.w3.org/1999/xlink" width="620" height="254"><defs/><g><g transform="translate(-118,10) scale(1,1)"><path fill="none" stroke="#000000" d="M 128 0 L 728 0 L 728 232 L 128 232 L 128 0" stroke-miterlimit="10"/></g><g transform="translate(-118,10) scale(1,1)"><path fill="#ffffff" stroke="none" d="M 128 0 L 128 22 L 328.98974609375 22 L 339.98974609375 11 L 339.98974609375 0 L 128 0"/></g><g transform="translate(-118,10) scale(1,1)"><path fill="none" stroke="#000000" d="M 128 0 L 128 22 L 328.98974609375 22 L 339.98974609375 11 L 339.98974609375 0 L 128 0 L 128 0" stroke-miterlimit="10"/></g><g transform="translate(-118,10) scale(1,1)"><g><path fill="none" stroke="none"/><text fill="#000000" stroke="none" font-family="Arial" font-size="13px" font-style="normal" font-weight="normal" text-decoration="none" x="198.97900390625" y="17.5">Notification Exception</text></g></g><g transform="translate(-118,10) scale(1,1)"><g><path fill="none" stroke="none"/><text fill="#000000" stroke="none" font-family="Arial" font-size="13px" font-style="normal" font-weight="bold" text-decoration="none" x="133" y="17.5">interaction</text></g></g><g transform="translate(-118,10) scale(1,1)"><rect fill="#C0C0C0" stroke="none" x="175" y="47" width="146.4140625" height="39" opacity="0.2"/></g><g transform="translate(-118,10) scale(1,1)"><rect fill="#ffffff" stroke="none" x="168" y="40" width="146.4140625" height="39"/></g><g transform="translate(-118,10) scale(1,1)"><path fill="none" stroke="#000000" d="M 168 40 L 314.4140625 40 L 314.4140625 79 L 168 79 L 168 40 Z Z" stroke-miterlimit="10"/></g><g transform="translate(-118,10) scale(1,1)"><g><path fill="none" stroke="none"/><text fill="#000000" stroke="none" font-family="Arial" font-size="16px" font-style="normal" font-weight="bold" text-decoration="none" x="181.4921875" y="62.5">:PLANIFICATOR</text></g></g><g transform="translate(-118,10) scale(1,1)"><path fill="none" stroke="#000000" d="M 242.5 80 L 242.5 234" stroke-miterlimit="10" stroke-dasharray="3"/></g><g transform="translate(-118,10) scale(1,1)"><rect fill="#C0C0C0" stroke="none" x="559" y="109" width="126.5390625" height="39" opacity="0.2"/></g><g transform="translate(-118,10) scale(1,1)"><rect fill="#ffffff" stroke="none" x="552" y="102" width="126.5390625" height="39"/></g><g transform="translate(-118,10) scale(1,1)"><path fill="none" stroke="#000000" d="M 552 102 L 678.5390625 102 L 678.5390625 141 L 552 141 L 552 102 Z Z" stroke-miterlimit="10"/></g><g transform="translate(-118,10) scale(1,1)"><g><path fill="none" stroke="none"/><text fill="#000000" stroke="none" font-family="Arial" font-size="16px" font-style="normal" font-weight="bold" text-decoration="none" x="566.80078125" y="124.5">n :Notification</text></g></g><g transform="translate(-118,10) scale(1,1)"><path fill="none" stroke="#000000" d="M 616.5 142 L 616.5 234" stroke-miterlimit="10" stroke-dasharray="3"/></g><g transform="translate(-118,10) scale(1,1)"><path fill="none" stroke="#000000" d="M 242 122 L 552 122" stroke-miterlimit="10" stroke-dasharray="3"/></g><g transform="translate(-118,10) scale(1,1)"><path fill="none" stroke="#000000" d="M 541.8373251423759 126.20951775601598 L 552 122 L 541.8373251423758 117.79048224398402" stroke-miterlimit="10"/></g><g transform="translate(-118,10) scale(1,1)"><g><path fill="none" stroke="none"/><text fill="#000000" stroke="none" font-family="Arial" font-size="13px" font-style="normal" font-weight="normal" text-decoration="none" x="258.5" y="118.5">1 : newNotification(Destinataire[ ] d , Contenu c)</text></g></g><g transform="translate(-118,10) scale(1,1)"><g><path fill="none" stroke="none"/><text fill="#000000" stroke="none" font-family="Arial" font-size="13px" font-style="normal" font-weight="normal" text-decoration="none" x="367.5" y="99.5">«create»</text></g></g><g transform="translate(-118,10) scale(1,1)"><path fill="none" stroke="#000000" d="M 242 192 L 609 192" stroke-miterlimit="10"/></g><g transform="translate(-118,10) scale(1,1)"><path fill="#000000" stroke="none" d="M 598.8373251423759 196.209517756016 L 609 192 L 598.8373251423758 187.790482243984"/></g><g transform="translate(-118,10) scale(1,1)"><path fill="none" stroke="#000000" d="M 598.8373251423759 196.209517756016 L 609 192 L 598.8373251423758 187.790482243984 L 598.8373251423759 196.209517756016" stroke-miterlimit="10"/></g><g transform="translate(-118,10) scale(1,1)"><g><path fill="none" stroke="none"/><text fill="#000000" stroke="none" font-family="Arial" font-size="13px" font-style="normal" font-weight="normal" text-decoration="none" x="393.818603515625" y="188.5">2 : notify( )</text></g></g><g transform="translate(-118,10) scale(1,1)"><rect fill="#ffffff" stroke="none" x="609" y="192" width="13" height="28"/></g><g transform="translate(-118,10) scale(1,1)"><path fill="none" stroke="#000000" d="M 609 192 L 622 192 L 622 220 L 609 220 L 609 192 Z Z" stroke-miterlimit="10"/></g></g></svg>