<svg version="1.1" xmlns="http://www.w3.org/2000/svg" xmlns:xlink="http://www.w3.org/1999/xlink" width="1354.490234375" height="492"><defs/><g><g transform="translate(-110,-30) scale(1,1)"><path fill="none" stroke="#000000" d="M 312 40 L 1200 40 L 1200 512 L 312 512 L 312 40" stroke-miterlimit="10"/></g><g transform="translate(-110,-30) scale(1,1)"><path fill="#ffffff" stroke="none" d="M 312 40 L 312 65 L 532.5390625 65 L 545.0390625 52.5 L 545.0390625 40 L 312 40"/></g><g transform="translate(-110,-30) scale(1,1)"><path fill="none" stroke="#000000" d="M 312 40 L 312 65 L 532.5390625 65 L 545.0390625 52.5 L 545.0390625 40 L 312 40 L 312 40" stroke-miterlimit="10"/></g><g transform="translate(-110,-30) scale(1,1)"><g><path fill="none" stroke="none"/><text fill="#000000" stroke="none" font-family="Arial" font-size="16px" font-style="normal" font-weight="normal" text-decoration="none" x="387.0390625" y="60.5">Notifications Clients</text></g></g><g transform="translate(-110,-30) scale(1,1)"><g><path fill="none" stroke="none"/><text fill="#000000" stroke="none" font-family="Arial" font-size="16px" font-style="normal" font-weight="bold" text-decoration="none" x="317" y="60.5">use case</text></g></g><g transform="translate(-110,-30) scale(1,1)"><path fill="#ffffff" stroke="none" d="M 149.98030948153408 276.39 C 149.98030948153408 265.681197728 158.3996345189159 257 168.785400390625 257 C 179.1711662623341 257 187.59049129971592 265.681197728 187.59049129971592 276.39 C 187.59049129971592 287.098802272 179.1711662623341 295.78 168.785400390625 295.78 C 158.3996345189159 295.78 149.98030948153408 287.098802272 149.98030948153408 276.39 Z"/></g><g transform="translate(-110,-30) scale(1,1)"><path fill="none" stroke="#000000" d="M 149.98030948153408 276.39 C 149.98030948153408 265.681197728 158.3996345189159 257 168.785400390625 257 C 179.1711662623341 257 187.59049129971592 265.681197728 187.59049129971592 276.39 C 187.59049129971592 287.098802272 179.1711662623341 295.78 168.785400390625 295.78 C 158.3996345189159 295.78 149.98030948153408 287.098802272 149.98030948153408 276.39 Z" stroke-miterlimit="10"/></g><g transform="translate(-110,-30) scale(1,1)"><path fill="none" stroke="#000000" d="M 168.785400390625 295.78 L 168.785400390625 333.22" stroke-miterlimit="10"/></g><g transform="translate(-110,-30) scale(1,1)"><path fill="none" stroke="#000000" d="M 148.87412766335228 309.82 L 188.69667311789772 309.82" stroke-miterlimit="10"/></g><g transform="translate(-110,-30) scale(1,1)"><path fill="none" stroke="#000000" d="M 168.785400390625 333.22 L 141.13085493607954 372" stroke-miterlimit="10"/></g><g transform="translate(-110,-30) scale(1,1)"><path fill="none" stroke="#000000" d="M 168.785400390625 333.22 L 196.43994584517046 372" stroke-miterlimit="10"/></g><g transform="translate(-110,-30) scale(1,1)"><path fill="none" stroke="#000000" d="M 120 398 L 217.57080078125 398" stroke-miterlimit="10"/></g><g transform="translate(-110,-30) scale(1,1)"><g><path fill="none" stroke="none"/><text fill="#000000" stroke="none" font-family="Arial" font-size="13px" font-style="normal" font-weight="bold" text-decoration="none" x="150.726318359375" y="392.5">USER</text></g></g><g transform="translate(-110,-30) scale(1,1)"><path fill="#ffffff" stroke="none" d="M 1362.9803094815343 220.39 C 1362.9803094815343 209.68119772799997 1371.399634518916 201 1381.785400390625 201 C 1392.171166262334 201 1400.5904912997157 209.68119772799997 1400.5904912997157 220.39 C 1400.5904912997157 231.098802272 1392.171166262334 239.78 1381.785400390625 239.78 C 1371.399634518916 239.78 1362.9803094815343 231.098802272 1362.9803094815343 220.39 Z"/></g><g transform="translate(-110,-30) scale(1,1)"><path fill="none" stroke="#000000" d="M 1362.9803094815343 220.39 C 1362.9803094815343 209.68119772799997 1371.399634518916 201 1381.785400390625 201 C 1392.171166262334 201 1400.5904912997157 209.68119772799997 1400.5904912997157 220.39 C 1400.5904912997157 231.098802272 1392.171166262334 239.78 1381.785400390625 239.78 C 1371.399634518916 239.78 1362.9803094815343 231.098802272 1362.9803094815343 220.39 Z" stroke-miterlimit="10"/></g><g transform="translate(-110,-30) scale(1,1)"><path fill="none" stroke="#000000" d="M 1381.785400390625 239.78 L 1381.785400390625 277.22" stroke-miterlimit="10"/></g><g transform="translate(-110,-30) scale(1,1)"><path fill="none" stroke="#000000" d="M 1361.8741276633523 253.82 L 1401.6966731178977 253.82" stroke-miterlimit="10"/></g><g transform="translate(-110,-30) scale(1,1)"><path fill="none" stroke="#000000" d="M 1381.785400390625 277.22 L 1354.1308549360797 316" stroke-miterlimit="10"/></g><g transform="translate(-110,-30) scale(1,1)"><path fill="none" stroke="#000000" d="M 1381.785400390625 277.22 L 1409.4399458451703 316" stroke-miterlimit="10"/></g><g transform="translate(-110,-30) scale(1,1)"><path fill="none" stroke="#000000" d="M 1337 342 L 1426.57080078125 342" stroke-miterlimit="10"/></g><g transform="translate(-110,-30) scale(1,1)"><g><path fill="none" stroke="none"/><text fill="#000000" stroke="none" font-family="Arial" font-size="13px" font-style="normal" font-weight="bold" text-decoration="none" x="1368.05859375" y="336.5">SOA</text></g></g><g transform="translate(-110,-30) scale(1,1)"><path fill="#ffffff" stroke="none" d="M 1313 360 L 1443.490234375 360 L 1453.490234375 370 L 1453.490234375 408 L 1313 408 L 1313 360"/></g><g transform="translate(-110,-30) scale(1,1)"><path fill="none" stroke="#000000" d="M 1313 360 L 1443.490234375 360 L 1453.490234375 370 L 1453.490234375 408 L 1313 408 L 1313 360 L 1313 360" stroke-miterlimit="10"/></g><g transform="translate(-110,-30) scale(1,1)"><path fill="none" stroke="#000000" d="M 1443.490234375 360 L 1443.490234375 370 L 1453.490234375 370 L 1443.490234375 360" stroke-miterlimit="10"/></g><g transform="translate(-110,-30) scale(1,1)"><g><path fill="none" stroke="none"/><text fill="#000000" stroke="none" font-family="Arial" font-size="20px" font-style="normal" font-weight="normal" text-decoration="none" x="1318" y="385">&lt;&lt;System&gt;&gt;</text></g></g><g transform="translate(-110,-30) scale(1,1)"><path fill="none" stroke="#000000" d="M 1382 353 L 1383 359" stroke-miterlimit="10" stroke-dasharray="3"/></g><g transform="translate(-110,-30) scale(1,1)"><rect fill="#000000" stroke="none" x="1345" y="216" width="72" height="8"/></g><g transform="translate(-110,-30) scale(1,1)"><path fill="none" stroke="#000000" d="M 1345 216 L 1417 216 L 1417 224 L 1345 224 L 1345 216 Z Z" stroke-miterlimit="10"/></g><g transform="translate(-110,-30) scale(1,1)"><path fill="#C0C0C0" stroke="none" d="M 975 167 C 975 149.3268864 1004.101488 135 1040 135 C 1075.898512 135 1105 149.3268864 1105 167 C 1105 184.6731136 1075.898512 199 1040 199 C 1004.101488 199 975 184.6731136 975 167 Z" opacity="0.2"/></g><g transform="translate(-110,-30) scale(1,1)"><path fill="#ffffff" stroke="none" d="M 968 160 C 968 142.3268864 997.101488 128 1033 128 C 1068.898512 128 1098 142.3268864 1098 160 C 1098 177.6731136 1068.898512 192 1033 192 C 997.101488 192 968 177.6731136 968 160 Z"/></g><g transform="translate(-110,-30) scale(1,1)"><path fill="none" stroke="#000000" d="M 968 160 C 968 142.3268864 997.101488 128 1033 128 C 1068.898512 128 1098 142.3268864 1098 160 C 1098 177.6731136 1068.898512 192 1033 192 C 997.101488 192 968 177.6731136 968 160 Z" stroke-miterlimit="10"/></g><g transform="translate(-110,-30) scale(1,1)"><g><path fill="none" stroke="none"/><text fill="#000000" stroke="none" font-family="Arial" font-size="16px" font-style="normal" font-weight="bold" text-decoration="none" x="993.4296875" y="168.5">Envoi SMS</text></g></g><g transform="translate(-110,-30) scale(1,1)"><path fill="#C0C0C0" stroke="none" d="M 471 168.5 C 471 145.5801808 551.588736 127 651 127 C 750.411264 127 831 145.5801808 831 168.5 C 831 191.4198192 750.411264 210 651 210 C 551.588736 210 471 191.4198192 471 168.5 Z" opacity="0.2"/></g><g transform="translate(-110,-30) scale(1,1)"><path fill="#ffffff" stroke="none" d="M 464 161.5 C 464 138.5801808 544.588736 120 644 120 C 743.411264 120 824 138.5801808 824 161.5 C 824 184.4198192 743.411264 203 644 203 C 544.588736 203 464 184.4198192 464 161.5 Z"/></g><g transform="translate(-110,-30) scale(1,1)"><path fill="none" stroke="#000000" d="M 464 161.5 C 464 138.5801808 544.588736 120 644 120 C 743.411264 120 824 138.5801808 824 161.5 C 824 184.4198192 743.411264 203 644 203 C 544.588736 203 464 184.4198192 464 161.5 Z" stroke-miterlimit="10"/></g><g transform="translate(-110,-30) scale(1,1)"><g><path fill="none" stroke="none"/><text fill="#000000" stroke="none" font-family="Arial" font-size="16px" font-style="normal" font-weight="bold" text-decoration="none" x="546.62109375" y="154">Ajouter MSISDN de la ligne</text><text fill="#000000" stroke="none" font-family="Arial" font-size="16px" font-style="normal" font-weight="bold" text-decoration="none" x="555.5078125" y="170">cible et Montant et Dates</text><text fill="#000000" stroke="none" font-family="Arial" font-size="16px" font-style="normal" font-weight="bold" text-decoration="none" x="614.65234375" y="186">Butoires</text></g></g><g transform="translate(-110,-30) scale(1,1)"><path fill="#C0C0C0" stroke="none" d="M 391 315 C 391 299.5360256 429.9512224 287 478 287 C 526.0487776 287 565 299.5360256 565 315 C 565 330.4639744 526.0487776 343 478 343 C 429.9512224 343 391 330.4639744 391 315 Z" opacity="0.2"/></g><g transform="translate(-110,-30) scale(1,1)"><path fill="#ffffff" stroke="none" d="M 384 308 C 384 292.5360256 422.9512224 280 471 280 C 519.0487776 280 558 292.5360256 558 308 C 558 323.4639744 519.0487776 336 471 336 C 422.9512224 336 384 323.4639744 384 308 Z"/></g><g transform="translate(-110,-30) scale(1,1)"><path fill="none" stroke="#000000" d="M 384 308 C 384 292.5360256 422.9512224 280 471 280 C 519.0487776 280 558 292.5360256 558 308 C 558 323.4639744 519.0487776 336 471 336 C 422.9512224 336 384 323.4639744 384 308 Z" stroke-miterlimit="10"/></g><g transform="translate(-110,-30) scale(1,1)"><g><path fill="none" stroke="none"/><text fill="#000000" stroke="none" font-family="Arial" font-size="16px" font-style="normal" font-weight="bold" text-decoration="none" x="422.5234375" y="316.5">Appel Sortant</text></g></g><g transform="translate(-110,-30) scale(1,1)"><path fill="#C0C0C0" stroke="none" d="M 991 400 C 991 386.19288 1026.817216 375 1071 375 C 1115.182784 375 1151 386.19288 1151 400 C 1151 413.80712 1115.182784 425 1071 425 C 1026.817216 425 991 413.80712 991 400 Z" opacity="0.2"/></g><g transform="translate(-110,-30) scale(1,1)"><path fill="#ffffff" stroke="none" d="M 984 393 C 984 379.19288 1019.817216 368 1064 368 C 1108.182784 368 1144 379.19288 1144 393 C 1144 406.80712 1108.182784 418 1064 418 C 1019.817216 418 984 406.80712 984 393 Z"/></g><g transform="translate(-110,-30) scale(1,1)"><path fill="none" stroke="#000000" d="M 984 393 C 984 379.19288 1019.817216 368 1064 368 C 1108.182784 368 1144 379.19288 1144 393 C 1144 406.80712 1108.182784 418 1064 418 C 1019.817216 418 984 406.80712 984 393 Z" stroke-miterlimit="10"/></g><g transform="translate(-110,-30) scale(1,1)"><g><path fill="none" stroke="none"/><text fill="#000000" stroke="none" font-family="Arial" font-size="16px" font-style="normal" font-weight="bold" text-decoration="none" x="1015.78515625" y="401.5">Envoi d'Email</text></g></g><g transform="translate(-110,-30) scale(1,1)"><path fill="#C0C0C0" stroke="none" d="M 575 463 C 575 445.3268864 630.5166848 431 699 431 C 767.4833152 431 823 445.3268864 823 463 C 823 480.6731136 767.4833152 495 699 495 C 630.5166848 495 575 480.6731136 575 463 Z" opacity="0.2"/></g><g transform="translate(-110,-30) scale(1,1)"><path fill="#ffffff" stroke="none" d="M 568 456 C 568 438.3268864 623.5166848 424 692 424 C 760.4833152 424 816 438.3268864 816 456 C 816 473.6731136 760.4833152 488 692 488 C 623.5166848 488 568 473.6731136 568 456 Z"/></g><g transform="translate(-110,-30) scale(1,1)"><path fill="none" stroke="#000000" d="M 568 456 C 568 438.3268864 623.5166848 424 692 424 C 760.4833152 424 816 438.3268864 816 456 C 816 473.6731136 760.4833152 488 692 488 C 623.5166848 488 568 473.6731136 568 456 Z" stroke-miterlimit="10"/></g><g transform="translate(-110,-30) scale(1,1)"><g><path fill="none" stroke="none"/><text fill="#000000" stroke="none" font-family="Arial" font-size="16px" font-style="normal" font-weight="bold" text-decoration="none" x="647.53515625" y="456.5">Personaliser</text><text fill="#000000" stroke="none" font-family="Arial" font-size="16px" font-style="normal" font-weight="bold" text-decoration="none" x="633.55078125" y="472.5">Contenu d'Email</text></g></g><g transform="translate(-110,-30) scale(1,1)"><path fill="none" stroke="#000000" d="M 219 328 L 383 315" stroke-miterlimit="10"/></g><g transform="translate(-110,-30) scale(1,1)"><path fill="none" stroke="#000000" d="M 967 160 L 825 161" stroke-miterlimit="10" stroke-dasharray="3"/></g><g transform="translate(-110,-30) scale(1,1)"><path fill="none" stroke="#000000" d="M 835.132779110347 156.7190202638981 L 825 161 L 835.1920666227116 165.1378470196719" stroke-miterlimit="10"/></g><g transform="translate(-110,-30) scale(1,1)"><g><path fill="none" stroke="none"/><text fill="#000000" stroke="none" font-family="Arial" font-size="13px" font-style="normal" font-weight="normal" text-decoration="none" x="868.5" y="195.5">«include»</text></g></g><g transform="translate(-110,-30) scale(1,1)"><path fill="#C0C0C0" stroke="none" d="M 719 354 C 719 343.5065888 741.6096176 335 769.5 335 C 797.3903824 335 820 343.5065888 820 354 C 820 364.4934112 797.3903824 373 769.5 373 C 741.6096176 373 719 364.4934112 719 354 Z" opacity="0.2"/></g><g transform="translate(-110,-30) scale(1,1)"><path fill="#ffffff" stroke="none" d="M 712 347 C 712 336.5065888 734.6096176 328 762.5 328 C 790.3903824 328 813 336.5065888 813 347 C 813 357.4934112 790.3903824 366 762.5 366 C 734.6096176 366 712 357.4934112 712 347 Z"/></g><g transform="translate(-110,-30) scale(1,1)"><path fill="none" stroke="#000000" d="M 712 347 C 712 336.5065888 734.6096176 328 762.5 328 C 790.3903824 328 813 336.5065888 813 347 C 813 357.4934112 790.3903824 366 762.5 366 C 734.6096176 366 712 357.4934112 712 347 Z" stroke-miterlimit="10"/></g><g transform="translate(-110,-30) scale(1,1)"><g><path fill="none" stroke="none"/><text fill="#000000" stroke="none" font-family="Arial" font-size="16px" font-style="normal" font-weight="bold" text-decoration="none" x="742.34765625" y="355.5">Trace</text></g></g><g transform="translate(-110,-30) scale(1,1)"><path fill="none" stroke="#000000" d="M 559 320 L 711 340" stroke-miterlimit="10" stroke-dasharray="3"/></g><g transform="translate(-110,-30) scale(1,1)"><path fill="none" stroke="#000000" d="M 700.3750217711846 342.84777766639183 L 711 340 L 701.473322945228 334.50068874366247" stroke-miterlimit="10"/></g><g transform="translate(-110,-30) scale(1,1)"><g><path fill="none" stroke="none"/><text fill="#000000" stroke="none" font-family="Arial" font-size="13px" font-style="normal" font-weight="normal" text-decoration="none" x="613.5" y="321.5">«include»</text></g></g><g transform="translate(-110,-30) scale(1,1)"><path fill="none" stroke="#000000" d="M 983 407 L 817 435" stroke-miterlimit="10" stroke-dasharray="3"/></g><g transform="translate(-110,-30) scale(1,1)"><path fill="none" stroke="#000000" d="M 826.3209694946133 429.158807683316 L 817 435 L 827.721267434216 437.46057403953205" stroke-miterlimit="10"/></g><g transform="translate(-110,-30) scale(1,1)"><g><path fill="none" stroke="none"/><text fill="#000000" stroke="none" font-family="Arial" font-size="13px" font-style="normal" font-weight="normal" text-decoration="none" x="884.5" y="443.5">«include»</text></g></g><g transform="translate(-110,-30) scale(1,1)"><path fill="#C0C0C0" stroke="none" d="M 967 306 C 967 295.5065888 989.6096176 287 1017.5 287 C 1045.3903824 287 1068 295.5065888 1068 306 C 1068 316.4934112 1045.3903824 325 1017.5 325 C 989.6096176 325 967 316.4934112 967 306 Z" opacity="0.2"/></g><g transform="translate(-110,-30) scale(1,1)"><path fill="#ffffff" stroke="none" d="M 960 299 C 960 288.5065888 982.6096176 280 1010.5 280 C 1038.3903824 280 1061 288.5065888 1061 299 C 1061 309.4934112 1038.3903824 318 1010.5 318 C 982.6096176 318 960 309.4934112 960 299 Z"/></g><g transform="translate(-110,-30) scale(1,1)"><path fill="none" stroke="#000000" d="M 960 299 C 960 288.5065888 982.6096176 280 1010.5 280 C 1038.3903824 280 1061 288.5065888 1061 299 C 1061 309.4934112 1038.3903824 318 1010.5 318 C 982.6096176 318 960 309.4934112 960 299 Z" stroke-miterlimit="10"/></g><g transform="translate(-110,-30) scale(1,1)"><g><path fill="none" stroke="none"/><text fill="#000000" stroke="none" font-family="Arial" font-size="16px" font-style="normal" font-weight="bold" text-decoration="none" x="997.1640625" y="307.5">IVR</text></g></g><g transform="translate(-110,-30) scale(1,1)"><path fill="#ffffff" stroke="none" d="M 984 448 L 1076.5380859375 448 L 1086.5380859375 458 L 1086.5380859375 497 L 984 497 L 984 448"/></g><g transform="translate(-110,-30) scale(1,1)"><path fill="none" stroke="#000000" d="M 984 448 L 1076.5380859375 448 L 1086.5380859375 458 L 1086.5380859375 497 L 984 497 L 984 448 L 984 448" stroke-miterlimit="10"/></g><g transform="translate(-110,-30) scale(1,1)"><path fill="none" stroke="#000000" d="M 1076.5380859375 448 L 1076.5380859375 458 L 1086.5380859375 458 L 1076.5380859375 448" stroke-miterlimit="10"/></g><g transform="translate(-110,-30) scale(1,1)"><g><path fill="none" stroke="none"/><text fill="#000000" stroke="none" font-family="Arial" font-size="13px" font-style="normal" font-weight="normal" text-decoration="none" x="989" y="466">Courier de</text><text fill="#000000" stroke="none" font-family="Arial" font-size="13px" font-style="normal" font-weight="normal" text-decoration="none" x="989" y="479">Relance et</text><text fill="#000000" stroke="none" font-family="Arial" font-size="13px" font-style="normal" font-weight="normal" text-decoration="none" x="989" y="492">Dessactivation</text></g></g><g transform="translate(-110,-30) scale(1,1)"><path fill="none" stroke="#000000" d="M 1336 279 L 1062 296" stroke-miterlimit="10"/></g><g transform="translate(-110,-30) scale(1,1)"><path fill="none" stroke="#000000" d="M 1336 261 L 1099 182" stroke-miterlimit="10"/></g><g transform="translate(-110,-30) scale(1,1)"><path fill="none" stroke="#000000" d="M 1134 367 L 1336 293" stroke-miterlimit="10"/></g></g></svg>