<svg version="1.1" xmlns="http://www.w3.org/2000/svg" xmlns:xlink="http://www.w3.org/1999/xlink" width="1346.490234375" height="492"><defs/><g><g transform="translate(-118,-38) scale(1,1)"><path fill="none" stroke="#000000" d="M 312 48 L 1200 48 L 1200 520 L 312 520 L 312 48" stroke-miterlimit="10"/></g><g transform="translate(-118,-38) scale(1,1)"><path fill="#ffffff" stroke="none" d="M 312 48 L 312 73 L 532.5390625 73 L 545.0390625 60.5 L 545.0390625 48 L 312 48"/></g><g transform="translate(-118,-38) scale(1,1)"><path fill="none" stroke="#000000" d="M 312 48 L 312 73 L 532.5390625 73 L 545.0390625 60.5 L 545.0390625 48 L 312 48 L 312 48" stroke-miterlimit="10"/></g><g transform="translate(-118,-38) scale(1,1)"><g><path fill="none" stroke="none"/><text fill="#000000" stroke="none" font-family="Arial" font-size="16px" font-style="normal" font-weight="normal" text-decoration="none" x="387.0390625" y="68.5">Notifications Clients</text></g></g><g transform="translate(-118,-38) scale(1,1)"><g><path fill="none" stroke="none"/><text fill="#000000" stroke="none" font-family="Arial" font-size="16px" font-style="normal" font-weight="bold" text-decoration="none" x="317" y="68.5">use case</text></g></g><g transform="translate(-118,-38) scale(1,1)"><path fill="#ffffff" stroke="none" d="M 157.98030948153408 276.39 C 157.98030948153408 265.681197728 166.3996345189159 257 176.785400390625 257 C 187.1711662623341 257 195.59049129971592 265.681197728 195.59049129971592 276.39 C 195.59049129971592 287.098802272 187.1711662623341 295.78 176.785400390625 295.78 C 166.3996345189159 295.78 157.98030948153408 287.098802272 157.98030948153408 276.39 Z"/></g><g transform="translate(-118,-38) scale(1,1)"><path fill="none" stroke="#000000" d="M 157.98030948153408 276.39 C 157.98030948153408 265.681197728 166.3996345189159 257 176.785400390625 257 C 187.1711662623341 257 195.59049129971592 265.681197728 195.59049129971592 276.39 C 195.59049129971592 287.098802272 187.1711662623341 295.78 176.785400390625 295.78 C 166.3996345189159 295.78 157.98030948153408 287.098802272 157.98030948153408 276.39 Z" stroke-miterlimit="10"/></g><g transform="translate(-118,-38) scale(1,1)"><path fill="none" stroke="#000000" d="M 176.785400390625 295.78 L 176.785400390625 333.22" stroke-miterlimit="10"/></g><g transform="translate(-118,-38) scale(1,1)"><path fill="none" stroke="#000000" d="M 156.87412766335228 309.82 L 196.69667311789772 309.82" stroke-miterlimit="10"/></g><g transform="translate(-118,-38) scale(1,1)"><path fill="none" stroke="#000000" d="M 176.785400390625 333.22 L 149.13085493607954 372" stroke-miterlimit="10"/></g><g transform="translate(-118,-38) scale(1,1)"><path fill="none" stroke="#000000" d="M 176.785400390625 333.22 L 204.43994584517046 372" stroke-miterlimit="10"/></g><g transform="translate(-118,-38) scale(1,1)"><path fill="none" stroke="#000000" d="M 128 398 L 225.57080078125 398" stroke-miterlimit="10"/></g><g transform="translate(-118,-38) scale(1,1)"><g><path fill="none" stroke="none"/><text fill="#000000" stroke="none" font-family="Arial" font-size="13px" font-style="normal" font-weight="bold" text-decoration="none" x="153.67041015625" y="392.5">SOUAD</text></g></g><g transform="translate(-118,-38) scale(1,1)"><path fill="#ffffff" stroke="none" d="M 1362.9803094815343 220.39 C 1362.9803094815343 209.68119772799997 1371.399634518916 201 1381.785400390625 201 C 1392.171166262334 201 1400.5904912997157 209.68119772799997 1400.5904912997157 220.39 C 1400.5904912997157 231.098802272 1392.171166262334 239.78 1381.785400390625 239.78 C 1371.399634518916 239.78 1362.9803094815343 231.098802272 1362.9803094815343 220.39 Z"/></g><g transform="translate(-118,-38) scale(1,1)"><path fill="none" stroke="#000000" d="M 1362.9803094815343 220.39 C 1362.9803094815343 209.68119772799997 1371.399634518916 201 1381.785400390625 201 C 1392.171166262334 201 1400.5904912997157 209.68119772799997 1400.5904912997157 220.39 C 1400.5904912997157 231.098802272 1392.171166262334 239.78 1381.785400390625 239.78 C 1371.399634518916 239.78 1362.9803094815343 231.098802272 1362.9803094815343 220.39 Z" stroke-miterlimit="10"/></g><g transform="translate(-118,-38) scale(1,1)"><path fill="none" stroke="#000000" d="M 1381.785400390625 239.78 L 1381.785400390625 277.22" stroke-miterlimit="10"/></g><g transform="translate(-118,-38) scale(1,1)"><path fill="none" stroke="#000000" d="M 1361.8741276633523 253.82 L 1401.6966731178977 253.82" stroke-miterlimit="10"/></g><g transform="translate(-118,-38) scale(1,1)"><path fill="none" stroke="#000000" d="M 1381.785400390625 277.22 L 1354.1308549360797 316" stroke-miterlimit="10"/></g><g transform="translate(-118,-38) scale(1,1)"><path fill="none" stroke="#000000" d="M 1381.785400390625 277.22 L 1409.4399458451703 316" stroke-miterlimit="10"/></g><g transform="translate(-118,-38) scale(1,1)"><path fill="none" stroke="#000000" d="M 1337 342 L 1426.57080078125 342" stroke-miterlimit="10"/></g><g transform="translate(-118,-38) scale(1,1)"><g><path fill="none" stroke="none"/><text fill="#000000" stroke="none" font-family="Arial" font-size="13px" font-style="normal" font-weight="bold" text-decoration="none" x="1368.05859375" y="336.5">SOA</text></g></g><g transform="translate(-118,-38) scale(1,1)"><path fill="#ffffff" stroke="none" d="M 1313 360 L 1443.490234375 360 L 1453.490234375 370 L 1453.490234375 408 L 1313 408 L 1313 360"/></g><g transform="translate(-118,-38) scale(1,1)"><path fill="none" stroke="#000000" d="M 1313 360 L 1443.490234375 360 L 1453.490234375 370 L 1453.490234375 408 L 1313 408 L 1313 360 L 1313 360" stroke-miterlimit="10"/></g><g transform="translate(-118,-38) scale(1,1)"><path fill="none" stroke="#000000" d="M 1443.490234375 360 L 1443.490234375 370 L 1453.490234375 370 L 1443.490234375 360" stroke-miterlimit="10"/></g><g transform="translate(-118,-38) scale(1,1)"><g><path fill="none" stroke="none"/><text fill="#000000" stroke="none" font-family="Arial" font-size="20px" font-style="normal" font-weight="normal" text-decoration="none" x="1318" y="385">&lt;&lt;System&gt;&gt;</text></g></g><g transform="translate(-118,-38) scale(1,1)"><path fill="none" stroke="#000000" d="M 1382 353 L 1383 359" stroke-miterlimit="10" stroke-dasharray="3"/></g><g transform="translate(-118,-38) scale(1,1)"><rect fill="#000000" stroke="none" x="1345" y="216" width="72" height="8"/></g><g transform="translate(-118,-38) scale(1,1)"><path fill="none" stroke="#000000" d="M 1345 216 L 1417 216 L 1417 224 L 1345 224 L 1345 216 Z Z" stroke-miterlimit="10"/></g><g transform="translate(-118,-38) scale(1,1)"><path fill="#C0C0C0" stroke="none" d="M 415 199 C 415 181.3268864 444.101488 167 480 167 C 515.898512 167 545 181.3268864 545 199 C 545 216.6731136 515.898512 231 480 231 C 444.101488 231 415 216.6731136 415 199 Z" opacity="0.2"/></g><g transform="translate(-118,-38) scale(1,1)"><path fill="#ffffff" stroke="none" d="M 408 192 C 408 174.3268864 437.101488 160 473 160 C 508.898512 160 538 174.3268864 538 192 C 538 209.6731136 508.898512 224 473 224 C 437.101488 224 408 209.6731136 408 192 Z"/></g><g transform="translate(-118,-38) scale(1,1)"><path fill="none" stroke="#000000" d="M 408 192 C 408 174.3268864 437.101488 160 473 160 C 508.898512 160 538 174.3268864 538 192 C 538 209.6731136 508.898512 224 473 224 C 437.101488 224 408 209.6731136 408 192 Z" stroke-miterlimit="10"/></g><g transform="translate(-118,-38) scale(1,1)"><g><path fill="none" stroke="none"/><text fill="#000000" stroke="none" font-family="Arial" font-size="16px" font-style="normal" font-weight="bold" text-decoration="none" x="433.4296875" y="200.5">Envoi SMS</text></g></g><g transform="translate(-118,-38) scale(1,1)"><path fill="#C0C0C0" stroke="none" d="M 807 160.5 C 807 137.5801808 887.588736 119 987 119 C 1086.411264 119 1167 137.5801808 1167 160.5 C 1167 183.4198192 1086.411264 202 987 202 C 887.588736 202 807 183.4198192 807 160.5 Z" opacity="0.2"/></g><g transform="translate(-118,-38) scale(1,1)"><path fill="#ffffff" stroke="none" d="M 800 153.5 C 800 130.5801808 880.588736 112 980 112 C 1079.411264 112 1160 130.5801808 1160 153.5 C 1160 176.4198192 1079.411264 195 980 195 C 880.588736 195 800 176.4198192 800 153.5 Z"/></g><g transform="translate(-118,-38) scale(1,1)"><path fill="none" stroke="#000000" d="M 800 153.5 C 800 130.5801808 880.588736 112 980 112 C 1079.411264 112 1160 130.5801808 1160 153.5 C 1160 176.4198192 1079.411264 195 980 195 C 880.588736 195 800 176.4198192 800 153.5 Z" stroke-miterlimit="10"/></g><g transform="translate(-118,-38) scale(1,1)"><g><path fill="none" stroke="none"/><text fill="#000000" stroke="none" font-family="Arial" font-size="16px" font-style="normal" font-weight="bold" text-decoration="none" x="882.62109375" y="146">Ajouter MSISDN de la ligne</text><text fill="#000000" stroke="none" font-family="Arial" font-size="16px" font-style="normal" font-weight="bold" text-decoration="none" x="891.5078125" y="162">cible et Montant et Dates</text><text fill="#000000" stroke="none" font-family="Arial" font-size="16px" font-style="normal" font-weight="bold" text-decoration="none" x="950.65234375" y="178">Butoires</text></g></g><g transform="translate(-118,-38) scale(1,1)"><path fill="#C0C0C0" stroke="none" d="M 583 255 C 583 237.3268864 636.725824 223 703 223 C 769.274176 223 823 237.3268864 823 255 C 823 272.6731136 769.274176 287 703 287 C 636.725824 287 583 272.6731136 583 255 Z" opacity="0.2"/></g><g transform="translate(-118,-38) scale(1,1)"><path fill="#ffffff" stroke="none" d="M 576 248 C 576 230.3268864 629.725824 216 696 216 C 762.274176 216 816 230.3268864 816 248 C 816 265.6731136 762.274176 280 696 280 C 629.725824 280 576 265.6731136 576 248 Z"/></g><g transform="translate(-118,-38) scale(1,1)"><path fill="none" stroke="#000000" d="M 576 248 C 576 230.3268864 629.725824 216 696 216 C 762.274176 216 816 230.3268864 816 248 C 816 265.6731136 762.274176 280 696 280 C 629.725824 280 576 265.6731136 576 248 Z" stroke-miterlimit="10"/></g><g transform="translate(-118,-38) scale(1,1)"><g><path fill="none" stroke="none"/><text fill="#000000" stroke="none" font-family="Arial" font-size="16px" font-style="normal" font-weight="bold" text-decoration="none" x="643.0859375" y="248.5">Personaliser le</text><text fill="#000000" stroke="none" font-family="Arial" font-size="16px" font-style="normal" font-weight="bold" text-decoration="none" x="640.21875" y="264.5">Contenu d'SMS</text></g></g><g transform="translate(-118,-38) scale(1,1)"><path fill="#C0C0C0" stroke="none" d="M 415 339 C 415 323.5360256 453.9512224 311 502 311 C 550.0487776 311 589 323.5360256 589 339 C 589 354.4639744 550.0487776 367 502 367 C 453.9512224 367 415 354.4639744 415 339 Z" opacity="0.2"/></g><g transform="translate(-118,-38) scale(1,1)"><path fill="#ffffff" stroke="none" d="M 408 332 C 408 316.5360256 446.9512224 304 495 304 C 543.0487776 304 582 316.5360256 582 332 C 582 347.4639744 543.0487776 360 495 360 C 446.9512224 360 408 347.4639744 408 332 Z"/></g><g transform="translate(-118,-38) scale(1,1)"><path fill="none" stroke="#000000" d="M 408 332 C 408 316.5360256 446.9512224 304 495 304 C 543.0487776 304 582 316.5360256 582 332 C 582 347.4639744 543.0487776 360 495 360 C 446.9512224 360 408 347.4639744 408 332 Z" stroke-miterlimit="10"/></g><g transform="translate(-118,-38) scale(1,1)"><g><path fill="none" stroke="none"/><text fill="#000000" stroke="none" font-family="Arial" font-size="16px" font-style="normal" font-weight="bold" text-decoration="none" x="446.5234375" y="340.5">Appel Sortant</text></g></g><g transform="translate(-118,-38) scale(1,1)"><path fill="#C0C0C0" stroke="none" d="M 431 408 C 431 394.19288 466.81721600000003 383 511 383 C 555.182784 383 591 394.19288 591 408 C 591 421.80712 555.182784 433 511 433 C 466.81721600000003 433 431 421.80712 431 408 Z" opacity="0.2"/></g><g transform="translate(-118,-38) scale(1,1)"><path fill="#ffffff" stroke="none" d="M 424 401 C 424 387.19288 459.81721600000003 376 504 376 C 548.182784 376 584 387.19288 584 401 C 584 414.80712 548.182784 426 504 426 C 459.81721600000003 426 424 414.80712 424 401 Z"/></g><g transform="translate(-118,-38) scale(1,1)"><path fill="none" stroke="#000000" d="M 424 401 C 424 387.19288 459.81721600000003 376 504 376 C 548.182784 376 584 387.19288 584 401 C 584 414.80712 548.182784 426 504 426 C 459.81721600000003 426 424 414.80712 424 401 Z" stroke-miterlimit="10"/></g><g transform="translate(-118,-38) scale(1,1)"><g><path fill="none" stroke="none"/><text fill="#000000" stroke="none" font-family="Arial" font-size="16px" font-style="normal" font-weight="bold" text-decoration="none" x="455.78515625" y="409.5">Envoi d'Email</text></g></g><g transform="translate(-118,-38) scale(1,1)"><path fill="#C0C0C0" stroke="none" d="M 671 447 C 671 429.3268864 726.5166848 415 795 415 C 863.4833152 415 919 429.3268864 919 447 C 919 464.6731136 863.4833152 479 795 479 C 726.5166848 479 671 464.6731136 671 447 Z" opacity="0.2"/></g><g transform="translate(-118,-38) scale(1,1)"><path fill="#ffffff" stroke="none" d="M 664 440 C 664 422.3268864 719.5166848 408 788 408 C 856.4833152 408 912 422.3268864 912 440 C 912 457.6731136 856.4833152 472 788 472 C 719.5166848 472 664 457.6731136 664 440 Z"/></g><g transform="translate(-118,-38) scale(1,1)"><path fill="none" stroke="#000000" d="M 664 440 C 664 422.3268864 719.5166848 408 788 408 C 856.4833152 408 912 422.3268864 912 440 C 912 457.6731136 856.4833152 472 788 472 C 719.5166848 472 664 457.6731136 664 440 Z" stroke-miterlimit="10"/></g><g transform="translate(-118,-38) scale(1,1)"><g><path fill="none" stroke="none"/><text fill="#000000" stroke="none" font-family="Arial" font-size="16px" font-style="normal" font-weight="bold" text-decoration="none" x="743.53515625" y="440.5">Personaliser</text><text fill="#000000" stroke="none" font-family="Arial" font-size="16px" font-style="normal" font-weight="bold" text-decoration="none" x="729.55078125" y="456.5">Contenu d'Email</text></g></g><g transform="translate(-118,-38) scale(1,1)"><path fill="none" stroke="#000000" d="M 227 308 L 407 223" stroke-miterlimit="10"/></g><g transform="translate(-118,-38) scale(1,1)"><path fill="none" stroke="#000000" d="M 227 332 L 407 332" stroke-miterlimit="10"/></g><g transform="translate(-118,-38) scale(1,1)"><path fill="none" stroke="#000000" d="M 227 343 L 423 384" stroke-miterlimit="10"/></g><g transform="translate(-118,-38) scale(1,1)"><path fill="none" stroke="#000000" d="M 539 187 L 799 167" stroke-miterlimit="10" stroke-dasharray="3"/></g><g transform="translate(-118,-38) scale(1,1)"><path fill="none" stroke="#000000" d="M 789.1901147223913 171.976560141318 L 799 167 L 788.5444041746322 163.58232302044942" stroke-miterlimit="10"/></g><g transform="translate(-118,-38) scale(1,1)"><g><path fill="none" stroke="none"/><text fill="#000000" stroke="none" font-family="Arial" font-size="13px" font-style="normal" font-weight="normal" text-decoration="none" x="638.5" y="153.5">«include»</text></g></g><g transform="translate(-118,-38) scale(1,1)"><path fill="none" stroke="#000000" d="M 795 215 L 851 196" stroke-miterlimit="10" stroke-dasharray="3"/></g><g transform="translate(-118,-38) scale(1,1)"><path fill="none" stroke="#000000" d="M 842.7286660397695 203.25155393818022 L 851 196 L 840.0236607034352 195.27890663108965" stroke-miterlimit="10"/></g><g transform="translate(-118,-38) scale(1,1)"><g><path fill="none" stroke="none"/><text fill="#000000" stroke="none" font-family="Arial" font-size="13px" font-style="normal" font-weight="normal" text-decoration="none" x="780.5" y="202.5">«extend»</text></g></g><g transform="translate(-118,-38) scale(1,1)"><path fill="#C0C0C0" stroke="none" d="M 647 370 C 647 359.5065888 669.6096176 351 697.5 351 C 725.3903824 351 748 359.5065888 748 370 C 748 380.4934112 725.3903824 389 697.5 389 C 669.6096176 389 647 380.4934112 647 370 Z" opacity="0.2"/></g><g transform="translate(-118,-38) scale(1,1)"><path fill="#ffffff" stroke="none" d="M 640 363 C 640 352.5065888 662.6096176 344 690.5 344 C 718.3903824 344 741 352.5065888 741 363 C 741 373.4934112 718.3903824 382 690.5 382 C 662.6096176 382 640 373.4934112 640 363 Z"/></g><g transform="translate(-118,-38) scale(1,1)"><path fill="none" stroke="#000000" d="M 640 363 C 640 352.5065888 662.6096176 344 690.5 344 C 718.3903824 344 741 352.5065888 741 363 C 741 373.4934112 718.3903824 382 690.5 382 C 662.6096176 382 640 373.4934112 640 363 Z" stroke-miterlimit="10"/></g><g transform="translate(-118,-38) scale(1,1)"><g><path fill="none" stroke="none"/><text fill="#000000" stroke="none" font-family="Arial" font-size="16px" font-style="normal" font-weight="bold" text-decoration="none" x="670.34765625" y="371.5">Trace</text></g></g><g transform="translate(-118,-38) scale(1,1)"><path fill="none" stroke="#000000" d="M 583 346 L 639 355" stroke-miterlimit="10" stroke-dasharray="3"/></g><g transform="translate(-118,-38) scale(1,1)"><path fill="none" stroke="#000000" d="M 628.2981241996489 357.5435908385309 L 639 355 L 629.6340407196662 349.2312213806447" stroke-miterlimit="10"/></g><g transform="translate(-118,-38) scale(1,1)"><g><path fill="none" stroke="none"/><text fill="#000000" stroke="none" font-family="Arial" font-size="13px" font-style="normal" font-weight="normal" text-decoration="none" x="590.5" y="342.5">«include»</text></g></g><g transform="translate(-118,-38) scale(1,1)"><path fill="none" stroke="#000000" d="M 585 412 L 663 423" stroke-miterlimit="10" stroke-dasharray="3"/></g><g transform="translate(-118,-38) scale(1,1)"><path fill="none" stroke="#000000" d="M 652.349067865466 425.7491170701793 L 663 423 L 653.5247343391138 417.41257298431276" stroke-miterlimit="10"/></g><g transform="translate(-118,-38) scale(1,1)"><g><path fill="none" stroke="none"/><text fill="#000000" stroke="none" font-family="Arial" font-size="13px" font-style="normal" font-weight="normal" text-decoration="none" x="589.5" y="403.5">«include»</text></g></g><g transform="translate(-118,-38) scale(1,1)"><path fill="#C0C0C0" stroke="none" d="M 1023 288 C 1023 274.19288 1061.055792 263 1108 263 C 1154.944208 263 1193 274.19288 1193 288 C 1193 301.80712 1154.944208 313 1108 313 C 1061.055792 313 1023 301.80712 1023 288 Z" opacity="0.2"/></g><g transform="translate(-118,-38) scale(1,1)"><path fill="#ffffff" stroke="none" d="M 1016 281 C 1016 267.19288 1054.055792 256 1101 256 C 1147.944208 256 1186 267.19288 1186 281 C 1186 294.80712 1147.944208 306 1101 306 C 1054.055792 306 1016 294.80712 1016 281 Z"/></g><g transform="translate(-118,-38) scale(1,1)"><path fill="none" stroke="#000000" d="M 1016 281 C 1016 267.19288 1054.055792 256 1101 256 C 1147.944208 256 1186 267.19288 1186 281 C 1186 294.80712 1147.944208 306 1101 306 C 1054.055792 306 1016 294.80712 1016 281 Z" stroke-miterlimit="10"/></g><g transform="translate(-118,-38) scale(1,1)"><g><path fill="none" stroke="none"/><text fill="#000000" stroke="none" font-family="Arial" font-size="16px" font-style="normal" font-weight="bold" text-decoration="none" x="1048.09765625" y="289.5">Envoi DialOUT</text></g></g><g transform="translate(-118,-38) scale(1,1)"><path fill="#C0C0C0" stroke="none" d="M 1007 434 C 1007 423.5065888 1029.6096176 415 1057.5 415 C 1085.3903824 415 1108 423.5065888 1108 434 C 1108 444.4934112 1085.3903824 453 1057.5 453 C 1029.6096176 453 1007 444.4934112 1007 434 Z" opacity="0.2"/></g><g transform="translate(-118,-38) scale(1,1)"><path fill="#ffffff" stroke="none" d="M 1000 427 C 1000 416.5065888 1022.6096176 408 1050.5 408 C 1078.3903824 408 1101 416.5065888 1101 427 C 1101 437.4934112 1078.3903824 446 1050.5 446 C 1022.6096176 446 1000 437.4934112 1000 427 Z"/></g><g transform="translate(-118,-38) scale(1,1)"><path fill="none" stroke="#000000" d="M 1000 427 C 1000 416.5065888 1022.6096176 408 1050.5 408 C 1078.3903824 408 1101 416.5065888 1101 427 C 1101 437.4934112 1078.3903824 446 1050.5 446 C 1022.6096176 446 1000 437.4934112 1000 427 Z" stroke-miterlimit="10"/></g><g transform="translate(-118,-38) scale(1,1)"><g><path fill="none" stroke="none"/><text fill="#000000" stroke="none" font-family="Arial" font-size="16px" font-style="normal" font-weight="bold" text-decoration="none" x="1037.1640625" y="435.5">IVR</text></g></g><g transform="translate(-118,-38) scale(1,1)"><path fill="#ffffff" stroke="none" d="M 1048 312 L 1106 312 L 1116 322 L 1116 352 L 1048 352 L 1048 312"/></g><g transform="translate(-118,-38) scale(1,1)"><path fill="none" stroke="#000000" d="M 1048 312 L 1106 312 L 1116 322 L 1116 352 L 1048 352 L 1048 312 L 1048 312" stroke-miterlimit="10"/></g><g transform="translate(-118,-38) scale(1,1)"><path fill="none" stroke="#000000" d="M 1106 312 L 1106 322 L 1116 322 L 1106 312" stroke-miterlimit="10"/></g><g transform="translate(-118,-38) scale(1,1)"><g><path fill="none" stroke="none"/><text fill="#000000" stroke="none" font-family="Arial" font-size="13px" font-style="normal" font-weight="normal" text-decoration="none" x="1053" y="330">9h - 19h</text></g></g><g transform="translate(-118,-38) scale(1,1)"><path fill="#ffffff" stroke="none" d="M 888 328 L 981 328 L 991 338 L 991 364 L 888 364 L 888 328"/></g><g transform="translate(-118,-38) scale(1,1)"><path fill="none" stroke="#000000" d="M 888 328 L 981 328 L 991 338 L 991 364 L 888 364 L 888 328 L 888 328" stroke-miterlimit="10"/></g><g transform="translate(-118,-38) scale(1,1)"><path fill="none" stroke="#000000" d="M 981 328 L 981 338 L 991 338 L 981 328" stroke-miterlimit="10"/></g><g transform="translate(-118,-38) scale(1,1)"><g><path fill="none" stroke="none"/><text fill="#000000" stroke="none" font-family="Arial" font-size="13px" font-style="normal" font-weight="normal" text-decoration="none" x="893" y="346">Tentatives &lt;=5</text></g></g><g transform="translate(-118,-38) scale(1,1)"><path fill="#C0C0C0" stroke="none" d="M 711 333.5 C 711 316.6553136 747.936504 303 793.5 303 C 839.063496 303 876 316.6553136 876 333.5 C 876 350.3446864 839.063496 364 793.5 364 C 747.936504 364 711 350.3446864 711 333.5 Z" opacity="0.2"/></g><g transform="translate(-118,-38) scale(1,1)"><path fill="#ffffff" stroke="none" d="M 704 326.5 C 704 309.6553136 740.936504 296 786.5 296 C 832.063496 296 869 309.6553136 869 326.5 C 869 343.3446864 832.063496 357 786.5 357 C 740.936504 357 704 343.3446864 704 326.5 Z"/></g><g transform="translate(-118,-38) scale(1,1)"><path fill="none" stroke="#000000" d="M 704 326.5 C 704 309.6553136 740.936504 296 786.5 296 C 832.063496 296 869 309.6553136 869 326.5 C 869 343.3446864 832.063496 357 786.5 357 C 740.936504 357 704 343.3446864 704 326.5 Z" stroke-miterlimit="10"/></g><g transform="translate(-118,-38) scale(1,1)"><g><path fill="none" stroke="none"/><text fill="#000000" stroke="none" font-family="Arial" font-size="16px" font-style="normal" font-weight="bold" text-decoration="none" x="754.48046875" y="327">Tentative</text><text fill="#000000" stroke="none" font-family="Arial" font-size="16px" font-style="normal" font-weight="bold" text-decoration="none" x="760.0625" y="343">d'Appel</text></g></g><g transform="translate(-118,-38) scale(1,1)"><path fill="none" stroke="#000000" d="M 870 314 L 1015 293" stroke-miterlimit="10" stroke-dasharray="3"/></g><g transform="translate(-118,-38) scale(1,1)"><path fill="none" stroke="#000000" d="M 1005.5456178595228 298.622691378853 L 1015 293 L 1004.3388990740335 290.2905854790457" stroke-miterlimit="10"/></g><g transform="translate(-118,-38) scale(1,1)"><g><path fill="none" stroke="none"/><text fill="#000000" stroke="none" font-family="Arial" font-size="13px" font-style="normal" font-weight="normal" text-decoration="none" x="911.5" y="301.5">«extend»</text></g></g><g transform="translate(-118,-38) scale(1,1)"><path fill="#ffffff" stroke="none" d="M 432 440 L 524.5380859375 440 L 534.5380859375 450 L 534.5380859375 489 L 432 489 L 432 440"/></g><g transform="translate(-118,-38) scale(1,1)"><path fill="none" stroke="#000000" d="M 432 440 L 524.5380859375 440 L 534.5380859375 450 L 534.5380859375 489 L 432 489 L 432 440 L 432 440" stroke-miterlimit="10"/></g><g transform="translate(-118,-38) scale(1,1)"><path fill="none" stroke="#000000" d="M 524.5380859375 440 L 524.5380859375 450 L 534.5380859375 450 L 524.5380859375 440" stroke-miterlimit="10"/></g><g transform="translate(-118,-38) scale(1,1)"><g><path fill="none" stroke="none"/><text fill="#000000" stroke="none" font-family="Arial" font-size="13px" font-style="normal" font-weight="normal" text-decoration="none" x="437" y="458">Courier de</text><text fill="#000000" stroke="none" font-family="Arial" font-size="13px" font-style="normal" font-weight="normal" text-decoration="none" x="437" y="471">Relance et</text><text fill="#000000" stroke="none" font-family="Arial" font-size="13px" font-style="normal" font-weight="normal" text-decoration="none" x="437" y="484">Dessactivation</text></g></g><g transform="translate(-118,-38) scale(1,1)"><path fill="#ffffff" stroke="none" d="M 432 256 L 490 256 L 500 266 L 500 292 L 432 292 L 432 256"/></g><g transform="translate(-118,-38) scale(1,1)"><path fill="none" stroke="#000000" d="M 432 256 L 490 256 L 500 266 L 500 292 L 432 292 L 432 256 L 432 256" stroke-miterlimit="10"/></g><g transform="translate(-118,-38) scale(1,1)"><path fill="none" stroke="#000000" d="M 490 256 L 490 266 L 500 266 L 490 256" stroke-miterlimit="10"/></g><g transform="translate(-118,-38) scale(1,1)"><g><path fill="none" stroke="none"/><text fill="#000000" stroke="none" font-family="Arial" font-size="13px" font-style="normal" font-weight="normal" text-decoration="none" x="437" y="274">Call SAM</text></g></g><g transform="translate(-118,-38) scale(1,1)"><path fill="none" stroke="#000000" d="M 1336 262 L 1120 196" stroke-miterlimit="10"/></g><g transform="translate(-118,-38) scale(1,1)"><path fill="none" stroke="#000000" d="M 1336 277 L 1187 279" stroke-miterlimit="10"/></g><g transform="translate(-118,-38) scale(1,1)"><path fill="none" stroke="#000000" d="M 1336 297 L 1094 407" stroke-miterlimit="10"/></g></g></svg>