<svg version="1.1" xmlns="http://www.w3.org/2000/svg" xmlns:xlink="http://www.w3.org/1999/xlink" width="1313.490234375" height="1060"><defs/><g><g transform="translate(-111,-22) scale(1,1)"><path fill="none" stroke="#000000" d="M 280 32 L 1160 32 L 1160 1072 L 280 1072 L 280 32" stroke-miterlimit="10"/></g><g transform="translate(-111,-22) scale(1,1)"><path fill="#ffffff" stroke="none" d="M 280 32 L 280 57 L 486.3515625 57 L 498.8515625 44.5 L 498.8515625 32 L 280 32"/></g><g transform="translate(-111,-22) scale(1,1)"><path fill="none" stroke="#000000" d="M 280 32 L 280 57 L 486.3515625 57 L 498.8515625 44.5 L 498.8515625 32 L 280 32 L 280 32" stroke-miterlimit="10"/></g><g transform="translate(-111,-22) scale(1,1)"><g><path fill="none" stroke="none"/><text fill="#000000" stroke="none" font-family="Arial" font-size="16px" font-style="normal" font-weight="normal" text-decoration="none" x="355.0390625" y="52.5">Dunning Ooredoo</text></g></g><g transform="translate(-111,-22) scale(1,1)"><g><path fill="none" stroke="none"/><text fill="#000000" stroke="none" font-family="Arial" font-size="16px" font-style="normal" font-weight="bold" text-decoration="none" x="285" y="52.5">use case</text></g></g><g transform="translate(-111,-22) scale(1,1)"><path fill="#ffffff" stroke="none" d="M 150.98030948153408 444.39 C 150.98030948153408 433.681197728 159.3996345189159 425 169.785400390625 425 C 180.1711662623341 425 188.59049129971592 433.681197728 188.59049129971592 444.39 C 188.59049129971592 455.098802272 180.1711662623341 463.78 169.785400390625 463.78 C 159.3996345189159 463.78 150.98030948153408 455.098802272 150.98030948153408 444.39 Z"/></g><g transform="translate(-111,-22) scale(1,1)"><path fill="none" stroke="#000000" d="M 150.98030948153408 444.39 C 150.98030948153408 433.681197728 159.3996345189159 425 169.785400390625 425 C 180.1711662623341 425 188.59049129971592 433.681197728 188.59049129971592 444.39 C 188.59049129971592 455.098802272 180.1711662623341 463.78 169.785400390625 463.78 C 159.3996345189159 463.78 150.98030948153408 455.098802272 150.98030948153408 444.39 Z" stroke-miterlimit="10"/></g><g transform="translate(-111,-22) scale(1,1)"><path fill="none" stroke="#000000" d="M 169.785400390625 463.78 L 169.785400390625 501.22" stroke-miterlimit="10"/></g><g transform="translate(-111,-22) scale(1,1)"><path fill="none" stroke="#000000" d="M 149.87412766335228 477.82 L 189.69667311789772 477.82" stroke-miterlimit="10"/></g><g transform="translate(-111,-22) scale(1,1)"><path fill="none" stroke="#000000" d="M 169.785400390625 501.22 L 142.13085493607954 540" stroke-miterlimit="10"/></g><g transform="translate(-111,-22) scale(1,1)"><path fill="none" stroke="#000000" d="M 169.785400390625 501.22 L 197.43994584517046 540" stroke-miterlimit="10"/></g><g transform="translate(-111,-22) scale(1,1)"><path fill="none" stroke="#000000" d="M 121 566 L 218.57080078125 566" stroke-miterlimit="10"/></g><g transform="translate(-111,-22) scale(1,1)"><g><path fill="none" stroke="none"/><text fill="#000000" stroke="none" font-family="Arial" font-size="13px" font-style="normal" font-weight="bold" text-decoration="none" x="146.67041015625" y="560.5">SOUAD</text></g></g><g transform="translate(-111,-22) scale(1,1)"><path fill="#ffffff" stroke="none" d="M 1322.9803094815343 428.39 C 1322.9803094815343 417.681197728 1331.399634518916 409 1341.785400390625 409 C 1352.171166262334 409 1360.5904912997157 417.681197728 1360.5904912997157 428.39 C 1360.5904912997157 439.098802272 1352.171166262334 447.78 1341.785400390625 447.78 C 1331.399634518916 447.78 1322.9803094815343 439.098802272 1322.9803094815343 428.39 Z"/></g><g transform="translate(-111,-22) scale(1,1)"><path fill="none" stroke="#000000" d="M 1322.9803094815343 428.39 C 1322.9803094815343 417.681197728 1331.399634518916 409 1341.785400390625 409 C 1352.171166262334 409 1360.5904912997157 417.681197728 1360.5904912997157 428.39 C 1360.5904912997157 439.098802272 1352.171166262334 447.78 1341.785400390625 447.78 C 1331.399634518916 447.78 1322.9803094815343 439.098802272 1322.9803094815343 428.39 Z" stroke-miterlimit="10"/></g><g transform="translate(-111,-22) scale(1,1)"><path fill="none" stroke="#000000" d="M 1341.785400390625 447.78 L 1341.785400390625 485.22" stroke-miterlimit="10"/></g><g transform="translate(-111,-22) scale(1,1)"><path fill="none" stroke="#000000" d="M 1321.8741276633523 461.82 L 1361.6966731178977 461.82" stroke-miterlimit="10"/></g><g transform="translate(-111,-22) scale(1,1)"><path fill="none" stroke="#000000" d="M 1341.785400390625 485.22 L 1314.1308549360797 524" stroke-miterlimit="10"/></g><g transform="translate(-111,-22) scale(1,1)"><path fill="none" stroke="#000000" d="M 1341.785400390625 485.22 L 1369.4399458451703 524" stroke-miterlimit="10"/></g><g transform="translate(-111,-22) scale(1,1)"><path fill="none" stroke="#000000" d="M 1297 550 L 1386.57080078125 550" stroke-miterlimit="10"/></g><g transform="translate(-111,-22) scale(1,1)"><g><path fill="none" stroke="none"/><text fill="#000000" stroke="none" font-family="Arial" font-size="13px" font-style="normal" font-weight="bold" text-decoration="none" x="1328.05859375" y="544.5">SOA</text></g></g><g transform="translate(-111,-22) scale(1,1)"><path fill="#ffffff" stroke="none" d="M 1273 568 L 1403.490234375 568 L 1413.490234375 578 L 1413.490234375 616 L 1273 616 L 1273 568"/></g><g transform="translate(-111,-22) scale(1,1)"><path fill="none" stroke="#000000" d="M 1273 568 L 1403.490234375 568 L 1413.490234375 578 L 1413.490234375 616 L 1273 616 L 1273 568 L 1273 568" stroke-miterlimit="10"/></g><g transform="translate(-111,-22) scale(1,1)"><path fill="none" stroke="#000000" d="M 1403.490234375 568 L 1403.490234375 578 L 1413.490234375 578 L 1403.490234375 568" stroke-miterlimit="10"/></g><g transform="translate(-111,-22) scale(1,1)"><g><path fill="none" stroke="none"/><text fill="#000000" stroke="none" font-family="Arial" font-size="20px" font-style="normal" font-weight="normal" text-decoration="none" x="1278" y="593">&lt;&lt;System&gt;&gt;</text></g></g><g transform="translate(-111,-22) scale(1,1)"><path fill="none" stroke="#000000" d="M 1342 561 L 1343 567" stroke-miterlimit="10" stroke-dasharray="3"/></g><g transform="translate(-111,-22) scale(1,1)"><rect fill="#000000" stroke="none" x="1305" y="424" width="72" height="8"/></g><g transform="translate(-111,-22) scale(1,1)"><path fill="none" stroke="#000000" d="M 1305 424 L 1377 424 L 1377 432 L 1305 432 L 1305 424 Z Z" stroke-miterlimit="10"/></g><g transform="translate(-111,-22) scale(1,1)"><path fill="#C0C0C0" stroke="none" d="M 367 195 C 367 175.1177472 433.2618496 159 515 159 C 596.7381504 159 663 175.1177472 663 195 C 663 214.8822528 596.7381504 231 515 231 C 433.2618496 231 367 214.8822528 367 195 Z" opacity="0.2"/></g><g transform="translate(-111,-22) scale(1,1)"><path fill="#ffffff" stroke="none" d="M 360 188 C 360 168.1177472 426.2618496 152 508 152 C 589.7381504 152 656 168.1177472 656 188 C 656 207.8822528 589.7381504 224 508 224 C 426.2618496 224 360 207.8822528 360 188 Z"/></g><g transform="translate(-111,-22) scale(1,1)"><path fill="none" stroke="#000000" d="M 360 188 C 360 168.1177472 426.2618496 152 508 152 C 589.7381504 152 656 168.1177472 656 188 C 656 207.8822528 589.7381504 224 508 224 C 426.2618496 224 360 207.8822528 360 188 Z" stroke-miterlimit="10"/></g><g transform="translate(-111,-22) scale(1,1)"><g><path fill="none" stroke="none"/><text fill="#000000" stroke="none" font-family="Arial" font-size="16px" font-style="normal" font-weight="bold" text-decoration="none" x="419.0703125" y="188.5">Gérer la Surconsomation</text><text fill="#000000" stroke="none" font-family="Arial" font-size="16px" font-style="normal" font-weight="bold" text-decoration="none" x="468.42578125" y="204.5">des Clients</text></g></g><g transform="translate(-111,-22) scale(1,1)"><path fill="#C0C0C0" stroke="none" d="M 399 311 C 399 293.3268864 456.3075456 279 527 279 C 597.6924544 279 655 293.3268864 655 311 C 655 328.6731136 597.6924544 343 527 343 C 456.3075456 343 399 328.6731136 399 311 Z" opacity="0.2"/></g><g transform="translate(-111,-22) scale(1,1)"><path fill="#ffffff" stroke="none" d="M 392 304 C 392 286.3268864 449.3075456 272 520 272 C 590.6924544 272 648 286.3268864 648 304 C 648 321.6731136 590.6924544 336 520 336 C 449.3075456 336 392 321.6731136 392 304 Z"/></g><g transform="translate(-111,-22) scale(1,1)"><path fill="none" stroke="#000000" d="M 392 304 C 392 286.3268864 449.3075456 272 520 272 C 590.6924544 272 648 286.3268864 648 304 C 648 321.6731136 590.6924544 336 520 336 C 449.3075456 336 392 321.6731136 392 304 Z" stroke-miterlimit="10"/></g><g transform="translate(-111,-22) scale(1,1)"><g><path fill="none" stroke="none"/><text fill="#000000" stroke="none" font-family="Arial" font-size="16px" font-style="normal" font-weight="bold" text-decoration="none" x="449.75" y="312.5">Notifications Clients</text></g></g><g transform="translate(-111,-22) scale(1,1)"><path fill="#C0C0C0" stroke="none" d="M 391 423 C 391 405.3268864 442.93496319999997 391 507 391 C 571.0650368 391 623 405.3268864 623 423 C 623 440.6731136 571.0650368 455 507 455 C 442.93496319999997 455 391 440.6731136 391 423 Z" opacity="0.2"/></g><g transform="translate(-111,-22) scale(1,1)"><path fill="#ffffff" stroke="none" d="M 384 416 C 384 398.3268864 435.93496319999997 384 500 384 C 564.0650368 384 616 398.3268864 616 416 C 616 433.6731136 564.0650368 448 500 448 C 435.93496319999997 448 384 433.6731136 384 416 Z"/></g><g transform="translate(-111,-22) scale(1,1)"><path fill="none" stroke="#000000" d="M 384 416 C 384 398.3268864 435.93496319999997 384 500 384 C 564.0650368 384 616 398.3268864 616 416 C 616 433.6731136 564.0650368 448 500 448 C 435.93496319999997 448 384 433.6731136 384 416 Z" stroke-miterlimit="10"/></g><g transform="translate(-111,-22) scale(1,1)"><g><path fill="none" stroke="none"/><text fill="#000000" stroke="none" font-family="Arial" font-size="16px" font-style="normal" font-weight="bold" text-decoration="none" x="451.97265625" y="416.5">Exceptions et</text><text fill="#000000" stroke="none" font-family="Arial" font-size="16px" font-style="normal" font-weight="bold" text-decoration="none" x="475.1015625" y="432.5">Alertes</text></g></g><g transform="translate(-111,-22) scale(1,1)"><path fill="#C0C0C0" stroke="none" d="M 383 559 C 383 541.3268864 434.0395328 527 497 527 C 559.9604672 527 611 541.3268864 611 559 C 611 576.6731136 559.9604672 591 497 591 C 434.0395328 591 383 576.6731136 383 559 Z" opacity="0.2"/></g><g transform="translate(-111,-22) scale(1,1)"><path fill="#ffffff" stroke="none" d="M 376 552 C 376 534.3268864 427.0395328 520 490 520 C 552.9604672 520 604 534.3268864 604 552 C 604 569.6731136 552.9604672 584 490 584 C 427.0395328 584 376 569.6731136 376 552 Z"/></g><g transform="translate(-111,-22) scale(1,1)"><path fill="none" stroke="#000000" d="M 376 552 C 376 534.3268864 427.0395328 520 490 520 C 552.9604672 520 604 534.3268864 604 552 C 604 569.6731136 552.9604672 584 490 584 C 427.0395328 584 376 569.6731136 376 552 Z" stroke-miterlimit="10"/></g><g transform="translate(-111,-22) scale(1,1)"><g><path fill="none" stroke="none"/><text fill="#000000" stroke="none" font-family="Arial" font-size="16px" font-style="normal" font-weight="bold" text-decoration="none" x="437.98046875" y="552.5">Actions  BI BO</text><text fill="#000000" stroke="none" font-family="Arial" font-size="16px" font-style="normal" font-weight="bold" text-decoration="none" x="457.54296875" y="568.5">BlackLIst</text></g></g><g transform="translate(-111,-22) scale(1,1)"><path fill="#C0C0C0" stroke="none" d="M 407 711 C 407 693.3268864 457.1441024 679 519 679 C 580.8558976 679 631 693.3268864 631 711 C 631 728.6731136 580.8558976 743 519 743 C 457.1441024 743 407 728.6731136 407 711 Z" opacity="0.2"/></g><g transform="translate(-111,-22) scale(1,1)"><path fill="#ffffff" stroke="none" d="M 400 704 C 400 686.3268864 450.1441024 672 512 672 C 573.8558976 672 624 686.3268864 624 704 C 624 721.6731136 573.8558976 736 512 736 C 450.1441024 736 400 721.6731136 400 704 Z"/></g><g transform="translate(-111,-22) scale(1,1)"><path fill="none" stroke="#000000" d="M 400 704 C 400 686.3268864 450.1441024 672 512 672 C 573.8558976 672 624 686.3268864 624 704 C 624 721.6731136 573.8558976 736 512 736 C 450.1441024 736 400 721.6731136 400 704 Z" stroke-miterlimit="10"/></g><g transform="translate(-111,-22) scale(1,1)"><g><path fill="none" stroke="none"/><text fill="#000000" stroke="none" font-family="Arial" font-size="16px" font-style="normal" font-weight="bold" text-decoration="none" x="464.41796875" y="704.5">Recherche et</text><text fill="#000000" stroke="none" font-family="Arial" font-size="16px" font-style="normal" font-weight="bold" text-decoration="none" x="478.7890625" y="720.5">Affichage</text></g></g><g transform="translate(-111,-22) scale(1,1)"><path fill="#C0C0C0" stroke="none" d="M 383 831 C 383 808.908608 440.9791184 791 512.5 791 C 584.0208815999999 791 642 808.908608 642 831 C 642 853.091392 584.0208815999999 871 512.5 871 C 440.9791184 871 383 853.091392 383 831 Z" opacity="0.2"/></g><g transform="translate(-111,-22) scale(1,1)"><path fill="#ffffff" stroke="none" d="M 376 824 C 376 801.908608 433.9791184 784 505.5 784 C 577.0208815999999 784 635 801.908608 635 824 C 635 846.091392 577.0208815999999 864 505.5 864 C 433.9791184 864 376 846.091392 376 824 Z"/></g><g transform="translate(-111,-22) scale(1,1)"><path fill="none" stroke="#000000" d="M 376 824 C 376 801.908608 433.9791184 784 505.5 784 C 577.0208815999999 784 635 801.908608 635 824 C 635 846.091392 577.0208815999999 864 505.5 864 C 433.9791184 864 376 846.091392 376 824 Z" stroke-miterlimit="10"/></g><g transform="translate(-111,-22) scale(1,1)"><g><path fill="none" stroke="none"/><text fill="#000000" stroke="none" font-family="Arial" font-size="16px" font-style="normal" font-weight="bold" text-decoration="none" x="429.4453125" y="824.5">Reporting Tableau de</text><text fill="#000000" stroke="none" font-family="Arial" font-size="16px" font-style="normal" font-weight="bold" text-decoration="none" x="484.15234375" y="840.5">Board</text></g></g><g transform="translate(-111,-22) scale(1,1)"><path fill="#ffffff" stroke="none" d="M 752 88 L 1212 88 L 1222 98 L 1222 191 L 752 191 L 752 88"/></g><g transform="translate(-111,-22) scale(1,1)"><path fill="none" stroke="#000000" d="M 752 88 L 1212 88 L 1222 98 L 1222 191 L 752 191 L 752 88 L 752 88" stroke-miterlimit="10"/></g><g transform="translate(-111,-22) scale(1,1)"><path fill="none" stroke="#000000" d="M 1212 88 L 1212 98 L 1222 98 L 1212 88" stroke-miterlimit="10"/></g><g transform="translate(-111,-22) scale(1,1)"><g><path fill="none" stroke="none"/><text fill="#000000" stroke="none" font-family="Arial" font-size="22px" font-style="normal" font-weight="normal" text-decoration="none" x="757" y="115">                                                                           </text><text fill="#000000" stroke="none" font-family="Arial" font-size="22px" font-style="normal" font-weight="normal" text-decoration="none" x="757" y="137">   DIAGRAMME LEKBIR POUR</text><text fill="#000000" stroke="none" font-family="Arial" font-size="22px" font-style="normal" font-weight="normal" text-decoration="none" x="757" y="159">L'ASSEMBLAGE </text></g></g><g transform="translate(-111,-22) scale(1,1)"><g><path fill="none" stroke="none"/></g></g><g transform="translate(-111,-22) scale(1,1)"><path fill="none" stroke="#000000" d="M 468 225 L 220 453" stroke-miterlimit="10"/></g><g transform="translate(-111,-22) scale(1,1)"><path fill="none" stroke="#000000" d="M 461 337 L 220 472" stroke-miterlimit="10"/></g><g transform="translate(-111,-22) scale(1,1)"><path fill="none" stroke="#000000" d="M 383 446 L 220 487" stroke-miterlimit="10"/></g><g transform="translate(-111,-22) scale(1,1)"><path fill="none" stroke="#000000" d="M 375 533 L 220 508" stroke-miterlimit="10"/></g><g transform="translate(-111,-22) scale(1,1)"><path fill="none" stroke="#000000" d="M 457 671 L 220 530" stroke-miterlimit="10"/></g><g transform="translate(-111,-22) scale(1,1)"><path fill="none" stroke="#000000" d="M 462 783 L 220 549" stroke-miterlimit="10"/></g></g></svg>