<svg version="1.1" xmlns="http://www.w3.org/2000/svg" xmlns:xlink="http://www.w3.org/1999/xlink" width="1313.490234375" height="1060"><defs/><g><g transform="translate(-143,-350) scale(1,1)"><path fill="none" stroke="#000000" d="M 312 360 L 1192 360 L 1192 1400 L 312 1400 L 312 360" stroke-miterlimit="10"/></g><g transform="translate(-143,-350) scale(1,1)"><path fill="#ffffff" stroke="none" d="M 312 360 L 312 385 L 518.3515625 385 L 530.8515625 372.5 L 530.8515625 360 L 312 360"/></g><g transform="translate(-143,-350) scale(1,1)"><path fill="none" stroke="#000000" d="M 312 360 L 312 385 L 518.3515625 385 L 530.8515625 372.5 L 530.8515625 360 L 312 360 L 312 360" stroke-miterlimit="10"/></g><g transform="translate(-143,-350) scale(1,1)"><g><path fill="none" stroke="none"/><text fill="#000000" stroke="none" font-family="Arial" font-size="16px" font-style="normal" font-weight="normal" text-decoration="none" x="387.0390625" y="380.5">Dunning Ooredoo</text></g></g><g transform="translate(-143,-350) scale(1,1)"><g><path fill="none" stroke="none"/><text fill="#000000" stroke="none" font-family="Arial" font-size="16px" font-style="normal" font-weight="bold" text-decoration="none" x="317" y="380.5">use case</text></g></g><g transform="translate(-143,-350) scale(1,1)"><path fill="#ffffff" stroke="none" d="M 182.98030948153408 772.39 C 182.98030948153408 761.681197728 191.3996345189159 753 201.785400390625 753 C 212.1711662623341 753 220.59049129971592 761.681197728 220.59049129971592 772.39 C 220.59049129971592 783.098802272 212.1711662623341 791.78 201.785400390625 791.78 C 191.3996345189159 791.78 182.98030948153408 783.098802272 182.98030948153408 772.39 Z"/></g><g transform="translate(-143,-350) scale(1,1)"><path fill="none" stroke="#000000" d="M 182.98030948153408 772.39 C 182.98030948153408 761.681197728 191.3996345189159 753 201.785400390625 753 C 212.1711662623341 753 220.59049129971592 761.681197728 220.59049129971592 772.39 C 220.59049129971592 783.098802272 212.1711662623341 791.78 201.785400390625 791.78 C 191.3996345189159 791.78 182.98030948153408 783.098802272 182.98030948153408 772.39 Z" stroke-miterlimit="10"/></g><g transform="translate(-143,-350) scale(1,1)"><path fill="none" stroke="#000000" d="M 201.785400390625 791.78 L 201.785400390625 829.22" stroke-miterlimit="10"/></g><g transform="translate(-143,-350) scale(1,1)"><path fill="none" stroke="#000000" d="M 181.87412766335228 805.82 L 221.69667311789772 805.82" stroke-miterlimit="10"/></g><g transform="translate(-143,-350) scale(1,1)"><path fill="none" stroke="#000000" d="M 201.785400390625 829.22 L 174.13085493607954 868" stroke-miterlimit="10"/></g><g transform="translate(-143,-350) scale(1,1)"><path fill="none" stroke="#000000" d="M 201.785400390625 829.22 L 229.43994584517046 868" stroke-miterlimit="10"/></g><g transform="translate(-143,-350) scale(1,1)"><path fill="none" stroke="#000000" d="M 153 894 L 250.57080078125 894" stroke-miterlimit="10"/></g><g transform="translate(-143,-350) scale(1,1)"><g><path fill="none" stroke="none"/><text fill="#000000" stroke="none" font-family="Arial" font-size="13px" font-style="normal" font-weight="bold" text-decoration="none" x="183.726318359375" y="888.5">USER</text></g></g><g transform="translate(-143,-350) scale(1,1)"><path fill="#ffffff" stroke="none" d="M 1354.9803094815343 756.39 C 1354.9803094815343 745.681197728 1363.399634518916 737 1373.785400390625 737 C 1384.171166262334 737 1392.5904912997157 745.681197728 1392.5904912997157 756.39 C 1392.5904912997157 767.098802272 1384.171166262334 775.78 1373.785400390625 775.78 C 1363.399634518916 775.78 1354.9803094815343 767.098802272 1354.9803094815343 756.39 Z"/></g><g transform="translate(-143,-350) scale(1,1)"><path fill="none" stroke="#000000" d="M 1354.9803094815343 756.39 C 1354.9803094815343 745.681197728 1363.399634518916 737 1373.785400390625 737 C 1384.171166262334 737 1392.5904912997157 745.681197728 1392.5904912997157 756.39 C 1392.5904912997157 767.098802272 1384.171166262334 775.78 1373.785400390625 775.78 C 1363.399634518916 775.78 1354.9803094815343 767.098802272 1354.9803094815343 756.39 Z" stroke-miterlimit="10"/></g><g transform="translate(-143,-350) scale(1,1)"><path fill="none" stroke="#000000" d="M 1373.785400390625 775.78 L 1373.785400390625 813.22" stroke-miterlimit="10"/></g><g transform="translate(-143,-350) scale(1,1)"><path fill="none" stroke="#000000" d="M 1353.8741276633523 789.82 L 1393.6966731178977 789.82" stroke-miterlimit="10"/></g><g transform="translate(-143,-350) scale(1,1)"><path fill="none" stroke="#000000" d="M 1373.785400390625 813.22 L 1346.1308549360797 852" stroke-miterlimit="10"/></g><g transform="translate(-143,-350) scale(1,1)"><path fill="none" stroke="#000000" d="M 1373.785400390625 813.22 L 1401.4399458451703 852" stroke-miterlimit="10"/></g><g transform="translate(-143,-350) scale(1,1)"><path fill="none" stroke="#000000" d="M 1329 878 L 1418.57080078125 878" stroke-miterlimit="10"/></g><g transform="translate(-143,-350) scale(1,1)"><g><path fill="none" stroke="none"/><text fill="#000000" stroke="none" font-family="Arial" font-size="13px" font-style="normal" font-weight="bold" text-decoration="none" x="1360.05859375" y="872.5">SOA</text></g></g><g transform="translate(-143,-350) scale(1,1)"><path fill="#ffffff" stroke="none" d="M 1305 896 L 1435.490234375 896 L 1445.490234375 906 L 1445.490234375 944 L 1305 944 L 1305 896"/></g><g transform="translate(-143,-350) scale(1,1)"><path fill="none" stroke="#000000" d="M 1305 896 L 1435.490234375 896 L 1445.490234375 906 L 1445.490234375 944 L 1305 944 L 1305 896 L 1305 896" stroke-miterlimit="10"/></g><g transform="translate(-143,-350) scale(1,1)"><path fill="none" stroke="#000000" d="M 1435.490234375 896 L 1435.490234375 906 L 1445.490234375 906 L 1435.490234375 896" stroke-miterlimit="10"/></g><g transform="translate(-143,-350) scale(1,1)"><g><path fill="none" stroke="none"/><text fill="#000000" stroke="none" font-family="Arial" font-size="20px" font-style="normal" font-weight="normal" text-decoration="none" x="1310" y="921">&lt;&lt;System&gt;&gt;</text></g></g><g transform="translate(-143,-350) scale(1,1)"><path fill="none" stroke="#000000" d="M 1374 889 L 1375 895" stroke-miterlimit="10" stroke-dasharray="3"/></g><g transform="translate(-143,-350) scale(1,1)"><rect fill="#000000" stroke="none" x="1337" y="752" width="72" height="8"/></g><g transform="translate(-143,-350) scale(1,1)"><path fill="none" stroke="#000000" d="M 1337 752 L 1409 752 L 1409 760 L 1337 760 L 1337 752 Z Z" stroke-miterlimit="10"/></g><g transform="translate(-143,-350) scale(1,1)"><path fill="#C0C0C0" stroke="none" d="M 399 537 C 399 509.38576 465.2618496 487 547 487 C 628.7381504 487 695 509.38576 695 537 C 695 564.61424 628.7381504 587 547 587 C 465.2618496 587 399 564.61424 399 537 Z" opacity="0.2"/></g><g transform="translate(-143,-350) scale(1,1)"><path fill="#ffffff" stroke="none" d="M 392 530 C 392 502.38576 458.2618496 480 540 480 C 621.7381504 480 688 502.38576 688 530 C 688 557.61424 621.7381504 580 540 580 C 458.2618496 580 392 557.61424 392 530 Z"/></g><g transform="translate(-143,-350) scale(1,1)"><path fill="none" stroke="#000000" d="M 392 530 C 392 502.38576 458.2618496 480 540 480 C 621.7381504 480 688 502.38576 688 530 C 688 557.61424 621.7381504 580 540 580 C 458.2618496 580 392 557.61424 392 530 Z" stroke-miterlimit="10"/></g><g transform="translate(-143,-350) scale(1,1)"><g><path fill="none" stroke="none"/><text fill="#000000" stroke="none" font-family="Arial" font-size="18px" font-style="normal" font-weight="bold" text-decoration="none" x="507.4892578125" y="521.5">Gérer la</text><text fill="#000000" stroke="none" font-family="Arial" font-size="18px" font-style="normal" font-weight="bold" text-decoration="none" x="457.9541015625" y="539.5">Surconsomation des</text><text fill="#000000" stroke="none" font-family="Arial" font-size="18px" font-style="normal" font-weight="bold" text-decoration="none" x="512.490234375" y="557.5">Clients</text></g></g><g transform="translate(-143,-350) scale(1,1)"><path fill="#C0C0C0" stroke="none" d="M 423 691 C 423 671.1177472 482.0984064 655 555 655 C 627.9015936 655 687 671.1177472 687 691 C 687 710.8822528 627.9015936 727 555 727 C 482.0984064 727 423 710.8822528 423 691 Z" opacity="0.2"/></g><g transform="translate(-143,-350) scale(1,1)"><path fill="#ffffff" stroke="none" d="M 416 684 C 416 664.1177472 475.0984064 648 548 648 C 620.9015936 648 680 664.1177472 680 684 C 680 703.8822528 620.9015936 720 548 720 C 475.0984064 720 416 703.8822528 416 684 Z"/></g><g transform="translate(-143,-350) scale(1,1)"><path fill="none" stroke="#000000" d="M 416 684 C 416 664.1177472 475.0984064 648 548 648 C 620.9015936 648 680 664.1177472 680 684 C 680 703.8822528 620.9015936 720 548 720 C 475.0984064 720 416 703.8822528 416 684 Z" stroke-miterlimit="10"/></g><g transform="translate(-143,-350) scale(1,1)"><g><path fill="none" stroke="none"/><text fill="#000000" stroke="none" font-family="Arial" font-size="18px" font-style="normal" font-weight="bold" text-decoration="none" x="468.96875" y="693.5">Notifications Clients</text></g></g><g transform="translate(-143,-350) scale(1,1)"><path fill="#C0C0C0" stroke="none" d="M 415 807 C 415 784.908608 470.5166848 767 539 767 C 607.4833152 767 663 784.908608 663 807 C 663 829.091392 607.4833152 847 539 847 C 470.5166848 847 415 829.091392 415 807 Z" opacity="0.2"/></g><g transform="translate(-143,-350) scale(1,1)"><path fill="#ffffff" stroke="none" d="M 408 800 C 408 777.908608 463.5166848 760 532 760 C 600.4833152 760 656 777.908608 656 800 C 656 822.091392 600.4833152 840 532 840 C 463.5166848 840 408 822.091392 408 800 Z"/></g><g transform="translate(-143,-350) scale(1,1)"><path fill="none" stroke="#000000" d="M 408 800 C 408 777.908608 463.5166848 760 532 760 C 600.4833152 760 656 777.908608 656 800 C 656 822.091392 600.4833152 840 532 840 C 463.5166848 840 408 822.091392 408 800 Z" stroke-miterlimit="10"/></g><g transform="translate(-143,-350) scale(1,1)"><g><path fill="none" stroke="none"/><text fill="#000000" stroke="none" font-family="Arial" font-size="18px" font-style="normal" font-weight="bold" text-decoration="none" x="477.96923828125" y="800.5">Exceptions et</text><text fill="#000000" stroke="none" font-family="Arial" font-size="18px" font-style="normal" font-weight="bold" text-decoration="none" x="503.9892578125" y="818.5">Alertes</text></g></g><g transform="translate(-143,-350) scale(1,1)"><path fill="#C0C0C0" stroke="none" d="M 415 927 C 415 904.908608 468.725824 887 535 887 C 601.274176 887 655 904.908608 655 927 C 655 949.091392 601.274176 967 535 967 C 468.725824 967 415 949.091392 415 927 Z" opacity="0.2"/></g><g transform="translate(-143,-350) scale(1,1)"><path fill="#ffffff" stroke="none" d="M 408 920 C 408 897.908608 461.725824 880 528 880 C 594.274176 880 648 897.908608 648 920 C 648 942.091392 594.274176 960 528 960 C 461.725824 960 408 942.091392 408 920 Z"/></g><g transform="translate(-143,-350) scale(1,1)"><path fill="none" stroke="#000000" d="M 408 920 C 408 897.908608 461.725824 880 528 880 C 594.274176 880 648 897.908608 648 920 C 648 942.091392 594.274176 960 528 960 C 461.725824 960 408 942.091392 408 920 Z" stroke-miterlimit="10"/></g><g transform="translate(-143,-350) scale(1,1)"><g><path fill="none" stroke="none"/><text fill="#000000" stroke="none" font-family="Arial" font-size="18px" font-style="normal" font-weight="bold" text-decoration="none" x="469.47802734375" y="920.5">Actions  BI BO</text><text fill="#000000" stroke="none" font-family="Arial" font-size="18px" font-style="normal" font-weight="bold" text-decoration="none" x="491.48583984375" y="938.5">BlackLIst</text></g></g><g transform="translate(-143,-350) scale(1,1)"><path fill="#C0C0C0" stroke="none" d="M 423 1060 C 423 1039.5654624 474.93496319999997 1023 539 1023 C 603.0650368 1023 655 1039.5654624 655 1060 C 655 1080.4345376 603.0650368 1097 539 1097 C 474.93496319999997 1097 423 1080.4345376 423 1060 Z" opacity="0.2"/></g><g transform="translate(-143,-350) scale(1,1)"><path fill="#ffffff" stroke="none" d="M 416 1053 C 416 1032.5654624 467.93496319999997 1016 532 1016 C 596.0650368 1016 648 1032.5654624 648 1053 C 648 1073.4345376 596.0650368 1090 532 1090 C 467.93496319999997 1090 416 1073.4345376 416 1053 Z"/></g><g transform="translate(-143,-350) scale(1,1)"><path fill="none" stroke="#000000" d="M 416 1053 C 416 1032.5654624 467.93496319999997 1016 532 1016 C 596.0650368 1016 648 1032.5654624 648 1053 C 648 1073.4345376 596.0650368 1090 532 1090 C 467.93496319999997 1090 416 1073.4345376 416 1053 Z" stroke-miterlimit="10"/></g><g transform="translate(-143,-350) scale(1,1)"><g><path fill="none" stroke="none"/><text fill="#000000" stroke="none" font-family="Arial" font-size="18px" font-style="normal" font-weight="bold" text-decoration="none" x="478.47021484375" y="1053.5">Recherche et</text><text fill="#000000" stroke="none" font-family="Arial" font-size="18px" font-style="normal" font-weight="bold" text-decoration="none" x="494.6376953125" y="1071.5">Affichage</text></g></g><g transform="translate(-143,-350) scale(1,1)"><path fill="#C0C0C0" stroke="none" d="M 383 1227 C 383 1202.6994688 442.0984064 1183 515 1183 C 587.9015936 1183 647 1202.6994688 647 1227 C 647 1251.3005312 587.9015936 1271 515 1271 C 442.0984064 1271 383 1251.3005312 383 1227 Z" opacity="0.2"/></g><g transform="translate(-143,-350) scale(1,1)"><path fill="#ffffff" stroke="none" d="M 376 1220 C 376 1195.6994688 435.0984064 1176 508 1176 C 580.9015936 1176 640 1195.6994688 640 1220 C 640 1244.3005312 580.9015936 1264 508 1264 C 435.0984064 1264 376 1244.3005312 376 1220 Z"/></g><g transform="translate(-143,-350) scale(1,1)"><path fill="none" stroke="#000000" d="M 376 1220 C 376 1195.6994688 435.0984064 1176 508 1176 C 580.9015936 1176 640 1195.6994688 640 1220 C 640 1244.3005312 580.9015936 1264 508 1264 C 435.0984064 1264 376 1244.3005312 376 1220 Z" stroke-miterlimit="10"/></g><g transform="translate(-143,-350) scale(1,1)"><g><path fill="none" stroke="none"/><text fill="#000000" stroke="none" font-family="Arial" font-size="18px" font-style="normal" font-weight="bold" text-decoration="none" x="434.94970703125" y="1220.5">Reporting Tableau</text><text fill="#000000" stroke="none" font-family="Arial" font-size="18px" font-style="normal" font-weight="bold" text-decoration="none" x="471.47265625" y="1238.5">de Board</text></g></g><g transform="translate(-143,-350) scale(1,1)"><path fill="#ffffff" stroke="none" d="M 776 456 L 1236 456 L 1246 466 L 1246 559 L 776 559 L 776 456"/></g><g transform="translate(-143,-350) scale(1,1)"><path fill="none" stroke="#000000" d="M 776 456 L 1236 456 L 1246 466 L 1246 559 L 776 559 L 776 456 L 776 456" stroke-miterlimit="10"/></g><g transform="translate(-143,-350) scale(1,1)"><path fill="none" stroke="#000000" d="M 1236 456 L 1236 466 L 1246 466 L 1236 456" stroke-miterlimit="10"/></g><g transform="translate(-143,-350) scale(1,1)"><g><path fill="none" stroke="none"/><text fill="#000000" stroke="none" font-family="Arial" font-size="22px" font-style="normal" font-weight="normal" text-decoration="none" x="781" y="483">                                                                           </text><text fill="#000000" stroke="none" font-family="Arial" font-size="22px" font-style="normal" font-weight="normal" text-decoration="none" x="781" y="505">   DIAGRAMME LEKBIR POUR</text><text fill="#000000" stroke="none" font-family="Arial" font-size="22px" font-style="normal" font-weight="normal" text-decoration="none" x="781" y="527">L'ASSEMBLAGE </text></g></g><g transform="translate(-143,-350) scale(1,1)"><g><path fill="none" stroke="none"/></g></g><g transform="translate(-143,-350) scale(1,1)"><path fill="none" stroke="#000000" d="M 252 784 L 482 581" stroke-miterlimit="10"/></g><g transform="translate(-143,-350) scale(1,1)"><path fill="none" stroke="#000000" d="M 252 807 L 459 721" stroke-miterlimit="10"/></g><g transform="translate(-143,-350) scale(1,1)"><path fill="none" stroke="#000000" d="M 252 824 L 407 811" stroke-miterlimit="10"/></g><g transform="translate(-143,-350) scale(1,1)"><path fill="none" stroke="#000000" d="M 252 842 L 407 886" stroke-miterlimit="10"/></g><g transform="translate(-143,-350) scale(1,1)"><path fill="none" stroke="#000000" d="M 252 862 L 476 1015" stroke-miterlimit="10"/></g><g transform="translate(-143,-350) scale(1,1)"><path fill="none" stroke="#000000" d="M 252 893 L 473 1175" stroke-miterlimit="10"/></g></g></svg>